<ttFont>
    <TTGlyph name=".notdef" xMin="193" yMin="0" xMax="1034" yMax="1462">
      <contour>
        <pt x="193" y="1462" on="1"/>
        <pt x="1034" y="1462" on="1"/>
        <pt x="1034" y="0" on="1"/>
        <pt x="193" y="0" on="1"/>
      </contour>
      <contour>
        <pt x="297" y="104" on="1"/>
        <pt x="930" y="104" on="1"/>
        <pt x="930" y="1358" on="1"/>
        <pt x="297" y="1358" on="1"/>
      </contour>
    </TTGlyph>
    <TTGlyph name="afii301" xMin="-299" yMin="-338" xMax="299" yMax="1613">
      <contour>
        <pt x="74" y="1323" on="1"/>
        <pt x="299" y="1103" on="1"/>
        <pt x="224" y="1030" on="1"/>
        <pt x="54" y="1199" on="1"/>
        <pt x="54" y="-338" on="1"/>
        <pt x="-54" y="-338" on="1"/>
        <pt x="-54" y="1199" on="1"/>
        <pt x="-224" y="1030" on="1"/>
        <pt x="-299" y="1103" on="1"/>
        <pt x="-74" y="1323" on="1"/>
        <pt x="-299" y="1540" on="1"/>
        <pt x="-224" y="1613" on="1"/>
        <pt x="0" y="1393" on="1"/>
        <pt x="224" y="1613" on="1"/>
        <pt x="299" y="1539" on="1"/>
      </contour>
    </TTGlyph>
    <TTGlyph name="afii61664" xMin="-54" yMin="-339" xMax="54" yMax="1613">
      <contour>
        <pt x="-54" y="-339" on="1"/>
        <pt x="-54" y="1613" on="1"/>
        <pt x="54" y="1613" on="1"/>
        <pt x="54" y="-339" on="1"/>
      </contour>
    </TTGlyph>
    <TTGlyph name="asciicircum" xMin="60" yMin="549" xMax="1068" yMax="1473">
      <contour>
        <pt x="60" y="549" on="1"/>
        <pt x="519" y="1473" on="1"/>
        <pt x="621" y="1473" on="1"/>
        <pt x="1068" y="549" on="1"/>
        <pt x="907" y="549" on="1"/>
        <pt x="570" y="1284" on="1"/>
        <pt x="221" y="549" on="1"/>
      </contour>
    </TTGlyph>
    <TTGlyph name="asciitilde" xMin="102" yMin="485" xMax="1026" yMax="757">
      <contour>
        <pt x="102" y="485" on="1"/>
        <pt x="102" y="647" on="1"/>
        <pt x="202" y="755" on="0"/>
        <pt x="350" y="755" on="1"/>
        <pt x="404" y="755" on="0"/>
        <pt x="495" y="736" on="0"/>
        <pt x="598" y="692" on="1"/>
        <pt x="678" y="658" on="0"/>
        <pt x="754" y="636" on="0"/>
        <pt x="799" y="636" on="1"/>
        <pt x="850" y="636" on="0"/>
        <pt x="972" y="701" on="0"/>
        <pt x="1026" y="757" on="1"/>
        <pt x="1026" y="595" on="1"/>
        <pt x="927" y="487" on="0"/>
        <pt x="778" y="487" on="1"/>
        <pt x="719" y="487" on="0"/>
        <pt x="623" y="510" on="0"/>
        <pt x="530" y="550" on="1"/>
        <pt x="449" y="585" on="0"/>
        <pt x="376" y="606" on="0"/>
        <pt x="330" y="606" on="1"/>
        <pt x="280" y="606" on="0"/>
        <pt x="161" y="543" on="0"/>
      </contour>
    </TTGlyph>
    <TTGlyph name="asterisk" xMin="130" yMin="600" xMax="1092" yMax="1525">
      <contour>
        <pt x="712" y="1525" on="1"/>
        <pt x="669" y="1132" on="1"/>
        <pt x="1066" y="1243" on="1"/>
        <pt x="1092" y="1050" on="1"/>
        <pt x="714" y="1022" on="1"/>
        <pt x="959" y="696" on="1"/>
        <pt x="781" y="600" on="1"/>
        <pt x="605" y="958" on="1"/>
        <pt x="447" y="600" on="1"/>
        <pt x="263" y="696" on="1"/>
        <pt x="505" y="1022" on="1"/>
        <pt x="130" y="1050" on="1"/>
        <pt x="159" y="1243" on="1"/>
        <pt x="550" y="1132" on="1"/>
        <pt x="507" y="1525" on="1"/>
      </contour>
    </TTGlyph>
    <TTGlyph name="backslash" xMin="86" yMin="-339" xMax="793" yMax="1703">
      <contour>
        <pt x="254" y="1703" on="1"/>
        <pt x="793" y="-339" on="1"/>
        <pt x="625" y="-339" on="1"/>
        <pt x="86" y="1703" on="1"/>
      </contour>
    </TTGlyph>
    <TTGlyph name="bar" xMin="479" yMin="-339" xMax="626" yMax="1703">
      <contour>
        <pt x="479" y="1703" on="1"/>
        <pt x="626" y="1703" on="1"/>
        <pt x="626" y="-339" on="1"/>
        <pt x="479" y="-339" on="1"/>
      </contour>
    </TTGlyph>
    <TTGlyph name="braceleft" xMin="90" yMin="-339" xMax="691" yMax="1703">
      <contour>
        <pt x="507" y="-37" on="1"/>
        <pt x="507" y="-115" on="0"/>
        <pt x="585" y="-190" on="0"/>
        <pt x="691" y="-192" on="1"/>
        <pt x="691" y="-339" on="1"/>
        <pt x="519" y="-336" on="0"/>
        <pt x="341" y="-189" on="0"/>
        <pt x="341" y="-51" on="1"/>
        <pt x="341" y="421" on="1"/>
        <pt x="341" y="522" on="0"/>
        <pt x="212" y="606" on="0"/>
        <pt x="90" y="606" on="1"/>
        <pt x="90" y="758" on="1"/>
        <pt x="212" y="758" on="0"/>
        <pt x="341" y="842" on="0"/>
        <pt x="341" y="943" on="1"/>
        <pt x="341" y="1416" on="1"/>
        <pt x="341" y="1552" on="0"/>
        <pt x="519" y="1700" on="0"/>
        <pt x="691" y="1703" on="1"/>
        <pt x="691" y="1557" on="1"/>
        <pt x="585" y="1555" on="0"/>
        <pt x="507" y="1480" on="0"/>
        <pt x="507" y="1402" on="1"/>
        <pt x="507" y="931" on="1"/>
        <pt x="507" y="728" on="0"/>
        <pt x="291" y="687" on="1"/>
        <pt x="291" y="676" on="1"/>
        <pt x="507" y="635" on="0"/>
        <pt x="507" y="433" on="1"/>
      </contour>
    </TTGlyph>
    <TTGlyph name="braceright" xMin="110" yMin="-339" xMax="711" yMax="1703">
      <contour>
        <pt x="293" y="433" on="1"/>
        <pt x="293" y="635" on="0"/>
        <pt x="510" y="676" on="1"/>
        <pt x="510" y="687" on="1"/>
        <pt x="293" y="728" on="0"/>
        <pt x="293" y="931" on="1"/>
        <pt x="293" y="1402" on="1"/>
        <pt x="293" y="1481" on="0"/>
        <pt x="216" y="1555" on="0"/>
        <pt x="110" y="1557" on="1"/>
        <pt x="110" y="1703" on="1"/>
        <pt x="283" y="1700" on="0"/>
        <pt x="460" y="1552" on="0"/>
        <pt x="460" y="1416" on="1"/>
        <pt x="460" y="943" on="1"/>
        <pt x="460" y="845" on="0"/>
        <pt x="583" y="758" on="0"/>
        <pt x="711" y="758" on="1"/>
        <pt x="711" y="606" on="1"/>
        <pt x="588" y="606" on="0"/>
        <pt x="460" y="522" on="0"/>
        <pt x="460" y="421" on="1"/>
        <pt x="460" y="-51" on="1"/>
        <pt x="460" y="-188" on="0"/>
        <pt x="282" y="-336" on="0"/>
        <pt x="110" y="-339" on="1"/>
        <pt x="110" y="-192" on="1"/>
        <pt x="216" y="-190" on="0"/>
        <pt x="293" y="-116" on="0"/>
        <pt x="293" y="-37" on="1"/>
      </contour>
    </TTGlyph>
    <TTGlyph name="bracketleft" xMin="221" yMin="-339" xMax="618" yMax="1704">
      <contour>
        <pt x="618" y="-339" on="1"/>
        <pt x="221" y="-339" on="1"/>
        <pt x="221" y="1704" on="1"/>
        <pt x="618" y="1704" on="1"/>
        <pt x="618" y="1561" on="1"/>
        <pt x="386" y="1561" on="1"/>
        <pt x="386" y="-196" on="1"/>
        <pt x="618" y="-196" on="1"/>
      </contour>
    </TTGlyph>
    <TTGlyph name="bracketright" xMin="110" yMin="-339" xMax="508" yMax="1703">
      <contour>
        <pt x="110" y="-196" on="1"/>
        <pt x="341" y="-196" on="1"/>
        <pt x="341" y="1560" on="1"/>
        <pt x="110" y="1560" on="1"/>
        <pt x="110" y="1703" on="1"/>
        <pt x="508" y="1703" on="1"/>
        <pt x="508" y="-339" on="1"/>
        <pt x="110" y="-339" on="1"/>
      </contour>
    </TTGlyph>
    <TTGlyph name="colon" xMin="175" yMin="-29" xMax="429" yMax="1126">
      <contour>
        <pt x="302" y="1126" on="1"/>
        <pt x="365" y="1126" on="0"/>
        <pt x="429" y="1054" on="0"/>
        <pt x="429" y="987" on="1"/>
        <pt x="429" y="921" on="0"/>
        <pt x="361" y="848" on="0"/>
        <pt x="302" y="848" on="1"/>
        <pt x="242" y="848" on="0"/>
        <pt x="175" y="921" on="0"/>
        <pt x="175" y="987" on="1"/>
        <pt x="175" y="1054" on="0"/>
        <pt x="238" y="1126" on="0"/>
      </contour>
      <contour>
        <pt x="302" y="250" on="1"/>
        <pt x="363" y="250" on="0"/>
        <pt x="429" y="179" on="0"/>
        <pt x="429" y="111" on="1"/>
        <pt x="429" y="44" on="0"/>
        <pt x="362" y="-29" on="0"/>
        <pt x="302" y="-29" on="1"/>
        <pt x="242" y="-29" on="0"/>
        <pt x="175" y="45" on="0"/>
        <pt x="175" y="111" on="1"/>
        <pt x="175" y="178" on="0"/>
        <pt x="241" y="250" on="0"/>
      </contour>
    </TTGlyph>
    <TTGlyph name="comma" xMin="143" yMin="-264" xMax="457" yMax="238">
      <contour>
        <pt x="442" y="238" on="1"/>
        <pt x="457" y="215" on="1"/>
        <pt x="406" y="18" on="0"/>
        <pt x="281" y="-264" on="1"/>
        <pt x="143" y="-264" on="1"/>
        <pt x="210" y="15" on="0"/>
        <pt x="244" y="238" on="1"/>
      </contour>
    </TTGlyph>
    <TTGlyph name="divide" xMin="102" yMin="155" xMax="1026" yMax="1103">
      <contour>
        <pt x="563" y="1103" on="1"/>
        <pt x="618" y="1103" on="0"/>
        <pt x="678" y="1039" on="0"/>
        <pt x="678" y="978" on="1"/>
        <pt x="678" y="918" on="0"/>
        <pt x="616" y="853" on="0"/>
        <pt x="563" y="853" on="1"/>
        <pt x="509" y="853" on="0"/>
        <pt x="449" y="920" on="0"/>
        <pt x="449" y="978" on="1"/>
        <pt x="449" y="1039" on="0"/>
        <pt x="508" y="1103" on="0"/>
      </contour>
      <contour>
        <pt x="102" y="545" on="1"/>
        <pt x="102" y="695" on="1"/>
        <pt x="1026" y="695" on="1"/>
        <pt x="1026" y="545" on="1"/>
      </contour>
      <contour>
        <pt x="563" y="405" on="1"/>
        <pt x="618" y="405" on="0"/>
        <pt x="678" y="341" on="0"/>
        <pt x="678" y="280" on="1"/>
        <pt x="678" y="220" on="0"/>
        <pt x="616" y="155" on="0"/>
        <pt x="563" y="155" on="1"/>
        <pt x="509" y="155" on="0"/>
        <pt x="449" y="222" on="0"/>
        <pt x="449" y="280" on="1"/>
        <pt x="449" y="341" on="0"/>
        <pt x="508" y="405" on="0"/>
      </contour>
    </TTGlyph>
    <TTGlyph name="eight" xMin="106" yMin="-20" xMax="1024" yMax="1485">
      <contour>
        <pt x="715" y="774" on="1"/>
        <pt x="877" y="688" on="0"/>
        <pt x="1024" y="497" on="0"/>
        <pt x="1024" y="381" on="1"/>
        <pt x="1024" y="200" on="0"/>
        <pt x="772" y="-20" on="0"/>
        <pt x="565" y="-20" on="1"/>
        <pt x="348" y="-20" on="0"/>
        <pt x="106" y="187" on="0"/>
        <pt x="106" y="373" on="1"/>
        <pt x="106" y="630" on="0"/>
        <pt x="389" y="766" on="1"/>
        <pt x="263" y="845" on="0"/>
        <pt x="154" y="1027" on="0"/>
        <pt x="154" y="1135" on="1"/>
        <pt x="154" y="1296" on="0"/>
        <pt x="387" y="1485" on="0"/>
        <pt x="565" y="1485" on="1"/>
        <pt x="747" y="1485" on="0"/>
        <pt x="977" y="1296" on="0"/>
        <pt x="977" y="1133" on="1"/>
        <pt x="977" y="1019" on="0"/>
        <pt x="851" y="842" on="0"/>
      </contour>
      <contour>
        <pt x="567" y="848" on="1"/>
        <pt x="693" y="905" on="0"/>
        <pt x="799" y="1037" on="0"/>
        <pt x="799" y="1126" on="1"/>
        <pt x="799" y="1227" on="0"/>
        <pt x="673" y="1333" on="0"/>
        <pt x="563" y="1333" on="1"/>
        <pt x="457" y="1333" on="0"/>
        <pt x="332" y="1227" on="0"/>
        <pt x="332" y="1126" on="1"/>
        <pt x="332" y="1036" on="0"/>
        <pt x="431" y="911" on="0"/>
      </contour>
      <contour>
        <pt x="539" y="696" on="1"/>
        <pt x="413" y="636" on="0"/>
        <pt x="285" y="481" on="0"/>
        <pt x="285" y="371" on="1"/>
        <pt x="285" y="255" on="0"/>
        <pt x="428" y="131" on="0"/>
        <pt x="561" y="131" on="1"/>
        <pt x="697" y="131" on="0"/>
        <pt x="846" y="262" on="0"/>
        <pt x="846" y="379" on="1"/>
        <pt x="846" y="469" on="0"/>
        <pt x="720" y="608" on="0"/>
        <pt x="569" y="682" on="1"/>
      </contour>
    </TTGlyph>
    <TTGlyph name="ellipsis" xMin="147" yMin="-29" xMax="1499" yMax="250">
      <contour>
        <pt x="274" y="250" on="1"/>
        <pt x="335" y="250" on="0"/>
        <pt x="401" y="179" on="0"/>
        <pt x="401" y="111" on="1"/>
        <pt x="401" y="44" on="0"/>
        <pt x="334" y="-29" on="0"/>
        <pt x="274" y="-29" on="1"/>
        <pt x="214" y="-29" on="0"/>
        <pt x="147" y="45" on="0"/>
        <pt x="147" y="111" on="1"/>
        <pt x="147" y="178" on="0"/>
        <pt x="213" y="250" on="0"/>
      </contour>
      <contour>
        <pt x="823" y="250" on="1"/>
        <pt x="884" y="250" on="0"/>
        <pt x="950" y="179" on="0"/>
        <pt x="950" y="111" on="1"/>
        <pt x="950" y="44" on="0"/>
        <pt x="883" y="-29" on="0"/>
        <pt x="823" y="-29" on="1"/>
        <pt x="763" y="-29" on="0"/>
        <pt x="696" y="45" on="0"/>
        <pt x="696" y="111" on="1"/>
        <pt x="696" y="178" on="0"/>
        <pt x="762" y="250" on="0"/>
      </contour>
      <contour>
        <pt x="1372" y="250" on="1"/>
        <pt x="1433" y="250" on="0"/>
        <pt x="1499" y="179" on="0"/>
        <pt x="1499" y="111" on="1"/>
        <pt x="1499" y="44" on="0"/>
        <pt x="1432" y="-29" on="0"/>
        <pt x="1372" y="-29" on="1"/>
        <pt x="1318" y="-29" on="0"/>
        <pt x="1245" y="37" on="0"/>
        <pt x="1245" y="111" on="1"/>
        <pt x="1245" y="181" on="0"/>
        <pt x="1312" y="250" on="0"/>
      </contour>
    </TTGlyph>
    <TTGlyph name="emdash" xMin="82" yMin="535" xMax="1966" yMax="703">
      <contour>
        <pt x="82" y="535" on="1"/>
        <pt x="82" y="703" on="1"/>
        <pt x="1966" y="703" on="1"/>
        <pt x="1966" y="535" on="1"/>
      </contour>
    </TTGlyph>
    <TTGlyph name="endash" xMin="82" yMin="535" xMax="942" yMax="703">
      <contour>
        <pt x="82" y="535" on="1"/>
        <pt x="82" y="703" on="1"/>
        <pt x="942" y="703" on="1"/>
        <pt x="942" y="535" on="1"/>
      </contour>
    </TTGlyph>
    <TTGlyph name="equal" xMin="102" yMin="341" xMax="1026" yMax="900">
      <contour>
        <pt x="102" y="751" on="1"/>
        <pt x="102" y="900" on="1"/>
        <pt x="1026" y="900" on="1"/>
        <pt x="1026" y="751" on="1"/>
      </contour>
      <contour>
        <pt x="102" y="341" on="1"/>
        <pt x="102" y="491" on="1"/>
        <pt x="1026" y="491" on="1"/>
        <pt x="1026" y="341" on="1"/>
      </contour>
    </TTGlyph>
    <TTGlyph name="exclam" xMin="232" yMin="-29" xMax="486" yMax="1462">
      <contour>
        <pt x="421" y="414" on="1"/>
        <pt x="300" y="414" on="1"/>
        <pt x="249" y="1462" on="1"/>
        <pt x="472" y="1462" on="1"/>
      </contour>
      <contour>
        <pt x="359" y="250" on="1"/>
        <pt x="420" y="250" on="0"/>
        <pt x="486" y="179" on="0"/>
        <pt x="486" y="111" on="1"/>
        <pt x="486" y="44" on="0"/>
        <pt x="419" y="-29" on="0"/>
        <pt x="359" y="-29" on="1"/>
        <pt x="299" y="-29" on="0"/>
        <pt x="232" y="45" on="0"/>
        <pt x="232" y="111" on="1"/>
        <pt x="232" y="178" on="0"/>
        <pt x="298" y="250" on="0"/>
      </contour>
    </TTGlyph>
    <TTGlyph name="five" xMin="131" yMin="-20" xMax="1014" yMax="1462">
      <contour>
        <pt x="131" y="59" on="1"/>
        <pt x="131" y="231" on="1"/>
        <pt x="196" y="186" on="0"/>
        <pt x="404" y="135" on="0"/>
        <pt x="492" y="135" on="1"/>
        <pt x="659" y="135" on="0"/>
        <pt x="827" y="297" on="0"/>
        <pt x="827" y="449" on="1"/>
        <pt x="827" y="592" on="0"/>
        <pt x="651" y="743" on="0"/>
        <pt x="483" y="743" on="1"/>
        <pt x="394" y="743" on="0"/>
        <pt x="252" y="717" on="1"/>
        <pt x="162" y="774" on="1"/>
        <pt x="217" y="1462" on="1"/>
        <pt x="907" y="1462" on="1"/>
        <pt x="907" y="1296" on="1"/>
        <pt x="375" y="1296" on="1"/>
        <pt x="336" y="877" on="1"/>
        <pt x="443" y="897" on="0"/>
        <pt x="545" y="897" on="1"/>
        <pt x="755" y="897" on="0"/>
        <pt x="1014" y="668" on="0"/>
        <pt x="1014" y="469" on="1"/>
        <pt x="1014" y="235" on="0"/>
        <pt x="738" y="-20" on="0"/>
        <pt x="487" y="-20" on="1"/>
        <pt x="384" y="-20" on="0"/>
        <pt x="196" y="20" on="0"/>
      </contour>
    </TTGlyph>
    <TTGlyph name="four" xMin="23" yMin="0" xMax="1087" yMax="1470">
      <contour>
        <pt x="1087" y="328" on="1"/>
        <pt x="874" y="328" on="1"/>
        <pt x="874" y="0" on="1"/>
        <pt x="698" y="0" on="1"/>
        <pt x="698" y="328" on="1"/>
        <pt x="23" y="328" on="1"/>
        <pt x="23" y="487" on="1"/>
        <pt x="686" y="1470" on="1"/>
        <pt x="874" y="1470" on="1"/>
        <pt x="874" y="494" on="1"/>
        <pt x="1087" y="494" on="1"/>
      </contour>
      <contour>
        <pt x="698" y="494" on="1"/>
        <pt x="698" y="850" on="1"/>
        <pt x="698" y="1003" on="0"/>
        <pt x="708" y="1197" on="1"/>
        <pt x="711" y="1282" on="1"/>
        <pt x="702" y="1282" on="1"/>
        <pt x="685" y="1233" on="0"/>
        <pt x="631" y="1130" on="0"/>
        <pt x="612" y="1102" on="1"/>
        <pt x="201" y="494" on="1"/>
      </contour>
    </TTGlyph>
    <TTGlyph name="glyph00063" xMin="-555" yMin="-806" xMax="125" yMax="36">
      <contour>
        <pt x="125" y="-736" on="1"/>
        <pt x="-11" y="-806" on="0"/>
        <pt x="-148" y="-806" on="1"/>
        <pt x="-302" y="-806" on="0"/>
        <pt x="-475" y="-660" on="0"/>
        <pt x="-475" y="-537" on="1"/>
        <pt x="-475" y="-479" on="0"/>
        <pt x="-443" y="-429" on="1"/>
        <pt x="-555" y="-352" on="0"/>
        <pt x="-555" y="-219" on="1"/>
        <pt x="-555" y="-116" on="0"/>
        <pt x="-365" y="26" on="0"/>
        <pt x="-194" y="36" on="1"/>
        <pt x="-194" y="-101" on="1"/>
        <pt x="-296" y="-111" on="0"/>
        <pt x="-404" y="-180" on="0"/>
        <pt x="-404" y="-236" on="1"/>
        <pt x="-404" y="-289" on="0"/>
        <pt x="-318" y="-346" on="0"/>
        <pt x="-238" y="-346" on="1"/>
        <pt x="-181" y="-346" on="0"/>
        <pt x="-88" y="-324" on="0"/>
        <pt x="-6" y="-289" on="1"/>
        <pt x="45" y="-418" on="1"/>
        <pt x="-91" y="-488" on="0"/>
        <pt x="-228" y="-488" on="1"/>
        <pt x="-264" y="-488" on="0"/>
        <pt x="-297" y="-483" on="1"/>
        <pt x="-324" y="-514" on="0"/>
        <pt x="-324" y="-554" on="1"/>
        <pt x="-324" y="-608" on="0"/>
        <pt x="-239" y="-664" on="0"/>
        <pt x="-158" y="-664" on="1"/>
        <pt x="-101" y="-664" on="0"/>
        <pt x="-8" y="-642" on="0"/>
        <pt x="74" y="-607" on="1"/>
      </contour>
      <contour>
        <pt x="-358" y="0" on="1"/>
      </contour>
    </TTGlyph>
    <TTGlyph name="glyph00074" xMin="-977" yMin="-806" xMax="79" yMax="1">
      <contour>
        <pt x="79" y="-752" on="1"/>
        <pt x="-29" y="-806" on="0"/>
        <pt x="-137" y="-806" on="1"/>
        <pt x="-256" y="-806" on="0"/>
        <pt x="-395" y="-680" on="0"/>
        <pt x="-395" y="-575" on="1"/>
        <pt x="-395" y="-392" on="0"/>
        <pt x="-153" y="-339" on="1"/>
        <pt x="-130" y="-291" on="0"/>
        <pt x="-130" y="-242" on="1"/>
        <pt x="-130" y="-187" on="0"/>
        <pt x="-192" y="-128" on="0"/>
        <pt x="-249" y="-128" on="1"/>
        <pt x="-325" y="-128" on="0"/>
        <pt x="-426" y="-247" on="0"/>
        <pt x="-457" y="-358" on="1"/>
        <pt x="-599" y="-321" on="1"/>
        <pt x="-576" y="-239" on="0"/>
        <pt x="-545" y="-188" on="1"/>
        <pt x="-579" y="-163" on="0"/>
        <pt x="-651" y="-133" on="0"/>
        <pt x="-695" y="-133" on="1"/>
        <pt x="-755" y="-133" on="0"/>
        <pt x="-829" y="-206" on="0"/>
        <pt x="-829" y="-262" on="1"/>
        <pt x="-829" y="-342" on="0"/>
        <pt x="-719" y="-497" on="0"/>
        <pt x="-596" y="-608" on="1"/>
        <pt x="-698" y="-706" on="1"/>
        <pt x="-843" y="-581" on="0"/>
        <pt x="-977" y="-367" on="0"/>
        <pt x="-977" y="-260" on="1"/>
        <pt x="-977" y="-138" on="0"/>
        <pt x="-822" y="1" on="0"/>
        <pt x="-711" y="1" on="1"/>
        <pt x="-648" y="1" on="0"/>
        <pt x="-533" y="-38" on="0"/>
        <pt x="-466" y="-89" on="1"/>
        <pt x="-368" y="1" on="0"/>
        <pt x="-228" y="1" on="1"/>
        <pt x="-125" y="1" on="0"/>
        <pt x="18" y="-126" on="0"/>
        <pt x="18" y="-236" on="1"/>
        <pt x="18" y="-348" on="0"/>
        <pt x="-44" y="-452" on="1"/>
        <pt x="-155" y="-464" on="0"/>
        <pt x="-258" y="-527" on="0"/>
        <pt x="-258" y="-582" on="1"/>
        <pt x="-258" y="-626" on="0"/>
        <pt x="-188" y="-675" on="0"/>
        <pt x="-135" y="-675" on="1"/>
        <pt x="-89" y="-675" on="0"/>
        <pt x="-17" y="-654" on="0"/>
        <pt x="39" y="-624" on="1"/>
      </contour>
      <contour>
        <pt x="-358" y="0" on="1"/>
      </contour>
    </TTGlyph>
    <TTGlyph name="glyph00075" xMin="-977" yMin="-806" xMax="279" yMax="1">
      <contour>
        <pt x="-466" y="-89" on="1"/>
        <pt x="-368" y="1" on="0"/>
        <pt x="-228" y="1" on="1"/>
        <pt x="-128" y="1" on="0"/>
        <pt x="18" y="-130" on="0"/>
        <pt x="18" y="-245" on="1"/>
        <pt x="18" y="-254" on="1"/>
        <pt x="17" y="-260" on="0"/>
        <pt x="17" y="-263" on="1"/>
        <pt x="-138" y="-289" on="0"/>
        <pt x="-138" y="-368" on="1"/>
        <pt x="-138" y="-403" on="0"/>
        <pt x="-69" y="-442" on="0"/>
        <pt x="-15" y="-442" on="1"/>
        <pt x="31" y="-442" on="0"/>
        <pt x="103" y="-421" on="0"/>
        <pt x="159" y="-391" on="1"/>
        <pt x="199" y="-516" on="1"/>
        <pt x="91" y="-568" on="0"/>
        <pt x="-17" y="-568" on="1"/>
        <pt x="-36" y="-568" on="0"/>
        <pt x="-56" y="-566" on="1"/>
        <pt x="-58" y="-575" on="0"/>
        <pt x="-58" y="-587" on="1"/>
        <pt x="-58" y="-631" on="0"/>
        <pt x="12" y="-680" on="0"/>
        <pt x="65" y="-680" on="1"/>
        <pt x="111" y="-680" on="0"/>
        <pt x="183" y="-659" on="0"/>
        <pt x="239" y="-629" on="1"/>
        <pt x="279" y="-754" on="1"/>
        <pt x="171" y="-806" on="0"/>
        <pt x="63" y="-806" on="1"/>
        <pt x="-56" y="-806" on="0"/>
        <pt x="-195" y="-684" on="0"/>
        <pt x="-195" y="-580" on="1"/>
        <pt x="-195" y="-546" on="0"/>
        <pt x="-188" y="-521" on="1"/>
        <pt x="-275" y="-465" on="0"/>
        <pt x="-275" y="-361" on="1"/>
        <pt x="-275" y="-243" on="0"/>
        <pt x="-146" y="-182" on="1"/>
        <pt x="-176" y="-128" on="0"/>
        <pt x="-249" y="-128" on="1"/>
        <pt x="-325" y="-128" on="0"/>
        <pt x="-426" y="-247" on="0"/>
        <pt x="-457" y="-358" on="1"/>
        <pt x="-599" y="-321" on="1"/>
        <pt x="-576" y="-239" on="0"/>
        <pt x="-545" y="-188" on="1"/>
        <pt x="-579" y="-163" on="0"/>
        <pt x="-651" y="-133" on="0"/>
        <pt x="-695" y="-133" on="1"/>
        <pt x="-755" y="-133" on="0"/>
        <pt x="-829" y="-206" on="0"/>
        <pt x="-829" y="-262" on="1"/>
        <pt x="-829" y="-342" on="0"/>
        <pt x="-719" y="-497" on="0"/>
        <pt x="-596" y="-608" on="1"/>
        <pt x="-698" y="-706" on="1"/>
        <pt x="-843" y="-581" on="0"/>
        <pt x="-977" y="-367" on="0"/>
        <pt x="-977" y="-260" on="1"/>
        <pt x="-977" y="-138" on="0"/>
        <pt x="-822" y="1" on="0"/>
        <pt x="-711" y="1" on="1"/>
        <pt x="-648" y="1" on="0"/>
        <pt x="-533" y="-38" on="0"/>
      </contour>
      <contour>
        <pt x="-358" y="0" on="1"/>
      </contour>
    </TTGlyph>
    <TTGlyph name="glyph00092" xMin="37" yMin="-394" xMax="1016" yMax="1234">
      <component glyphName="uni0A95" x="0" y="0" flags="0x204"/>
      <component glyphName="uni0ABC" x="1050" y="0" flags="0x4"/>
    </TTGlyph>
    <TTGlyph name="glyph00093" xMin="13" yMin="-49" xMax="1511" yMax="1234">
      <component glyphName="uni0A96" x="0" y="0" flags="0x204"/>
      <component glyphName="uni0ABC" x="1135" y="345" flags="0x4"/>
    </TTGlyph>
    <TTGlyph name="glyph00094" xMin="22" yMin="-20" xMax="1322" yMax="1234">
      <component glyphName="uni0A97" x="0" y="0" flags="0x204"/>
      <component glyphName="uni0ABC" x="1038" y="374" flags="0x4"/>
    </TTGlyph>
    <TTGlyph name="glyph00095" xMin="90" yMin="-183" xMax="1254" yMax="1234">
      <component glyphName="uni0A98" x="0" y="0" flags="0x204"/>
      <component glyphName="uni0ABC" x="1050" y="211" flags="0x4"/>
    </TTGlyph>
    <TTGlyph name="glyph00096" xMin="19" yMin="-394" xMax="936" yMax="1234">
      <component glyphName="uni0A99" x="0" y="0" flags="0x204"/>
      <component glyphName="uni0ABC" x="1029" y="0" flags="0x4"/>
    </TTGlyph>
    <TTGlyph name="glyph00097" xMin="64" yMin="-111" xMax="1336" yMax="1234">
      <component glyphName="uni0A9A" x="0" y="0" flags="0x204"/>
      <component glyphName="uni0ABC" x="1061" y="283" flags="0x4"/>
    </TTGlyph>
    <TTGlyph name="glyph00098" xMin="90" yMin="-394" xMax="1436" yMax="1234">
      <component glyphName="uni0A9B" x="0" y="0" flags="0x204"/>
      <component glyphName="uni0ABC" x="1253" y="0" flags="0x4"/>
    </TTGlyph>
    <TTGlyph name="glyph00099" xMin="67" yMin="-394" xMax="1801" yMax="1236">
      <component glyphName="uni0A9C" x="0" y="0" flags="0x204"/>
      <component glyphName="uni0ABC" x="1671" y="0" flags="0x4"/>
    </TTGlyph>
    <TTGlyph name="glyph00100" xMin="22" yMin="-394" xMax="1344" yMax="1234">
      <component glyphName="uni0A9D" x="0" y="0" flags="0x204"/>
      <component glyphName="uni0ABC" x="1242" y="0" flags="0x4"/>
    </TTGlyph>
    <TTGlyph name="glyph00101" xMin="22" yMin="-20" xMax="1400" yMax="1234">
      <component glyphName="uni0A9E" x="0" y="0" flags="0x204"/>
      <component glyphName="uni0ABC" x="1038" y="374" flags="0x4"/>
    </TTGlyph>
    <TTGlyph name="glyph00102" xMin="90" yMin="-394" xMax="924" yMax="1234">
      <component glyphName="uni0A9F" x="0" y="0" flags="0x204"/>
      <component glyphName="uni0ABC" x="988" y="0" flags="0x4"/>
    </TTGlyph>
    <TTGlyph name="glyph00103" xMin="90" yMin="-394" xMax="994" yMax="1234">
      <component glyphName="uni0AA0" x="0" y="0" flags="0x204"/>
      <component glyphName="uni0ABC" x="1056" y="0" flags="0x4"/>
    </TTGlyph>
    <TTGlyph name="glyph00104" xMin="19" yMin="-394" xMax="921" yMax="1234">
      <component glyphName="uni0AA1" x="0" y="0" flags="0x204"/>
      <component glyphName="uni0ABC" x="1020" y="0" flags="0x4"/>
    </TTGlyph>
    <TTGlyph name="glyph00105" xMin="90" yMin="-394" xMax="1016" yMax="1234">
      <component glyphName="uni0AA2" x="0" y="0" flags="0x204"/>
      <component glyphName="uni0ABC" x="1055" y="0" flags="0x4"/>
    </TTGlyph>
    <TTGlyph name="glyph00106" xMin="153" yMin="-394" xMax="1666" yMax="1234">
      <component glyphName="uni0AA3" x="0" y="0" flags="0x204"/>
      <component glyphName="uni0ABC" x="987" y="0" flags="0x4"/>
    </TTGlyph>
    <TTGlyph name="glyph00107" xMin="89" yMin="-366" xMax="1156" yMax="1234">
      <component glyphName="uni0AA4" x="0" y="0" flags="0x204"/>
      <component glyphName="uni0ABC" x="1004" y="28" flags="0x4"/>
    </TTGlyph>
    <TTGlyph name="glyph00108" xMin="86" yMin="-89" xMax="1263" yMax="1234">
      <component glyphName="uni0AA5" x="0" y="0" flags="0x204"/>
      <component glyphName="uni0ABC" x="1009" y="305" flags="0x4"/>
    </TTGlyph>
    <TTGlyph name="glyph00109" xMin="90" yMin="-394" xMax="969" yMax="1234">
      <component glyphName="uni0AA6" x="0" y="0" flags="0x204"/>
      <component glyphName="uni0ABC" x="1021" y="0" flags="0x4"/>
    </TTGlyph>
    <TTGlyph name="glyph00110" xMin="90" yMin="-183" xMax="1224" yMax="1324">
      <component glyphName="uni0AA7" x="0" y="0" flags="0x204"/>
      <component glyphName="uni0ABC" x="1050" y="211" flags="0x4"/>
    </TTGlyph>
    <TTGlyph name="glyph00111" xMin="49" yMin="-20" xMax="1102" yMax="1234">
      <component glyphName="uni0AA8" x="0" y="0" flags="0x204"/>
      <component glyphName="uni0ABC" x="923" y="374" flags="0x4"/>
    </TTGlyph>
    <TTGlyph name="glyph00112" xMin="13" yMin="-73" xMax="1146" yMax="1234">
      <component glyphName="uni0AAA" x="0" y="0" flags="0x204"/>
      <component glyphName="uni0ABC" x="944" y="321" flags="0x4"/>
    </TTGlyph>
    <TTGlyph name="glyph00113" xMin="77" yMin="-513" xMax="1016" yMax="1234">
      <component glyphName="uni0AAB" x="0" y="0" flags="0x204"/>
      <component glyphName="uni0ABC" x="830" y="-119" flags="0x4"/>
    </TTGlyph>
    <TTGlyph name="glyph00114" xMin="90" yMin="-89" xMax="1487" yMax="1234">
      <component glyphName="uni0AAC" x="0" y="0" flags="0x204"/>
      <component glyphName="uni0ABC" x="1203" y="305" flags="0x4"/>
    </TTGlyph>
    <TTGlyph name="glyph00115" xMin="93" yMin="-79" xMax="1639" yMax="1234">
      <component glyphName="uni0AAD" x="0" y="0" flags="0x204"/>
      <component glyphName="uni0ABC" x="1436" y="315" flags="0x4"/>
    </TTGlyph>
    <TTGlyph name="glyph00116" xMin="88" yMin="-104" xMax="1201" yMax="1234">
      <component glyphName="uni0AAE" x="0" y="0" flags="0x204"/>
      <component glyphName="uni0ABC" x="1040" y="290" flags="0x4"/>
    </TTGlyph>
    <TTGlyph name="glyph00117" xMin="29" yMin="-73" xMax="1200" yMax="1234">
      <component glyphName="uni0AAF" x="0" y="0" flags="0x204"/>
      <component glyphName="uni0ABC" x="975" y="321" flags="0x4"/>
    </TTGlyph>
    <TTGlyph name="glyph00118" xMin="60" yMin="-246" xMax="893" yMax="1234">
      <component glyphName="uni0AB0" x="0" y="0" flags="0x204"/>
      <component glyphName="uni0ABC" x="934" y="148" flags="0x4"/>
    </TTGlyph>
    <TTGlyph name="glyph00119" xMin="90" yMin="-183" xMax="1317" yMax="1234">
      <component glyphName="uni0AB2" x="0" y="0" flags="0x204"/>
      <component glyphName="uni0ABC" x="1070" y="211" flags="0x4"/>
    </TTGlyph>
    <TTGlyph name="glyph00120" xMin="90" yMin="-104" xMax="1519" yMax="1234">
      <component glyphName="uni0AB3" x="0" y="0" flags="0x204"/>
      <component glyphName="uni0ABC" x="1147" y="290" flags="0x4"/>
    </TTGlyph>
    <TTGlyph name="glyph00121" xMin="90" yMin="-73" xMax="1166" yMax="1234">
      <component glyphName="uni0AB5" x="0" y="0" flags="0x204"/>
      <component glyphName="uni0ABC" x="985" y="321" flags="0x4"/>
    </TTGlyph>
    <TTGlyph name="glyph00122" xMin="63" yMin="-246" xMax="1370" yMax="1234">
      <component glyphName="uni0AB6" x="0" y="0" flags="0x204"/>
      <component glyphName="uni0ABC" x="924" y="148" flags="0x4"/>
    </TTGlyph>
    <TTGlyph name="glyph00123" xMin="13" yMin="-73" xMax="1166" yMax="1234">
      <component glyphName="uni0AB7" x="0" y="0" flags="0x204"/>
      <component glyphName="uni0ABC" x="943" y="321" flags="0x4"/>
    </TTGlyph>
    <TTGlyph name="glyph00124" xMin="63" yMin="-246" xMax="1440" yMax="1234">
      <component glyphName="uni0AB8" x="0" y="0" flags="0x204"/>
      <component glyphName="uni0ABC" x="924" y="148" flags="0x4"/>
    </TTGlyph>
    <TTGlyph name="glyph00125" xMin="95" yMin="-394" xMax="1287" yMax="1234">
      <component glyphName="uni0AB9" x="0" y="0" flags="0x204"/>
      <component glyphName="uni0ABC" x="1175" y="0" flags="0x4"/>
    </TTGlyph>
    <TTGlyph name="glyph00126" xMin="95" yMin="-89" xMax="1452" yMax="1234">
      <contour>
        <pt x="1111" y="622" on="1"/>
        <pt x="1046" y="593" on="0"/>
        <pt x="875" y="560" on="0"/>
        <pt x="786" y="560" on="1"/>
        <pt x="604" y="560" on="0"/>
        <pt x="459" y="623" on="1"/>
        <pt x="345" y="559" on="0"/>
        <pt x="263" y="460" on="0"/>
        <pt x="263" y="395" on="1"/>
        <pt x="263" y="317" on="0"/>
        <pt x="387" y="227" on="0"/>
        <pt x="505" y="227" on="1"/>
        <pt x="556" y="227" on="0"/>
        <pt x="592" y="241" on="1"/>
        <pt x="584" y="262" on="0"/>
        <pt x="584" y="288" on="1"/>
        <pt x="584" y="339" on="0"/>
        <pt x="647" y="399" on="0"/>
        <pt x="701" y="399" on="1"/>
        <pt x="756" y="399" on="0"/>
        <pt x="821" y="330" on="0"/>
        <pt x="821" y="280" on="1"/>
        <pt x="821" y="224" on="0"/>
        <pt x="780" y="176" on="1"/>
        <pt x="808" y="113" on="0"/>
        <pt x="896" y="58" on="0"/>
        <pt x="969" y="58" on="1"/>
        <pt x="986" y="58" on="1"/>
        <pt x="969" y="-89" on="1"/>
        <pt x="941" y="-89" on="1"/>
        <pt x="747" y="-89" on="0"/>
        <pt x="646" y="98" on="1"/>
        <pt x="577" y="79" on="0"/>
        <pt x="498" y="79" on="1"/>
        <pt x="316" y="79" on="0"/>
        <pt x="95" y="253" on="0"/>
        <pt x="95" y="388" on="1"/>
        <pt x="95" y="483" on="0"/>
        <pt x="203" y="630" on="0"/>
        <pt x="327" y="699" on="1"/>
        <pt x="243" y="747" on="0"/>
        <pt x="150" y="889" on="0"/>
        <pt x="150" y="970" on="1"/>
        <pt x="150" y="1088" on="0"/>
        <pt x="323" y="1234" on="0"/>
        <pt x="470" y="1234" on="1"/>
        <pt x="610" y="1234" on="0"/>
        <pt x="785" y="1103" on="0"/>
        <pt x="785" y="992" on="1"/>
        <pt x="785" y="917" on="0"/>
        <pt x="703" y="787" on="0"/>
        <pt x="610" y="722" on="1"/>
        <pt x="668" y="708" on="0"/>
        <pt x="765" y="708" on="1"/>
        <pt x="971" y="708" on="0"/>
        <pt x="1111" y="791" on="1"/>
        <pt x="1111" y="1234" on="1"/>
        <pt x="1275" y="1212" on="1"/>
        <pt x="1275" y="311" on="1"/>
        <pt x="1275" y="247" on="0"/>
        <pt x="1292" y="192" on="0"/>
        <pt x="1328" y="161" on="0"/>
        <pt x="1394" y="149" on="0"/>
        <pt x="1452" y="149" on="1"/>
        <pt x="1436" y="0" on="1"/>
        <pt x="1415" y="0" on="1"/>
        <pt x="1301" y="0" on="0"/>
        <pt x="1163" y="69" on="0"/>
        <pt x="1111" y="192" on="0"/>
        <pt x="1111" y="304" on="1"/>
      </contour>
      <contour>
        <pt x="464" y="778" on="1"/>
        <pt x="542" y="821" on="0"/>
        <pt x="621" y="917" on="0"/>
        <pt x="621" y="970" on="1"/>
        <pt x="621" y="1026" on="0"/>
        <pt x="542" y="1092" on="0"/>
        <pt x="470" y="1092" on="1"/>
        <pt x="394" y="1092" on="0"/>
        <pt x="313" y="1025" on="0"/>
        <pt x="313" y="964" on="1"/>
        <pt x="313" y="910" on="0"/>
        <pt x="393" y="812" on="0"/>
      </contour>
    </TTGlyph>
    <TTGlyph name="glyph00127" xMin="73" yMin="-89" xMax="1396" yMax="1234">
      <contour>
        <pt x="1055" y="839" on="1"/>
        <pt x="1018" y="832" on="0"/>
        <pt x="957" y="832" on="1"/>
        <pt x="797" y="832" on="0"/>
        <pt x="648" y="928" on="1"/>
        <pt x="567" y="979" on="0"/>
        <pt x="467" y="1024" on="0"/>
        <pt x="414" y="1024" on="1"/>
        <pt x="348" y="1024" on="0"/>
        <pt x="276" y="959" on="0"/>
        <pt x="276" y="903" on="1"/>
        <pt x="276" y="839" on="0"/>
        <pt x="385" y="767" on="0"/>
        <pt x="515" y="743" on="1"/>
        <pt x="682" y="712" on="0"/>
        <pt x="838" y="568" on="0"/>
        <pt x="838" y="447" on="1"/>
        <pt x="838" y="305" on="0"/>
        <pt x="637" y="150" on="0"/>
        <pt x="451" y="142" on="1"/>
        <pt x="484" y="110" on="0"/>
        <pt x="551" y="77" on="0"/>
        <pt x="620" y="65" on="0"/>
        <pt x="694" y="65" on="1"/>
        <pt x="721" y="65" on="1"/>
        <pt x="703" y="-89" on="1"/>
        <pt x="671" y="-89" on="1"/>
        <pt x="543" y="-89" on="0"/>
        <pt x="346" y="24" on="0"/>
        <pt x="258" y="151" on="1"/>
        <pt x="73" y="179" on="0"/>
        <pt x="73" y="294" on="1"/>
        <pt x="73" y="336" on="0"/>
        <pt x="132" y="394" on="0"/>
        <pt x="181" y="394" on="1"/>
        <pt x="235" y="394" on="0"/>
        <pt x="326" y="341" on="0"/>
        <pt x="370" y="289" on="1"/>
        <pt x="397" y="285" on="0"/>
        <pt x="431" y="285" on="1"/>
        <pt x="548" y="285" on="0"/>
        <pt x="672" y="361" on="0"/>
        <pt x="672" y="430" on="1"/>
        <pt x="672" y="480" on="0"/>
        <pt x="626" y="542" on="0"/>
        <pt x="542" y="578" on="0"/>
        <pt x="452" y="596" on="1"/>
        <pt x="275" y="629" on="0"/>
        <pt x="108" y="783" on="0"/>
        <pt x="108" y="908" on="1"/>
        <pt x="108" y="1025" on="0"/>
        <pt x="274" y="1172" on="0"/>
        <pt x="416" y="1172" on="1"/>
        <pt x="466" y="1172" on="0"/>
        <pt x="554" y="1154" on="0"/>
        <pt x="636" y="1118" on="0"/>
        <pt x="702" y="1076" on="1"/>
        <pt x="767" y="1034" on="0"/>
        <pt x="832" y="1001" on="0"/>
        <pt x="914" y="980" on="0"/>
        <pt x="960" y="980" on="1"/>
        <pt x="1013" y="980" on="0"/>
        <pt x="1055" y="992" on="1"/>
        <pt x="1055" y="1234" on="1"/>
        <pt x="1219" y="1212" on="1"/>
        <pt x="1219" y="311" on="1"/>
        <pt x="1219" y="247" on="0"/>
        <pt x="1236" y="192" on="0"/>
        <pt x="1272" y="161" on="0"/>
        <pt x="1338" y="149" on="0"/>
        <pt x="1396" y="149" on="1"/>
        <pt x="1380" y="0" on="1"/>
        <pt x="1359" y="0" on="1"/>
        <pt x="1245" y="0" on="0"/>
        <pt x="1107" y="69" on="0"/>
        <pt x="1055" y="192" on="0"/>
        <pt x="1055" y="304" on="1"/>
      </contour>
    </TTGlyph>
    <TTGlyph name="glyph00128" xMin="-454" yMin="1234" xMax="80" yMax="1836">
      <contour>
        <pt x="-379" y="1295" on="1"/>
        <pt x="-454" y="1426" on="0"/>
        <pt x="-454" y="1545" on="1"/>
        <pt x="-454" y="1683" on="0"/>
        <pt x="-283" y="1836" on="0"/>
        <pt x="-138" y="1836" on="1"/>
        <pt x="-19" y="1836" on="0"/>
        <pt x="80" y="1785" on="1"/>
        <pt x="35" y="1650" on="1"/>
        <pt x="-45" y="1694" on="0"/>
        <pt x="-122" y="1694" on="1"/>
        <pt x="-202" y="1694" on="0"/>
        <pt x="-291" y="1605" on="0"/>
        <pt x="-291" y="1528" on="1"/>
        <pt x="-291" y="1439" on="0"/>
        <pt x="-220" y="1312" on="1"/>
      </contour>
      <contour>
        <pt x="-358" y="1234" on="1"/>
      </contour>
    </TTGlyph>
    <TTGlyph name="glyph00129" xMin="-954" yMin="-473" xMax="-66" yMax="0">
      <contour>
        <pt x="-415" y="-183" on="1"/>
        <pt x="-857" y="-473" on="1"/>
        <pt x="-954" y="-338" on="1"/>
        <pt x="-424" y="-24" on="1"/>
        <pt x="-365" y="-24" on="1"/>
        <pt x="-66" y="-393" on="1"/>
        <pt x="-187" y="-472" on="1"/>
      </contour>
      <contour>
        <pt x="-510" y="0" on="1"/>
      </contour>
    </TTGlyph>
    <TTGlyph name="glyph00130" xMin="37" yMin="-20" xMax="1104" yMax="1234">
      <contour>
        <pt x="776" y="1058" on="1"/>
        <pt x="708" y="1075" on="0"/>
        <pt x="631" y="1084" on="0"/>
        <pt x="585" y="1084" on="1"/>
        <pt x="486" y="1084" on="0"/>
        <pt x="378" y="1005" on="0"/>
        <pt x="378" y="932" on="1"/>
        <pt x="378" y="880" on="0"/>
        <pt x="454" y="784" on="0"/>
        <pt x="530" y="739" on="1"/>
        <pt x="1104" y="739" on="1"/>
        <pt x="1104" y="594" on="1"/>
        <pt x="879" y="594" on="1"/>
        <pt x="780" y="594" on="0"/>
        <pt x="722" y="603" on="1"/>
        <pt x="830" y="533" on="0"/>
        <pt x="928" y="386" on="0"/>
        <pt x="928" y="291" on="1"/>
        <pt x="928" y="153" on="0"/>
        <pt x="722" y="-20" on="0"/>
        <pt x="531" y="-20" on="1"/>
        <pt x="254" y="-20" on="0"/>
        <pt x="37" y="149" on="1"/>
        <pt x="129" y="277" on="1"/>
        <pt x="314" y="130" on="0"/>
        <pt x="521" y="130" on="1"/>
        <pt x="760" y="130" on="0"/>
        <pt x="760" y="294" on="1"/>
        <pt x="760" y="339" on="0"/>
        <pt x="719" y="418" on="0"/>
        <pt x="612" y="515" on="0"/>
        <pt x="512" y="577" on="1"/>
        <pt x="134" y="432" on="1"/>
        <pt x="77" y="577" on="1"/>
        <pt x="362" y="679" on="1"/>
        <pt x="286" y="738" on="0"/>
        <pt x="210" y="872" on="0"/>
        <pt x="210" y="947" on="1"/>
        <pt x="210" y="1075" on="0"/>
        <pt x="406" y="1234" on="0"/>
        <pt x="568" y="1234" on="1"/>
        <pt x="696" y="1234" on="0"/>
        <pt x="806" y="1207" on="1"/>
      </contour>
    </TTGlyph>
    <TTGlyph name="glyph00131" xMin="13" yMin="329" xMax="1199" yMax="1212">
      <contour>
        <pt x="13" y="1063" on="1"/>
        <pt x="29" y="1212" on="1"/>
        <pt x="50" y="1212" on="1"/>
        <pt x="139" y="1212" on="0"/>
        <pt x="253" y="1173" on="0"/>
        <pt x="321" y="1107" on="0"/>
        <pt x="354" y="1006" on="0"/>
        <pt x="354" y="908" on="1"/>
        <pt x="354" y="719" on="1"/>
        <pt x="354" y="612" on="0"/>
        <pt x="397" y="519" on="0"/>
        <pt x="477" y="477" on="0"/>
        <pt x="537" y="477" on="1"/>
        <pt x="601" y="477" on="0"/>
        <pt x="680" y="530" on="0"/>
        <pt x="715" y="622" on="0"/>
        <pt x="715" y="719" on="1"/>
        <pt x="715" y="986" on="1"/>
        <pt x="879" y="964" on="1"/>
        <pt x="879" y="747" on="1"/>
        <pt x="918" y="684" on="0"/>
        <pt x="996" y="684" on="1"/>
        <pt x="1078" y="684" on="0"/>
        <pt x="1141" y="738" on="1"/>
        <pt x="1199" y="600" on="1"/>
        <pt x="1145" y="563" on="0"/>
        <pt x="1058" y="536" on="0"/>
        <pt x="996" y="536" on="1"/>
        <pt x="916" y="536" on="0"/>
        <pt x="863" y="571" on="1"/>
        <pt x="831" y="455" on="0"/>
        <pt x="660" y="329" on="0"/>
        <pt x="535" y="329" on="1"/>
        <pt x="411" y="329" on="0"/>
        <pt x="262" y="424" on="0"/>
        <pt x="190" y="579" on="0"/>
        <pt x="190" y="719" on="1"/>
        <pt x="190" y="901" on="1"/>
        <pt x="190" y="980" on="0"/>
        <pt x="158" y="1040" on="0"/>
        <pt x="91" y="1063" on="0"/>
      </contour>
    </TTGlyph>
    <TTGlyph name="glyph00132" xMin="22" yMin="364" xMax="778" yMax="1234">
      <contour>
        <pt x="22" y="620" on="1"/>
        <pt x="152" y="709" on="1"/>
        <pt x="217" y="608" on="0"/>
        <pt x="341" y="514" on="0"/>
        <pt x="422" y="514" on="1"/>
        <pt x="514" y="514" on="0"/>
        <pt x="613" y="653" on="0"/>
        <pt x="613" y="787" on="1"/>
        <pt x="613" y="936" on="0"/>
        <pt x="498" y="1086" on="0"/>
        <pt x="384" y="1086" on="1"/>
        <pt x="270" y="1086" on="0"/>
        <pt x="162" y="1030" on="1"/>
        <pt x="110" y="1168" on="1"/>
        <pt x="169" y="1198" on="0"/>
        <pt x="322" y="1234" on="0"/>
        <pt x="394" y="1234" on="1"/>
        <pt x="577" y="1234" on="0"/>
        <pt x="778" y="1003" on="0"/>
        <pt x="778" y="784" on="1"/>
        <pt x="778" y="576" on="0"/>
        <pt x="600" y="364" on="0"/>
        <pt x="430" y="364" on="1"/>
        <pt x="307" y="364" on="0"/>
        <pt x="106" y="492" on="0"/>
      </contour>
    </TTGlyph>
    <TTGlyph name="glyph00133" xMin="90" yMin="219" xMax="976" yMax="1234">
      <contour>
        <pt x="232" y="726" on="1"/>
        <pt x="90" y="830" on="0"/>
        <pt x="90" y="978" on="1"/>
        <pt x="90" y="1090" on="0"/>
        <pt x="274" y="1234" on="0"/>
        <pt x="431" y="1234" on="1"/>
        <pt x="532" y="1234" on="0"/>
        <pt x="622" y="1212" on="1"/>
        <pt x="594" y="1067" on="1"/>
        <pt x="510" y="1086" on="0"/>
        <pt x="449" y="1086" on="1"/>
        <pt x="354" y="1086" on="0"/>
        <pt x="255" y="1022" on="0"/>
        <pt x="255" y="962" on="1"/>
        <pt x="255" y="869" on="0"/>
        <pt x="353" y="811" on="1"/>
        <pt x="430" y="841" on="0"/>
        <pt x="531" y="841" on="1"/>
        <pt x="580" y="841" on="0"/>
        <pt x="655" y="829" on="1"/>
        <pt x="631" y="683" on="1"/>
        <pt x="589" y="693" on="0"/>
        <pt x="527" y="693" on="1"/>
        <pt x="436" y="693" on="0"/>
        <pt x="335" y="614" on="0"/>
        <pt x="335" y="540" on="1"/>
        <pt x="335" y="458" on="0"/>
        <pt x="455" y="367" on="0"/>
        <pt x="561" y="367" on="1"/>
        <pt x="657" y="367" on="0"/>
        <pt x="813" y="431" on="0"/>
        <pt x="897" y="506" on="1"/>
        <pt x="976" y="370" on="1"/>
        <pt x="877" y="289" on="0"/>
        <pt x="679" y="219" on="0"/>
        <pt x="562" y="219" on="1"/>
        <pt x="382" y="219" on="0"/>
        <pt x="170" y="393" on="0"/>
        <pt x="170" y="535" on="1"/>
        <pt x="170" y="649" on="0"/>
      </contour>
    </TTGlyph>
    <TTGlyph name="glyph00134" xMin="19" yMin="-547" xMax="997" yMax="1234">
      <component glyphName="uni0A99" x="0" y="0" flags="0x204"/>
      <component glyphName="uni0ACD" x="656" y="0" flags="0x4"/>
    </TTGlyph>
    <TTGlyph name="glyph00135" xMin="64" yMin="268" xMax="1046" yMax="1234">
      <contour>
        <pt x="119" y="1041" on="1"/>
        <pt x="64" y="1180" on="1"/>
        <pt x="118" y="1204" on="0"/>
        <pt x="260" y="1234" on="0"/>
        <pt x="329" y="1234" on="1"/>
        <pt x="516" y="1234" on="0"/>
        <pt x="721" y="1046" on="0"/>
        <pt x="721" y="877" on="1"/>
        <pt x="721" y="757" on="0"/>
        <pt x="566" y="563" on="0"/>
        <pt x="434" y="517" on="1"/>
        <pt x="476" y="466" on="0"/>
        <pt x="589" y="416" on="0"/>
        <pt x="661" y="416" on="1"/>
        <pt x="748" y="416" on="0"/>
        <pt x="891" y="471" on="0"/>
        <pt x="963" y="538" on="1"/>
        <pt x="1046" y="405" on="1"/>
        <pt x="942" y="325" on="0"/>
        <pt x="774" y="268" on="0"/>
        <pt x="667" y="268" on="1"/>
        <pt x="534" y="268" on="0"/>
        <pt x="335" y="376" on="0"/>
        <pt x="268" y="485" on="1"/>
        <pt x="240" y="485" on="1"/>
        <pt x="156" y="485" on="0"/>
        <pt x="71" y="546" on="0"/>
        <pt x="71" y="601" on="1"/>
        <pt x="71" y="707" on="0"/>
        <pt x="184" y="707" on="1"/>
        <pt x="277" y="707" on="0"/>
        <pt x="348" y="636" on="1"/>
        <pt x="444" y="666" on="0"/>
        <pt x="557" y="798" on="0"/>
        <pt x="557" y="880" on="1"/>
        <pt x="557" y="979" on="0"/>
        <pt x="443" y="1086" on="0"/>
        <pt x="323" y="1086" on="1"/>
        <pt x="276" y="1086" on="0"/>
        <pt x="162" y="1060" on="0"/>
      </contour>
    </TTGlyph>
    <TTGlyph name="glyph00136" xMin="90" yMin="-547" xMax="1436" yMax="1234">
      <component glyphName="uni0A9B" x="0" y="0" flags="0x204"/>
      <component glyphName="uni0ACD" x="874" y="0" flags="0x4"/>
    </TTGlyph>
    <TTGlyph name="glyph00137" xMin="67" yMin="-20" xMax="1745" yMax="1234">
      <contour>
        <pt x="1315" y="851" on="1"/>
        <pt x="1433" y="876" on="0"/>
        <pt x="1564" y="876" on="1"/>
        <pt x="1745" y="876" on="1"/>
        <pt x="1745" y="728" on="1"/>
        <pt x="1577" y="728" on="1"/>
        <pt x="1474" y="728" on="0"/>
        <pt x="1405" y="717" on="1"/>
        <pt x="1463" y="626" on="0"/>
        <pt x="1522" y="441" on="0"/>
        <pt x="1522" y="347" on="1"/>
        <pt x="1522" y="174" on="0"/>
        <pt x="1332" y="-20" on="0"/>
        <pt x="1167" y="-20" on="1"/>
        <pt x="992" y="-20" on="0"/>
        <pt x="806" y="178" on="0"/>
        <pt x="806" y="341" on="1"/>
        <pt x="806" y="492" on="0"/>
        <pt x="984" y="725" on="0"/>
        <pt x="1158" y="799" on="1"/>
        <pt x="1066" y="904" on="0"/>
        <pt x="848" y="1038" on="0"/>
        <pt x="723" y="1067" on="1"/>
        <pt x="774" y="974" on="0"/>
        <pt x="774" y="858" on="1"/>
        <pt x="774" y="770" on="0"/>
        <pt x="687" y="617" on="0"/>
        <pt x="524" y="533" on="0"/>
        <pt x="414" y="533" on="1"/>
        <pt x="255" y="533" on="0"/>
        <pt x="67" y="719" on="0"/>
        <pt x="67" y="871" on="1"/>
        <pt x="67" y="1029" on="0"/>
        <pt x="313" y="1234" on="0"/>
        <pt x="525" y="1234" on="1"/>
        <pt x="761" y="1234" on="0"/>
        <pt x="1156" y="1042" on="0"/>
      </contour>
      <contour>
        <pt x="547" y="1090" on="1"/>
        <pt x="537" y="1090" on="0"/>
        <pt x="527" y="1091" on="1"/>
        <pt x="507" y="1091" on="1"/>
        <pt x="375" y="1091" on="0"/>
        <pt x="232" y="970" on="0"/>
        <pt x="232" y="867" on="1"/>
        <pt x="232" y="781" on="0"/>
        <pt x="330" y="683" on="0"/>
        <pt x="414" y="683" on="1"/>
        <pt x="507" y="683" on="0"/>
        <pt x="611" y="784" on="0"/>
        <pt x="611" y="865" on="1"/>
        <pt x="611" y="995" on="0"/>
      </contour>
      <contour>
        <pt x="1252" y="681" on="1"/>
        <pt x="1116" y="634" on="0"/>
        <pt x="974" y="459" on="0"/>
        <pt x="974" y="342" on="1"/>
        <pt x="974" y="128" on="0"/>
        <pt x="1164" y="128" on="1"/>
        <pt x="1258" y="128" on="0"/>
        <pt x="1354" y="240" on="0"/>
        <pt x="1354" y="348" on="1"/>
        <pt x="1354" y="437" on="0"/>
        <pt x="1303" y="603" on="0"/>
      </contour>
    </TTGlyph>
    <TTGlyph name="glyph00138" xMin="22" yMin="-20" xMax="1313" yMax="1234">
      <contour>
        <pt x="22" y="236" on="1"/>
        <pt x="151" y="324" on="1"/>
        <pt x="231" y="205" on="0"/>
        <pt x="353" y="130" on="0"/>
        <pt x="436" y="130" on="1"/>
        <pt x="539" y="130" on="0"/>
        <pt x="647" y="307" on="0"/>
        <pt x="647" y="481" on="1"/>
        <pt x="647" y="664" on="0"/>
        <pt x="516" y="858" on="0"/>
        <pt x="386" y="858" on="1"/>
        <pt x="322" y="858" on="0"/>
        <pt x="222" y="834" on="0"/>
        <pt x="159" y="803" on="1"/>
        <pt x="107" y="942" on="1"/>
        <pt x="171" y="972" on="0"/>
        <pt x="329" y="1007" on="0"/>
        <pt x="400" y="1007" on="1"/>
        <pt x="521" y="1007" on="0"/>
        <pt x="696" y="902" on="0"/>
        <pt x="750" y="798" on="1"/>
        <pt x="836" y="838" on="0"/>
        <pt x="933" y="844" on="1"/>
        <pt x="933" y="1234" on="1"/>
        <pt x="1097" y="1212" on="1"/>
        <pt x="1097" y="832" on="1"/>
        <pt x="1161" y="817" on="0"/>
        <pt x="1269" y="735" on="0"/>
        <pt x="1313" y="668" on="1"/>
        <pt x="1174" y="585" on="1"/>
        <pt x="1128" y="642" on="0"/>
        <pt x="1038" y="698" on="0"/>
        <pt x="969" y="698" on="1"/>
        <pt x="872" y="698" on="0"/>
        <pt x="799" y="652" on="1"/>
        <pt x="815" y="567" on="0"/>
        <pt x="815" y="476" on="1"/>
        <pt x="815" y="232" on="0"/>
        <pt x="619" y="-20" on="0"/>
        <pt x="440" y="-20" on="1"/>
        <pt x="303" y="-20" on="0"/>
        <pt x="101" y="111" on="0"/>
      </contour>
    </TTGlyph>
    <TTGlyph name="glyph00139" xMin="22" yMin="364" xMax="1083" yMax="1234">
      <contour>
        <pt x="1083" y="732" on="1"/>
        <pt x="1033" y="705" on="0"/>
        <pt x="938" y="679" on="0"/>
        <pt x="855" y="679" on="1"/>
        <pt x="804" y="679" on="0"/>
        <pt x="768" y="686" on="1"/>
        <pt x="748" y="525" on="0"/>
        <pt x="578" y="364" on="0"/>
        <pt x="427" y="364" on="1"/>
        <pt x="191" y="364" on="0"/>
        <pt x="22" y="620" on="1"/>
        <pt x="152" y="709" on="1"/>
        <pt x="217" y="608" on="0"/>
        <pt x="341" y="514" on="0"/>
        <pt x="422" y="514" on="1"/>
        <pt x="514" y="514" on="0"/>
        <pt x="613" y="653" on="0"/>
        <pt x="613" y="787" on="1"/>
        <pt x="613" y="936" on="0"/>
        <pt x="498" y="1086" on="0"/>
        <pt x="385" y="1086" on="1"/>
        <pt x="271" y="1086" on="0"/>
        <pt x="162" y="1030" on="1"/>
        <pt x="110" y="1168" on="1"/>
        <pt x="169" y="1198" on="0"/>
        <pt x="322" y="1234" on="0"/>
        <pt x="394" y="1234" on="1"/>
        <pt x="562" y="1234" on="0"/>
        <pt x="760" y="1032" on="0"/>
        <pt x="772" y="838" on="1"/>
        <pt x="804" y="828" on="0"/>
        <pt x="852" y="828" on="1"/>
        <pt x="952" y="828" on="0"/>
        <pt x="1029" y="876" on="1"/>
      </contour>
    </TTGlyph>
    <TTGlyph name="glyph00140" xMin="90" yMin="-547" xMax="1011" yMax="1234">
      <component glyphName="uni0A9F" x="0" y="0" flags="0x204"/>
      <component glyphName="uni0ACD" x="670" y="0" flags="0x4"/>
    </TTGlyph>
    <TTGlyph name="glyph00141" xMin="90" yMin="-547" xMax="1064" yMax="1234">
      <component glyphName="uni0AA0" x="0" y="0" flags="0x204"/>
      <component glyphName="uni0ACD" x="723" y="0" flags="0x4"/>
    </TTGlyph>
    <TTGlyph name="glyph00142" xMin="19" yMin="-547" xMax="997" yMax="1234">
      <component glyphName="uni0AA1" x="0" y="0" flags="0x204"/>
      <component glyphName="uni0ACD" x="656" y="0" flags="0x4"/>
    </TTGlyph>
    <TTGlyph name="glyph00143" xMin="90" yMin="-547" xMax="1078" yMax="1234">
      <component glyphName="uni0AA2" x="0" y="0" flags="0x204"/>
      <component glyphName="uni0ACD" x="737" y="0" flags="0x4"/>
    </TTGlyph>
    <TTGlyph name="glyph00144" xMin="153" yMin="-291" xMax="1136" yMax="1234">
      <contour>
        <pt x="568" y="727" on="1"/>
        <pt x="632" y="646" on="0"/>
        <pt x="748" y="577" on="0"/>
        <pt x="812" y="577" on="1"/>
        <pt x="894" y="577" on="0"/>
        <pt x="972" y="700" on="0"/>
        <pt x="972" y="828" on="1"/>
        <pt x="972" y="959" on="0"/>
        <pt x="873" y="1089" on="0"/>
        <pt x="778" y="1089" on="1"/>
        <pt x="667" y="1089" on="0"/>
        <pt x="582" y="1042" on="1"/>
        <pt x="531" y="1176" on="1"/>
        <pt x="648" y="1234" on="0"/>
        <pt x="789" y="1234" on="1"/>
        <pt x="950" y="1234" on="0"/>
        <pt x="1136" y="1019" on="0"/>
        <pt x="1136" y="828" on="1"/>
        <pt x="1136" y="631" on="0"/>
        <pt x="974" y="430" on="0"/>
        <pt x="816" y="430" on="1"/>
        <pt x="717" y="430" on="0"/>
        <pt x="522" y="537" on="0"/>
        <pt x="445" y="635" on="1"/>
      </contour>
      <contour>
        <pt x="153" y="1234" on="1"/>
        <pt x="317" y="1212" on="1"/>
        <pt x="317" y="637" on="1"/>
        <pt x="317" y="529" on="0"/>
        <pt x="327" y="455" on="0"/>
        <pt x="370" y="396" on="0"/>
        <pt x="492" y="325" on="0"/>
        <pt x="651" y="258" on="1"/>
        <pt x="790" y="199" on="0"/>
        <pt x="922" y="98" on="0"/>
        <pt x="967" y="2" on="0"/>
        <pt x="967" y="-62" on="1"/>
        <pt x="967" y="-174" on="0"/>
        <pt x="870" y="-291" on="1"/>
        <pt x="737" y="-198" on="1"/>
        <pt x="764" y="-167" on="0"/>
        <pt x="794" y="-106" on="0"/>
        <pt x="794" y="-72" on="1"/>
        <pt x="794" y="-30" on="0"/>
        <pt x="750" y="34" on="0"/>
        <pt x="633" y="102" on="0"/>
        <pt x="523" y="148" on="1"/>
        <pt x="371" y="210" on="0"/>
        <pt x="231" y="295" on="0"/>
        <pt x="171" y="380" on="0"/>
        <pt x="153" y="471" on="0"/>
        <pt x="153" y="566" on="1"/>
      </contour>
    </TTGlyph>
    <TTGlyph name="glyph00145" xMin="89" yMin="24" xMax="815" yMax="886">
      <contour>
        <pt x="815" y="738" on="1"/>
        <pt x="576" y="738" on="1"/>
        <pt x="450" y="738" on="0"/>
        <pt x="329" y="707" on="0"/>
        <pt x="257" y="623" on="0"/>
        <pt x="257" y="558" on="1"/>
        <pt x="257" y="466" on="0"/>
        <pt x="396" y="264" on="0"/>
        <pt x="543" y="134" on="1"/>
        <pt x="432" y="24" on="1"/>
        <pt x="243" y="192" on="0"/>
        <pt x="89" y="445" on="0"/>
        <pt x="89" y="571" on="1"/>
        <pt x="89" y="657" on="0"/>
        <pt x="177" y="801" on="0"/>
        <pt x="362" y="886" on="0"/>
        <pt x="550" y="886" on="1"/>
        <pt x="815" y="886" on="1"/>
      </contour>
    </TTGlyph>
    <TTGlyph name="glyph00146" xMin="86" yMin="299" xMax="954" yMax="1234">
      <contour>
        <pt x="954" y="432" on="1"/>
        <pt x="862" y="361" on="0"/>
        <pt x="677" y="299" on="0"/>
        <pt x="563" y="299" on="1"/>
        <pt x="218" y="299" on="0"/>
        <pt x="86" y="653" on="1"/>
        <pt x="293" y="709" on="0"/>
        <pt x="500" y="869" on="0"/>
        <pt x="500" y="976" on="1"/>
        <pt x="500" y="1032" on="0"/>
        <pt x="431" y="1096" on="0"/>
        <pt x="374" y="1096" on="1"/>
        <pt x="316" y="1096" on="0"/>
        <pt x="248" y="1045" on="0"/>
        <pt x="248" y="1002" on="1"/>
        <pt x="248" y="960" on="0"/>
        <pt x="292" y="905" on="0"/>
        <pt x="340" y="881" on="1"/>
        <pt x="245" y="770" on="1"/>
        <pt x="90" y="856" on="0"/>
        <pt x="90" y="1006" on="1"/>
        <pt x="90" y="1105" on="0"/>
        <pt x="244" y="1234" on="0"/>
        <pt x="373" y="1234" on="1"/>
        <pt x="509" y="1234" on="0"/>
        <pt x="660" y="1085" on="0"/>
        <pt x="660" y="971" on="1"/>
        <pt x="660" y="842" on="0"/>
        <pt x="485" y="647" on="0"/>
        <pt x="303" y="572" on="1"/>
        <pt x="384" y="447" on="0"/>
        <pt x="555" y="447" on="1"/>
        <pt x="651" y="447" on="0"/>
        <pt x="812" y="503" on="0"/>
        <pt x="889" y="569" on="1"/>
      </contour>
    </TTGlyph>
    <TTGlyph name="glyph00147" xMin="90" yMin="-547" xMax="1071" yMax="1234">
      <component glyphName="uni0AA6" x="0" y="0" flags="0x204"/>
      <component glyphName="uni0ACD" x="730" y="0" flags="0x4"/>
    </TTGlyph>
    <TTGlyph name="glyph00148" xMin="90" yMin="219" xMax="944" yMax="1324">
      <contour>
        <pt x="233" y="727" on="1"/>
        <pt x="90" y="835" on="0"/>
        <pt x="90" y="985" on="1"/>
        <pt x="90" y="1100" on="0"/>
        <pt x="256" y="1273" on="0"/>
        <pt x="421" y="1324" on="1"/>
        <pt x="481" y="1176" on="1"/>
        <pt x="372" y="1146" on="0"/>
        <pt x="255" y="1046" on="0"/>
        <pt x="255" y="970" on="1"/>
        <pt x="255" y="871" on="0"/>
        <pt x="352" y="811" on="1"/>
        <pt x="429" y="841" on="0"/>
        <pt x="531" y="841" on="1"/>
        <pt x="580" y="841" on="0"/>
        <pt x="655" y="829" on="1"/>
        <pt x="631" y="683" on="1"/>
        <pt x="589" y="693" on="0"/>
        <pt x="527" y="693" on="1"/>
        <pt x="436" y="693" on="0"/>
        <pt x="335" y="614" on="0"/>
        <pt x="335" y="540" on="1"/>
        <pt x="335" y="458" on="0"/>
        <pt x="454" y="367" on="0"/>
        <pt x="559" y="367" on="1"/>
        <pt x="646" y="367" on="0"/>
        <pt x="790" y="423" on="0"/>
        <pt x="867" y="494" on="1"/>
        <pt x="944" y="360" on="1"/>
        <pt x="859" y="285" on="0"/>
        <pt x="674" y="219" on="0"/>
        <pt x="559" y="219" on="1"/>
        <pt x="381" y="219" on="0"/>
        <pt x="170" y="393" on="0"/>
        <pt x="170" y="535" on="1"/>
        <pt x="170" y="651" on="0"/>
      </contour>
    </TTGlyph>
    <TTGlyph name="glyph00149" xMin="49" yMin="438" xMax="761" yMax="820">
      <contour>
        <pt x="392" y="672" on="1"/>
        <pt x="392" y="555" on="1"/>
        <pt x="392" y="498" on="0"/>
        <pt x="336" y="438" on="0"/>
        <pt x="287" y="438" on="1"/>
        <pt x="239" y="438" on="0"/>
        <pt x="125" y="526" on="0"/>
        <pt x="49" y="656" on="0"/>
        <pt x="49" y="712" on="1"/>
        <pt x="49" y="820" on="0"/>
        <pt x="173" y="820" on="1"/>
        <pt x="761" y="820" on="1"/>
        <pt x="761" y="672" on="1"/>
      </contour>
    </TTGlyph>
    <TTGlyph name="glyph00150" xMin="13" yMin="329" xMax="834" yMax="1212">
      <contour>
        <pt x="354" y="732" on="1"/>
        <pt x="354" y="587" on="0"/>
        <pt x="447" y="477" on="0"/>
        <pt x="558" y="477" on="1"/>
        <pt x="669" y="477" on="0"/>
        <pt x="775" y="559" on="1"/>
        <pt x="834" y="421" on="1"/>
        <pt x="761" y="371" on="0"/>
        <pt x="623" y="329" on="0"/>
        <pt x="541" y="329" on="1"/>
        <pt x="438" y="329" on="0"/>
        <pt x="283" y="410" on="0"/>
        <pt x="190" y="568" on="0"/>
        <pt x="190" y="717" on="1"/>
        <pt x="190" y="901" on="1"/>
        <pt x="190" y="980" on="0"/>
        <pt x="158" y="1040" on="0"/>
        <pt x="91" y="1063" on="0"/>
        <pt x="13" y="1063" on="1"/>
        <pt x="29" y="1212" on="1"/>
        <pt x="50" y="1212" on="1"/>
        <pt x="139" y="1212" on="0"/>
        <pt x="253" y="1173" on="0"/>
        <pt x="321" y="1107" on="0"/>
        <pt x="354" y="1006" on="0"/>
        <pt x="354" y="908" on="1"/>
      </contour>
    </TTGlyph>
    <TTGlyph name="glyph00151" xMin="77" yMin="-323" xMax="1104" yMax="1234">
      <contour>
        <pt x="77" y="577" on="1"/>
        <pt x="362" y="679" on="1"/>
        <pt x="286" y="738" on="0"/>
        <pt x="210" y="872" on="0"/>
        <pt x="210" y="947" on="1"/>
        <pt x="210" y="1075" on="0"/>
        <pt x="406" y="1234" on="0"/>
        <pt x="568" y="1234" on="1"/>
        <pt x="696" y="1234" on="0"/>
        <pt x="806" y="1207" on="1"/>
        <pt x="776" y="1058" on="1"/>
        <pt x="708" y="1075" on="0"/>
        <pt x="631" y="1084" on="0"/>
        <pt x="585" y="1084" on="1"/>
        <pt x="486" y="1084" on="0"/>
        <pt x="378" y="1005" on="0"/>
        <pt x="378" y="932" on="1"/>
        <pt x="378" y="880" on="0"/>
        <pt x="454" y="784" on="0"/>
        <pt x="530" y="739" on="1"/>
        <pt x="1104" y="739" on="1"/>
        <pt x="1104" y="594" on="1"/>
        <pt x="870" y="594" on="1"/>
        <pt x="782" y="594" on="0"/>
        <pt x="742" y="599" on="1"/>
        <pt x="840" y="526" on="0"/>
        <pt x="928" y="379" on="0"/>
        <pt x="928" y="291" on="1"/>
        <pt x="928" y="153" on="0"/>
        <pt x="722" y="-20" on="0"/>
        <pt x="531" y="-20" on="1"/>
        <pt x="507" y="-20" on="1"/>
        <pt x="495" y="-20" on="0"/>
        <pt x="482" y="-19" on="1"/>
        <pt x="531" y="-78" on="0"/>
        <pt x="616" y="-142" on="0"/>
        <pt x="709" y="-169" on="0"/>
        <pt x="783" y="-169" on="1"/>
        <pt x="831" y="-169" on="1"/>
        <pt x="813" y="-323" on="1"/>
        <pt x="781" y="-323" on="1"/>
        <pt x="639" y="-323" on="0"/>
        <pt x="411" y="-180" on="0"/>
        <pt x="293" y="-6" on="1"/>
        <pt x="189" y="7" on="0"/>
        <pt x="89" y="90" on="0"/>
        <pt x="89" y="149" on="1"/>
        <pt x="89" y="194" on="0"/>
        <pt x="150" y="249" on="0"/>
        <pt x="197" y="249" on="1"/>
        <pt x="252" y="249" on="0"/>
        <pt x="346" y="191" on="0"/>
        <pt x="391" y="137" on="1"/>
        <pt x="448" y="125" on="0"/>
        <pt x="526" y="125" on="1"/>
        <pt x="639" y="125" on="0"/>
        <pt x="760" y="212" on="0"/>
        <pt x="760" y="294" on="1"/>
        <pt x="760" y="339" on="0"/>
        <pt x="719" y="418" on="0"/>
        <pt x="612" y="515" on="0"/>
        <pt x="512" y="577" on="1"/>
        <pt x="134" y="432" on="1"/>
      </contour>
    </TTGlyph>
    <TTGlyph name="glyph00152" xMin="90" yMin="309" xMax="1175" yMax="1234">
      <contour>
        <pt x="531" y="1234" on="1"/>
        <pt x="578" y="1085" on="1"/>
        <pt x="258" y="989" on="0"/>
        <pt x="258" y="722" on="1"/>
        <pt x="258" y="593" on="0"/>
        <pt x="379" y="457" on="0"/>
        <pt x="480" y="457" on="1"/>
        <pt x="557" y="457" on="0"/>
        <pt x="655" y="526" on="0"/>
        <pt x="691" y="645" on="0"/>
        <pt x="691" y="755" on="1"/>
        <pt x="691" y="916" on="1"/>
        <pt x="855" y="894" on="1"/>
        <pt x="855" y="677" on="1"/>
        <pt x="894" y="614" on="0"/>
        <pt x="972" y="614" on="1"/>
        <pt x="1054" y="614" on="0"/>
        <pt x="1117" y="668" on="1"/>
        <pt x="1175" y="530" on="1"/>
        <pt x="1121" y="493" on="0"/>
        <pt x="1034" y="466" on="0"/>
        <pt x="972" y="466" on="1"/>
        <pt x="879" y="466" on="0"/>
        <pt x="822" y="513" on="1"/>
        <pt x="781" y="412" on="0"/>
        <pt x="603" y="309" on="0"/>
        <pt x="477" y="309" on="1"/>
        <pt x="303" y="309" on="0"/>
        <pt x="90" y="537" on="0"/>
        <pt x="90" y="725" on="1"/>
        <pt x="90" y="908" on="0"/>
        <pt x="311" y="1165" on="0"/>
      </contour>
    </TTGlyph>
    <TTGlyph name="glyph00153" xMin="93" yMin="100" xMax="1298" yMax="1234">
      <contour>
        <pt x="593" y="211" on="1"/>
        <pt x="479" y="100" on="1"/>
        <pt x="271" y="283" on="0"/>
        <pt x="93" y="604" on="0"/>
        <pt x="93" y="786" on="1"/>
        <pt x="93" y="986" on="0"/>
        <pt x="330" y="1234" on="0"/>
        <pt x="522" y="1234" on="1"/>
        <pt x="653" y="1234" on="0"/>
        <pt x="833" y="1123" on="0"/>
        <pt x="920" y="929" on="0"/>
        <pt x="920" y="773" on="1"/>
        <pt x="920" y="748" on="1"/>
        <pt x="1298" y="748" on="1"/>
        <pt x="1298" y="600" on="1"/>
        <pt x="920" y="600" on="1"/>
        <pt x="920" y="522" on="1"/>
        <pt x="920" y="462" on="0"/>
        <pt x="866" y="394" on="0"/>
        <pt x="821" y="394" on="1"/>
        <pt x="773" y="394" on="0"/>
        <pt x="655" y="481" on="0"/>
        <pt x="576" y="608" on="0"/>
        <pt x="576" y="658" on="1"/>
        <pt x="576" y="701" on="0"/>
        <pt x="640" y="748" on="0"/>
        <pt x="701" y="748" on="1"/>
        <pt x="756" y="748" on="1"/>
        <pt x="756" y="761" on="1"/>
        <pt x="756" y="879" on="0"/>
        <pt x="711" y="1012" on="0"/>
        <pt x="608" y="1086" on="0"/>
        <pt x="523" y="1086" on="1"/>
        <pt x="397" y="1086" on="0"/>
        <pt x="258" y="918" on="0"/>
        <pt x="258" y="783" on="1"/>
        <pt x="258" y="636" on="0"/>
        <pt x="407" y="372" on="0"/>
      </contour>
    </TTGlyph>
    <TTGlyph name="glyph00154" xMin="88" yMin="294" xMax="860" yMax="1213">
      <contour>
        <pt x="432" y="648" on="1"/>
        <pt x="860" y="648" on="1"/>
        <pt x="860" y="500" on="1"/>
        <pt x="432" y="500" on="1"/>
        <pt x="432" y="422" on="1"/>
        <pt x="432" y="362" on="0"/>
        <pt x="378" y="294" on="0"/>
        <pt x="333" y="294" on="1"/>
        <pt x="285" y="294" on="0"/>
        <pt x="167" y="381" on="0"/>
        <pt x="88" y="508" on="0"/>
        <pt x="88" y="558" on="1"/>
        <pt x="88" y="601" on="0"/>
        <pt x="152" y="648" on="0"/>
        <pt x="213" y="648" on="1"/>
        <pt x="268" y="648" on="1"/>
        <pt x="268" y="902" on="1"/>
        <pt x="268" y="981" on="0"/>
        <pt x="236" y="1041" on="0"/>
        <pt x="169" y="1064" on="0"/>
        <pt x="91" y="1064" on="1"/>
        <pt x="107" y="1213" on="1"/>
        <pt x="128" y="1213" on="1"/>
        <pt x="217" y="1213" on="0"/>
        <pt x="331" y="1174" on="0"/>
        <pt x="399" y="1108" on="0"/>
        <pt x="432" y="1007" on="0"/>
        <pt x="432" y="909" on="1"/>
      </contour>
    </TTGlyph>
    <TTGlyph name="glyph00155" xMin="29" yMin="329" xMax="905" yMax="1234">
      <contour>
        <pt x="905" y="450" on="1"/>
        <pt x="813" y="381" on="0"/>
        <pt x="654" y="329" on="0"/>
        <pt x="556" y="329" on="1"/>
        <pt x="391" y="329" on="0"/>
        <pt x="154" y="507" on="0"/>
        <pt x="89" y="683" on="1"/>
        <pt x="357" y="758" on="0"/>
        <pt x="357" y="924" on="1"/>
        <pt x="357" y="999" on="0"/>
        <pt x="256" y="1088" on="0"/>
        <pt x="170" y="1088" on="1"/>
        <pt x="115" y="1088" on="0"/>
        <pt x="66" y="1077" on="1"/>
        <pt x="29" y="1217" on="1"/>
        <pt x="107" y="1234" on="0"/>
        <pt x="181" y="1234" on="1"/>
        <pt x="341" y="1234" on="0"/>
        <pt x="522" y="1068" on="0"/>
        <pt x="522" y="926" on="1"/>
        <pt x="522" y="721" on="0"/>
        <pt x="299" y="613" on="1"/>
        <pt x="335" y="549" on="0"/>
        <pt x="469" y="477" on="0"/>
        <pt x="550" y="477" on="1"/>
        <pt x="626" y="477" on="0"/>
        <pt x="759" y="525" on="0"/>
        <pt x="829" y="582" on="1"/>
      </contour>
    </TTGlyph>
    <TTGlyph name="glyph00156" xMin="60" yMin="-547" xMax="1083" yMax="1234">
      <component glyphName="uni0AB0" x="0" y="0" flags="0x204"/>
      <component glyphName="uni0ACD" x="742" y="0" flags="0x4"/>
    </TTGlyph>
    <TTGlyph name="glyph00157" xMin="90" yMin="216" xMax="993" yMax="1234">
      <contour>
        <pt x="653" y="1082" on="1"/>
        <pt x="452" y="1040" on="0"/>
        <pt x="258" y="844" on="0"/>
        <pt x="258" y="681" on="1"/>
        <pt x="258" y="532" on="0"/>
        <pt x="424" y="366" on="0"/>
        <pt x="565" y="366" on="1"/>
        <pt x="687" y="366" on="0"/>
        <pt x="779" y="408" on="1"/>
        <pt x="842" y="271" on="1"/>
        <pt x="727" y="216" on="0"/>
        <pt x="572" y="216" on="1"/>
        <pt x="351" y="216" on="0"/>
        <pt x="90" y="477" on="0"/>
        <pt x="90" y="699" on="1"/>
        <pt x="90" y="897" on="0"/>
        <pt x="362" y="1179" on="0"/>
        <pt x="612" y="1234" on="1"/>
      </contour>
      <contour>
        <pt x="993" y="722" on="1"/>
        <pt x="500" y="622" on="1"/>
        <pt x="462" y="773" on="1"/>
        <pt x="963" y="873" on="1"/>
      </contour>
    </TTGlyph>
    <TTGlyph name="glyph00158" xMin="90" yMin="289" xMax="1151" yMax="1234">
      <contour>
        <pt x="1110" y="943" on="1"/>
        <pt x="1068" y="960" on="0"/>
        <pt x="1024" y="960" on="1"/>
        <pt x="949" y="960" on="0"/>
        <pt x="882" y="859" on="0"/>
        <pt x="882" y="754" on="1"/>
        <pt x="882" y="743" on="1"/>
        <pt x="882" y="632" on="0"/>
        <pt x="847" y="475" on="0"/>
        <pt x="756" y="356" on="0"/>
        <pt x="606" y="289" on="0"/>
        <pt x="496" y="289" on="1"/>
        <pt x="314" y="289" on="0"/>
        <pt x="90" y="524" on="0"/>
        <pt x="90" y="724" on="1"/>
        <pt x="90" y="903" on="0"/>
        <pt x="312" y="1164" on="0"/>
        <pt x="531" y="1234" on="1"/>
        <pt x="578" y="1085" on="1"/>
        <pt x="422" y="1034" on="0"/>
        <pt x="258" y="853" on="0"/>
        <pt x="258" y="717" on="1"/>
        <pt x="258" y="581" on="0"/>
        <pt x="383" y="436" on="0"/>
        <pt x="494" y="436" on="1"/>
        <pt x="556" y="436" on="0"/>
        <pt x="639" y="471" on="0"/>
        <pt x="693" y="535" on="0"/>
        <pt x="718" y="632" on="0"/>
        <pt x="718" y="730" on="1"/>
        <pt x="718" y="762" on="1"/>
        <pt x="718" y="885" on="0"/>
        <pt x="782" y="1019" on="0"/>
        <pt x="917" y="1105" on="0"/>
        <pt x="1020" y="1105" on="1"/>
        <pt x="1085" y="1105" on="0"/>
        <pt x="1151" y="1083" on="1"/>
      </contour>
    </TTGlyph>
    <TTGlyph name="glyph00159" xMin="90" yMin="329" xMax="893" yMax="1105">
      <contour>
        <pt x="893" y="477" on="1"/>
        <pt x="786" y="391" on="0"/>
        <pt x="608" y="329" on="0"/>
        <pt x="500" y="329" on="1"/>
        <pt x="320" y="329" on="0"/>
        <pt x="90" y="539" on="0"/>
        <pt x="90" y="706" on="1"/>
        <pt x="90" y="889" on="0"/>
        <pt x="336" y="1105" on="0"/>
        <pt x="539" y="1105" on="1"/>
        <pt x="582" y="1105" on="0"/>
        <pt x="697" y="1092" on="0"/>
        <pt x="736" y="1082" on="1"/>
        <pt x="709" y="937" on="1"/>
        <pt x="620" y="955" on="0"/>
        <pt x="545" y="955" on="1"/>
        <pt x="407" y="955" on="0"/>
        <pt x="255" y="826" on="0"/>
        <pt x="255" y="709" on="1"/>
        <pt x="255" y="600" on="0"/>
        <pt x="385" y="477" on="0"/>
        <pt x="497" y="477" on="1"/>
        <pt x="578" y="477" on="0"/>
        <pt x="715" y="524" on="0"/>
        <pt x="810" y="605" on="1"/>
      </contour>
    </TTGlyph>
    <TTGlyph name="glyph00160" xMin="63" yMin="0" xMax="842" yMax="1234">
      <contour>
        <pt x="475" y="680" on="1"/>
        <pt x="302" y="721" on="0"/>
        <pt x="135" y="871" on="0"/>
        <pt x="135" y="992" on="1"/>
        <pt x="135" y="1095" on="0"/>
        <pt x="298" y="1234" on="0"/>
        <pt x="438" y="1234" on="1"/>
        <pt x="542" y="1234" on="0"/>
        <pt x="717" y="1142" on="0"/>
        <pt x="813" y="966" on="0"/>
        <pt x="813" y="846" on="1"/>
        <pt x="813" y="697" on="0"/>
        <pt x="624" y="463" on="0"/>
        <pt x="461" y="409" on="1"/>
        <pt x="571" y="253" on="0"/>
        <pt x="708" y="154" on="0"/>
        <pt x="815" y="154" on="1"/>
        <pt x="842" y="154" on="1"/>
        <pt x="824" y="0" on="1"/>
        <pt x="792" y="0" on="1"/>
        <pt x="660" y="0" on="0"/>
        <pt x="429" y="176" on="0"/>
        <pt x="304" y="377" on="1"/>
        <pt x="274" y="375" on="0"/>
        <pt x="244" y="375" on="1"/>
        <pt x="63" y="375" on="0"/>
        <pt x="63" y="499" on="1"/>
        <pt x="63" y="546" on="0"/>
        <pt x="132" y="603" on="0"/>
        <pt x="187" y="603" on="1"/>
        <pt x="279" y="603" on="0"/>
        <pt x="356" y="542" on="1"/>
        <pt x="502" y="577" on="0"/>
        <pt x="648" y="734" on="0"/>
        <pt x="648" y="855" on="1"/>
        <pt x="648" y="968" on="0"/>
        <pt x="529" y="1089" on="0"/>
        <pt x="434" y="1089" on="1"/>
        <pt x="367" y="1089" on="0"/>
        <pt x="294" y="1030" on="0"/>
        <pt x="294" y="987" on="1"/>
        <pt x="294" y="916" on="0"/>
        <pt x="420" y="839" on="0"/>
        <pt x="529" y="817" on="1"/>
      </contour>
    </TTGlyph>
    <TTGlyph name="glyph00161" xMin="13" yMin="329" xMax="919" yMax="1212">
      <contour>
        <pt x="50" y="1212" on="1"/>
        <pt x="202" y="1212" on="0"/>
        <pt x="276" y="1150" on="1"/>
        <pt x="697" y="839" on="1"/>
        <pt x="808" y="757" on="0"/>
        <pt x="919" y="652" on="1"/>
        <pt x="919" y="481" on="1"/>
        <pt x="816" y="397" on="0"/>
        <pt x="648" y="329" on="0"/>
        <pt x="541" y="329" on="1"/>
        <pt x="438" y="329" on="0"/>
        <pt x="283" y="410" on="0"/>
        <pt x="190" y="568" on="0"/>
        <pt x="190" y="717" on="1"/>
        <pt x="190" y="929" on="1"/>
        <pt x="190" y="991" on="0"/>
        <pt x="158" y="1043" on="0"/>
        <pt x="92" y="1063" on="0"/>
        <pt x="13" y="1063" on="1"/>
        <pt x="29" y="1212" on="1"/>
      </contour>
      <contour>
        <pt x="354" y="732" on="1"/>
        <pt x="354" y="587" on="0"/>
        <pt x="447" y="477" on="0"/>
        <pt x="558" y="477" on="1"/>
        <pt x="692" y="477" on="0"/>
        <pt x="818" y="586" on="1"/>
        <pt x="558" y="779" on="1"/>
        <pt x="428" y="876" on="0"/>
        <pt x="345" y="948" on="1"/>
        <pt x="354" y="897" on="0"/>
        <pt x="354" y="804" on="1"/>
      </contour>
    </TTGlyph>
    <TTGlyph name="glyph00162" xMin="63" yMin="0" xMax="1123" yMax="1234">
      <contour>
        <pt x="729" y="641" on="1"/>
        <pt x="685" y="567" on="0"/>
        <pt x="551" y="461" on="0"/>
        <pt x="460" y="429" on="1"/>
        <pt x="541" y="315" on="0"/>
        <pt x="661" y="200" on="0"/>
        <pt x="778" y="154" on="0"/>
        <pt x="855" y="154" on="1"/>
        <pt x="896" y="154" on="1"/>
        <pt x="878" y="0" on="1"/>
        <pt x="846" y="0" on="1"/>
        <pt x="692" y="0" on="0"/>
        <pt x="438" y="177" on="0"/>
        <pt x="306" y="396" on="1"/>
        <pt x="275" y="393" on="0"/>
        <pt x="244" y="393" on="1"/>
        <pt x="155" y="393" on="0"/>
        <pt x="63" y="451" on="0"/>
        <pt x="63" y="517" on="1"/>
        <pt x="63" y="564" on="0"/>
        <pt x="132" y="621" on="0"/>
        <pt x="187" y="621" on="1"/>
        <pt x="277" y="621" on="0"/>
        <pt x="350" y="565" on="1"/>
        <pt x="481" y="600" on="0"/>
        <pt x="614" y="745" on="0"/>
        <pt x="614" y="848" on="1"/>
        <pt x="614" y="961" on="0"/>
        <pt x="488" y="1084" on="0"/>
        <pt x="374" y="1084" on="1"/>
        <pt x="302" y="1084" on="0"/>
        <pt x="181" y="1054" on="0"/>
        <pt x="115" y="1021" on="1"/>
        <pt x="63" y="1162" on="1"/>
        <pt x="224" y="1234" on="0"/>
        <pt x="381" y="1234" on="1"/>
        <pt x="569" y="1234" on="0"/>
        <pt x="783" y="1031" on="0"/>
        <pt x="783" y="846" on="1"/>
        <pt x="783" y="812" on="0"/>
        <pt x="778" y="782" on="1"/>
        <pt x="825" y="764" on="0"/>
        <pt x="885" y="764" on="1"/>
        <pt x="999" y="764" on="0"/>
        <pt x="1075" y="827" on="1"/>
        <pt x="1123" y="675" on="1"/>
        <pt x="1029" y="615" on="0"/>
        <pt x="891" y="615" on="1"/>
        <pt x="800" y="615" on="0"/>
      </contour>
    </TTGlyph>
    <TTGlyph name="glyph00163" xMin="105" yMin="-273" xMax="1059" yMax="1234">
      <contour>
        <pt x="763" y="1062" on="1"/>
        <pt x="680" y="1084" on="0"/>
        <pt x="594" y="1084" on="1"/>
        <pt x="488" y="1084" on="0"/>
        <pt x="375" y="1000" on="0"/>
        <pt x="375" y="923" on="1"/>
        <pt x="375" y="825" on="0"/>
        <pt x="463" y="757" on="1"/>
        <pt x="564" y="789" on="0"/>
        <pt x="681" y="789" on="1"/>
        <pt x="786" y="789" on="0"/>
        <pt x="962" y="759" on="0"/>
        <pt x="1059" y="721" on="1"/>
        <pt x="1001" y="574" on="1"/>
        <pt x="910" y="613" on="0"/>
        <pt x="766" y="641" on="0"/>
        <pt x="673" y="641" on="1"/>
        <pt x="488" y="641" on="0"/>
        <pt x="273" y="445" on="0"/>
        <pt x="273" y="284" on="1"/>
        <pt x="273" y="144" on="0"/>
        <pt x="432" y="-65" on="0"/>
        <pt x="599" y="-139" on="1"/>
        <pt x="514" y="-273" on="1"/>
        <pt x="316" y="-182" on="0"/>
        <pt x="105" y="113" on="0"/>
        <pt x="105" y="291" on="1"/>
        <pt x="105" y="416" on="0"/>
        <pt x="214" y="622" on="0"/>
        <pt x="317" y="689" on="1"/>
        <pt x="210" y="792" on="0"/>
        <pt x="210" y="935" on="1"/>
        <pt x="210" y="1067" on="0"/>
        <pt x="409" y="1234" on="0"/>
        <pt x="586" y="1234" on="1"/>
        <pt x="701" y="1234" on="0"/>
        <pt x="793" y="1209" on="1"/>
      </contour>
    </TTGlyph>
    <TTGlyph name="glyph00164" xMin="95" yMin="-89" xMax="1056" yMax="1234">
      <contour>
        <pt x="1056" y="602" on="1"/>
        <pt x="925" y="560" on="0"/>
        <pt x="786" y="560" on="1"/>
        <pt x="604" y="560" on="0"/>
        <pt x="459" y="623" on="1"/>
        <pt x="345" y="559" on="0"/>
        <pt x="263" y="460" on="0"/>
        <pt x="263" y="395" on="1"/>
        <pt x="263" y="317" on="0"/>
        <pt x="387" y="227" on="0"/>
        <pt x="505" y="227" on="1"/>
        <pt x="556" y="227" on="0"/>
        <pt x="592" y="241" on="1"/>
        <pt x="584" y="262" on="0"/>
        <pt x="584" y="288" on="1"/>
        <pt x="584" y="339" on="0"/>
        <pt x="647" y="399" on="0"/>
        <pt x="701" y="399" on="1"/>
        <pt x="756" y="399" on="0"/>
        <pt x="821" y="330" on="0"/>
        <pt x="821" y="280" on="1"/>
        <pt x="821" y="224" on="0"/>
        <pt x="780" y="176" on="1"/>
        <pt x="808" y="113" on="0"/>
        <pt x="896" y="58" on="0"/>
        <pt x="969" y="58" on="1"/>
        <pt x="986" y="58" on="1"/>
        <pt x="969" y="-89" on="1"/>
        <pt x="941" y="-89" on="1"/>
        <pt x="747" y="-89" on="0"/>
        <pt x="646" y="98" on="1"/>
        <pt x="577" y="79" on="0"/>
        <pt x="498" y="79" on="1"/>
        <pt x="316" y="79" on="0"/>
        <pt x="95" y="253" on="0"/>
        <pt x="95" y="388" on="1"/>
        <pt x="95" y="483" on="0"/>
        <pt x="203" y="630" on="0"/>
        <pt x="327" y="699" on="1"/>
        <pt x="243" y="747" on="0"/>
        <pt x="150" y="889" on="0"/>
        <pt x="150" y="970" on="1"/>
        <pt x="150" y="1088" on="0"/>
        <pt x="323" y="1234" on="0"/>
        <pt x="470" y="1234" on="1"/>
        <pt x="610" y="1234" on="0"/>
        <pt x="785" y="1103" on="0"/>
        <pt x="785" y="992" on="1"/>
        <pt x="785" y="917" on="0"/>
        <pt x="703" y="787" on="0"/>
        <pt x="610" y="722" on="1"/>
        <pt x="668" y="708" on="0"/>
        <pt x="765" y="708" on="1"/>
        <pt x="911" y="708" on="0"/>
        <pt x="1011" y="745" on="1"/>
      </contour>
      <contour>
        <pt x="464" y="778" on="1"/>
        <pt x="621" y="865" on="0"/>
        <pt x="621" y="970" on="1"/>
        <pt x="621" y="1026" on="0"/>
        <pt x="542" y="1092" on="0"/>
        <pt x="470" y="1092" on="1"/>
        <pt x="394" y="1092" on="0"/>
        <pt x="313" y="1025" on="0"/>
        <pt x="313" y="964" on="1"/>
        <pt x="313" y="910" on="0"/>
        <pt x="393" y="812" on="0"/>
      </contour>
    </TTGlyph>
    <TTGlyph name="glyph00165" xMin="73" yMin="-89" xMax="1055" yMax="1172">
      <contour>
        <pt x="1055" y="839" on="1"/>
        <pt x="1018" y="832" on="0"/>
        <pt x="957" y="832" on="1"/>
        <pt x="797" y="832" on="0"/>
        <pt x="648" y="928" on="1"/>
        <pt x="567" y="979" on="0"/>
        <pt x="467" y="1024" on="0"/>
        <pt x="414" y="1024" on="1"/>
        <pt x="348" y="1024" on="0"/>
        <pt x="276" y="959" on="0"/>
        <pt x="276" y="903" on="1"/>
        <pt x="276" y="839" on="0"/>
        <pt x="385" y="767" on="0"/>
        <pt x="515" y="743" on="1"/>
        <pt x="682" y="712" on="0"/>
        <pt x="838" y="568" on="0"/>
        <pt x="838" y="447" on="1"/>
        <pt x="838" y="305" on="0"/>
        <pt x="637" y="150" on="0"/>
        <pt x="451" y="142" on="1"/>
        <pt x="484" y="110" on="0"/>
        <pt x="551" y="77" on="0"/>
        <pt x="620" y="65" on="0"/>
        <pt x="694" y="65" on="1"/>
        <pt x="721" y="65" on="1"/>
        <pt x="703" y="-89" on="1"/>
        <pt x="671" y="-89" on="1"/>
        <pt x="543" y="-89" on="0"/>
        <pt x="346" y="24" on="0"/>
        <pt x="258" y="151" on="1"/>
        <pt x="73" y="179" on="0"/>
        <pt x="73" y="294" on="1"/>
        <pt x="73" y="336" on="0"/>
        <pt x="132" y="394" on="0"/>
        <pt x="181" y="394" on="1"/>
        <pt x="235" y="394" on="0"/>
        <pt x="326" y="341" on="0"/>
        <pt x="370" y="289" on="1"/>
        <pt x="397" y="285" on="0"/>
        <pt x="431" y="285" on="1"/>
        <pt x="548" y="285" on="0"/>
        <pt x="672" y="361" on="0"/>
        <pt x="672" y="430" on="1"/>
        <pt x="672" y="480" on="0"/>
        <pt x="626" y="542" on="0"/>
        <pt x="542" y="578" on="0"/>
        <pt x="452" y="596" on="1"/>
        <pt x="275" y="629" on="0"/>
        <pt x="108" y="783" on="0"/>
        <pt x="108" y="908" on="1"/>
        <pt x="108" y="1025" on="0"/>
        <pt x="274" y="1172" on="0"/>
        <pt x="416" y="1172" on="1"/>
        <pt x="466" y="1172" on="0"/>
        <pt x="554" y="1154" on="0"/>
        <pt x="636" y="1118" on="0"/>
        <pt x="702" y="1076" on="1"/>
        <pt x="767" y="1034" on="0"/>
        <pt x="832" y="1001" on="0"/>
        <pt x="914" y="980" on="0"/>
        <pt x="960" y="980" on="1"/>
        <pt x="1013" y="980" on="0"/>
        <pt x="1055" y="992" on="1"/>
      </contour>
    </TTGlyph>
    <TTGlyph name="glyph00166" xMin="37" yMin="-394" xMax="1104" yMax="1234">
      <component glyphName="glyph00130" x="0" y="0" flags="0x204"/>
      <component glyphName="uni0ABC" x="1050" y="0" flags="0x4"/>
    </TTGlyph>
    <TTGlyph name="glyph00167" xMin="13" yMin="-49" xMax="1199" yMax="1212">
      <component glyphName="glyph00131" x="0" y="0" flags="0x204"/>
      <component glyphName="uni0ABC" x="1135" y="345" flags="0x4"/>
    </TTGlyph>
    <TTGlyph name="glyph00168" xMin="22" yMin="-20" xMax="778" yMax="1234">
      <component glyphName="glyph00132" x="0" y="0" flags="0x204"/>
      <component glyphName="uni0ABC" x="1038" y="374" flags="0x4"/>
    </TTGlyph>
    <TTGlyph name="glyph00169" xMin="90" yMin="-183" xMax="976" yMax="1234">
      <component glyphName="glyph00133" x="0" y="0" flags="0x204"/>
      <component glyphName="uni0ABC" x="1050" y="211" flags="0x4"/>
    </TTGlyph>
    <TTGlyph name="glyph00170" xMin="19" yMin="-547" xMax="1143" yMax="1234">
      <component glyphName="uni0A99" x="0" y="0" flags="0x204"/>
      <component glyphName="uni0ABC" x="771" y="0" flags="0x4"/>
      <component glyphName="uni0ACD" x="802" y="0" flags="0x4"/>
    </TTGlyph>
    <TTGlyph name="glyph00171" xMin="64" yMin="-111" xMax="1046" yMax="1234">
      <component glyphName="glyph00135" x="0" y="0" flags="0x204"/>
      <component glyphName="uni0ABC" x="1061" y="283" flags="0x4"/>
    </TTGlyph>
    <TTGlyph name="glyph00172" xMin="90" yMin="-547" xMax="1436" yMax="1234">
      <component glyphName="uni0A9B" x="0" y="0" flags="0x204"/>
      <component glyphName="uni0ABC" x="941" y="0" flags="0x4"/>
      <component glyphName="uni0ACD" x="1002" y="0" flags="0x4"/>
    </TTGlyph>
    <TTGlyph name="glyph00173" xMin="67" yMin="-394" xMax="1745" yMax="1234">
      <component glyphName="glyph00137" x="0" y="0" flags="0x204"/>
      <component glyphName="uni0ABC" x="1671" y="0" flags="0x4"/>
    </TTGlyph>
    <TTGlyph name="glyph00174" xMin="22" yMin="-394" xMax="1313" yMax="1234">
      <component glyphName="glyph00138" x="0" y="0" flags="0x204"/>
      <component glyphName="uni0ABC" x="1242" y="0" flags="0x4"/>
    </TTGlyph>
    <TTGlyph name="glyph00175" xMin="22" yMin="-20" xMax="1083" yMax="1234">
      <component glyphName="glyph00139" x="0" y="0" flags="0x204"/>
      <component glyphName="uni0ABC" x="1038" y="374" flags="0x4"/>
    </TTGlyph>
    <TTGlyph name="glyph00176" xMin="90" yMin="-547" xMax="1123" yMax="1234">
      <component glyphName="uni0A9F" x="0" y="0" flags="0x204"/>
      <component glyphName="uni0ABC" x="751" y="0" flags="0x4"/>
      <component glyphName="uni0ACD" x="782" y="0" flags="0x4"/>
    </TTGlyph>
    <TTGlyph name="glyph00177" xMin="90" yMin="-547" xMax="1143" yMax="1234">
      <component glyphName="uni0AA0" x="0" y="0" flags="0x204"/>
      <component glyphName="uni0ABC" x="771" y="0" flags="0x4"/>
      <component glyphName="uni0ACD" x="802" y="0" flags="0x4"/>
    </TTGlyph>
    <TTGlyph name="glyph00178" xMin="19" yMin="-547" xMax="1143" yMax="1234">
      <component glyphName="uni0AA1" x="0" y="0" flags="0x204"/>
      <component glyphName="uni0ABC" x="771" y="0" flags="0x4"/>
      <component glyphName="uni0ACD" x="802" y="0" flags="0x4"/>
    </TTGlyph>
    <TTGlyph name="glyph00179" xMin="90" yMin="-547" xMax="1143" yMax="1234">
      <component glyphName="uni0AA2" x="0" y="0" flags="0x204"/>
      <component glyphName="uni0ABC" x="771" y="0" flags="0x4"/>
      <component glyphName="uni0ACD" x="802" y="0" flags="0x4"/>
    </TTGlyph>
    <TTGlyph name="glyph00180" xMin="153" yMin="-394" xMax="1136" yMax="1234">
      <component glyphName="glyph00144" x="0" y="0" flags="0x204"/>
      <component glyphName="uni0ABC" x="987" y="0" flags="0x4"/>
    </TTGlyph>
    <TTGlyph name="glyph00181" xMin="89" yMin="-366" xMax="815" yMax="886">
      <component glyphName="glyph00145" x="0" y="0" flags="0x204"/>
      <component glyphName="uni0ABC" x="1004" y="28" flags="0x4"/>
    </TTGlyph>
    <TTGlyph name="glyph00182" xMin="86" yMin="-89" xMax="954" yMax="1234">
      <component glyphName="glyph00146" x="0" y="0" flags="0x204"/>
      <component glyphName="uni0ABC" x="1009" y="305" flags="0x4"/>
    </TTGlyph>
    <TTGlyph name="glyph00183" xMin="90" yMin="-547" xMax="1149" yMax="1234">
      <component glyphName="uni0AA6" x="0" y="0" flags="0x204"/>
      <component glyphName="uni0ABC" x="777" y="0" flags="0x4"/>
      <component glyphName="uni0ACD" x="808" y="0" flags="0x4"/>
    </TTGlyph>
    <TTGlyph name="glyph00184" xMin="90" yMin="-183" xMax="944" yMax="1324">
      <component glyphName="glyph00148" x="0" y="0" flags="0x204"/>
      <component glyphName="uni0ABC" x="1050" y="211" flags="0x4"/>
    </TTGlyph>
    <TTGlyph name="glyph00185" xMin="49" yMin="-20" xMax="761" yMax="820">
      <component glyphName="glyph00149" x="0" y="0" flags="0x204"/>
      <component glyphName="uni0ABC" x="923" y="374" flags="0x4"/>
    </TTGlyph>
    <TTGlyph name="glyph00186" xMin="13" yMin="-73" xMax="834" yMax="1212">
      <component glyphName="glyph00150" x="0" y="0" flags="0x204"/>
      <component glyphName="uni0ABC" x="944" y="321" flags="0x4"/>
    </TTGlyph>
    <TTGlyph name="glyph00187" xMin="77" yMin="-513" xMax="1104" yMax="1234">
      <component glyphName="glyph00151" x="0" y="0" flags="0x204"/>
      <component glyphName="uni0ABC" x="830" y="-119" flags="0x4"/>
    </TTGlyph>
    <TTGlyph name="glyph00188" xMin="90" yMin="-89" xMax="1175" yMax="1234">
      <component glyphName="glyph00152" x="0" y="0" flags="0x204"/>
      <component glyphName="uni0ABC" x="1203" y="305" flags="0x4"/>
    </TTGlyph>
    <TTGlyph name="glyph00189" xMin="93" yMin="-79" xMax="1298" yMax="1234">
      <component glyphName="glyph00153" x="0" y="0" flags="0x204"/>
      <component glyphName="uni0ABC" x="1436" y="315" flags="0x4"/>
    </TTGlyph>
    <TTGlyph name="glyph00190" xMin="88" yMin="-104" xMax="860" yMax="1213">
      <component glyphName="glyph00154" x="0" y="0" flags="0x204"/>
      <component glyphName="uni0ABC" x="1040" y="290" flags="0x4"/>
    </TTGlyph>
    <TTGlyph name="glyph00191" xMin="29" yMin="-73" xMax="905" yMax="1234">
      <component glyphName="glyph00155" x="0" y="0" flags="0x204"/>
      <component glyphName="uni0ABC" x="975" y="321" flags="0x4"/>
    </TTGlyph>
    <TTGlyph name="glyph00192" xMin="60" yMin="-547" xMax="1153" yMax="1234">
      <component glyphName="uni0AB0" x="0" y="0" flags="0x204"/>
      <component glyphName="uni0ABC" x="781" y="0" flags="0x4"/>
      <component glyphName="uni0ACD" x="812" y="0" flags="0x4"/>
    </TTGlyph>
    <TTGlyph name="glyph00193" xMin="90" yMin="-183" xMax="993" yMax="1234">
      <component glyphName="glyph00157" x="0" y="0" flags="0x204"/>
      <component glyphName="uni0ABC" x="1070" y="211" flags="0x4"/>
    </TTGlyph>
    <TTGlyph name="glyph00194" xMin="90" yMin="-104" xMax="1151" yMax="1234">
      <component glyphName="glyph00158" x="0" y="0" flags="0x204"/>
      <component glyphName="uni0ABC" x="1147" y="290" flags="0x4"/>
    </TTGlyph>
    <TTGlyph name="glyph00195" xMin="90" yMin="-73" xMax="893" yMax="1105">
      <component glyphName="glyph00159" x="0" y="0" flags="0x204"/>
      <component glyphName="uni0ABC" x="985" y="321" flags="0x4"/>
    </TTGlyph>
    <TTGlyph name="glyph00196" xMin="63" yMin="-246" xMax="842" yMax="1234">
      <component glyphName="glyph00160" x="0" y="0" flags="0x204"/>
      <component glyphName="uni0ABC" x="924" y="148" flags="0x4"/>
    </TTGlyph>
    <TTGlyph name="glyph00197" xMin="13" yMin="-73" xMax="919" yMax="1212">
      <component glyphName="glyph00161" x="0" y="0" flags="0x204"/>
      <component glyphName="uni0ABC" x="943" y="321" flags="0x4"/>
    </TTGlyph>
    <TTGlyph name="glyph00198" xMin="63" yMin="-246" xMax="1123" yMax="1234">
      <component glyphName="glyph00162" x="0" y="0" flags="0x204"/>
      <component glyphName="uni0ABC" x="924" y="148" flags="0x4"/>
    </TTGlyph>
    <TTGlyph name="glyph00199" xMin="105" yMin="-503" xMax="1059" yMax="1234">
      <component glyphName="glyph00163" x="0" y="0" flags="0x204"/>
      <component glyphName="uni0ABC" x="780" y="-109" flags="0x4"/>
    </TTGlyph>
    <TTGlyph name="glyph00200" xMin="37" yMin="-20" xMax="1029" yMax="1234">
      <contour>
        <pt x="65" y="635" on="1"/>
        <pt x="351" y="714" on="1"/>
        <pt x="293" y="766" on="0"/>
        <pt x="235" y="883" on="0"/>
        <pt x="235" y="947" on="1"/>
        <pt x="235" y="1075" on="0"/>
        <pt x="431" y="1234" on="0"/>
        <pt x="593" y="1234" on="1"/>
        <pt x="721" y="1234" on="0"/>
        <pt x="831" y="1207" on="1"/>
        <pt x="801" y="1058" on="1"/>
        <pt x="733" y="1075" on="0"/>
        <pt x="656" y="1084" on="0"/>
        <pt x="610" y="1084" on="1"/>
        <pt x="511" y="1084" on="0"/>
        <pt x="403" y="1005" on="0"/>
        <pt x="403" y="932" on="1"/>
        <pt x="403" y="887" on="0"/>
        <pt x="461" y="802" on="0"/>
        <pt x="519" y="762" on="1"/>
        <pt x="975" y="900" on="1"/>
        <pt x="1029" y="755" on="1"/>
        <pt x="679" y="662" on="1"/>
        <pt x="825" y="571" on="0"/>
        <pt x="953" y="397" on="0"/>
        <pt x="953" y="291" on="1"/>
        <pt x="953" y="151" on="0"/>
        <pt x="742" y="-20" on="0"/>
        <pt x="545" y="-20" on="1"/>
        <pt x="260" y="-20" on="0"/>
        <pt x="37" y="149" on="1"/>
        <pt x="129" y="277" on="1"/>
        <pt x="322" y="130" on="0"/>
        <pt x="537" y="130" on="1"/>
        <pt x="785" y="130" on="0"/>
        <pt x="785" y="294" on="1"/>
        <pt x="785" y="359" on="0"/>
        <pt x="693" y="473" on="0"/>
        <pt x="608" y="533" on="1"/>
        <pt x="383" y="230" on="1"/>
        <pt x="250" y="317" on="1"/>
        <pt x="496" y="608" on="1"/>
        <pt x="495" y="608" on="0"/>
        <pt x="495" y="609" on="1"/>
        <pt x="494" y="609" on="1"/>
        <pt x="111" y="486" on="1"/>
      </contour>
      <contour>
        <pt x="669" y="1234" on="1"/>
      </contour>
      <contour>
        <pt x="578" y="0" on="1"/>
      </contour>
      <contour>
        <pt x="464" y="1234" on="1"/>
      </contour>
    </TTGlyph>
    <TTGlyph name="glyph00201" xMin="13" yMin="-20" xMax="1511" yMax="1234">
      <contour>
        <pt x="13" y="1063" on="1"/>
        <pt x="29" y="1212" on="1"/>
        <pt x="50" y="1212" on="1"/>
        <pt x="139" y="1212" on="0"/>
        <pt x="253" y="1173" on="0"/>
        <pt x="321" y="1107" on="0"/>
        <pt x="354" y="1006" on="0"/>
        <pt x="354" y="908" on="1"/>
        <pt x="354" y="719" on="1"/>
        <pt x="354" y="612" on="0"/>
        <pt x="397" y="519" on="0"/>
        <pt x="477" y="477" on="0"/>
        <pt x="537" y="477" on="1"/>
        <pt x="601" y="477" on="0"/>
        <pt x="680" y="530" on="0"/>
        <pt x="715" y="622" on="0"/>
        <pt x="715" y="719" on="1"/>
        <pt x="715" y="986" on="1"/>
        <pt x="879" y="964" on="1"/>
        <pt x="879" y="747" on="1"/>
        <pt x="918" y="684" on="0"/>
        <pt x="996" y="684" on="1"/>
        <pt x="1094" y="684" on="0"/>
        <pt x="1170" y="766" on="1"/>
        <pt x="1170" y="1234" on="1"/>
        <pt x="1334" y="1212" on="1"/>
        <pt x="1334" y="311" on="1"/>
        <pt x="1334" y="247" on="0"/>
        <pt x="1351" y="192" on="0"/>
        <pt x="1387" y="161" on="0"/>
        <pt x="1453" y="149" on="0"/>
        <pt x="1511" y="149" on="1"/>
        <pt x="1495" y="0" on="1"/>
        <pt x="1474" y="0" on="1"/>
        <pt x="1322" y="0" on="0"/>
        <pt x="1170" y="127" on="0"/>
        <pt x="1170" y="281" on="1"/>
        <pt x="717" y="-20" on="1"/>
        <pt x="615" y="122" on="1"/>
        <pt x="1170" y="451" on="1"/>
        <pt x="1170" y="585" on="1"/>
        <pt x="1098" y="536" on="0"/>
        <pt x="996" y="536" on="1"/>
        <pt x="916" y="536" on="0"/>
        <pt x="863" y="571" on="1"/>
        <pt x="831" y="455" on="0"/>
        <pt x="660" y="329" on="0"/>
        <pt x="535" y="329" on="1"/>
        <pt x="411" y="329" on="0"/>
        <pt x="262" y="424" on="0"/>
        <pt x="190" y="579" on="0"/>
        <pt x="190" y="719" on="1"/>
        <pt x="190" y="901" on="1"/>
        <pt x="190" y="980" on="0"/>
        <pt x="158" y="1040" on="0"/>
        <pt x="91" y="1063" on="0"/>
      </contour>
    </TTGlyph>
    <TTGlyph name="glyph00202" xMin="22" yMin="-20" xMax="1322" yMax="1234">
      <contour>
        <pt x="981" y="451" on="1"/>
        <pt x="981" y="1234" on="1"/>
        <pt x="1145" y="1212" on="1"/>
        <pt x="1145" y="311" on="1"/>
        <pt x="1145" y="247" on="0"/>
        <pt x="1162" y="192" on="0"/>
        <pt x="1198" y="161" on="0"/>
        <pt x="1264" y="149" on="0"/>
        <pt x="1322" y="149" on="1"/>
        <pt x="1306" y="0" on="1"/>
        <pt x="1285" y="0" on="1"/>
        <pt x="1133" y="0" on="0"/>
        <pt x="981" y="127" on="0"/>
        <pt x="981" y="281" on="1"/>
        <pt x="528" y="-20" on="1"/>
        <pt x="426" y="122" on="1"/>
      </contour>
      <contour>
        <pt x="22" y="620" on="1"/>
        <pt x="152" y="709" on="1"/>
        <pt x="217" y="608" on="0"/>
        <pt x="341" y="514" on="0"/>
        <pt x="422" y="514" on="1"/>
        <pt x="514" y="514" on="0"/>
        <pt x="613" y="653" on="0"/>
        <pt x="613" y="787" on="1"/>
        <pt x="613" y="936" on="0"/>
        <pt x="498" y="1086" on="0"/>
        <pt x="384" y="1086" on="1"/>
        <pt x="270" y="1086" on="0"/>
        <pt x="162" y="1030" on="1"/>
        <pt x="110" y="1168" on="1"/>
        <pt x="169" y="1198" on="0"/>
        <pt x="322" y="1234" on="0"/>
        <pt x="394" y="1234" on="1"/>
        <pt x="577" y="1234" on="0"/>
        <pt x="778" y="1003" on="0"/>
        <pt x="778" y="784" on="1"/>
        <pt x="778" y="576" on="0"/>
        <pt x="600" y="364" on="0"/>
        <pt x="430" y="364" on="1"/>
        <pt x="307" y="364" on="0"/>
        <pt x="106" y="492" on="0"/>
      </contour>
    </TTGlyph>
    <TTGlyph name="glyph00203" xMin="90" yMin="-96" xMax="1254" yMax="1234">
      <contour>
        <pt x="594" y="1067" on="1"/>
        <pt x="510" y="1086" on="0"/>
        <pt x="449" y="1086" on="1"/>
        <pt x="354" y="1086" on="0"/>
        <pt x="255" y="1022" on="0"/>
        <pt x="255" y="962" on="1"/>
        <pt x="255" y="869" on="0"/>
        <pt x="353" y="811" on="1"/>
        <pt x="430" y="841" on="0"/>
        <pt x="531" y="841" on="1"/>
        <pt x="580" y="841" on="0"/>
        <pt x="655" y="829" on="1"/>
        <pt x="631" y="683" on="1"/>
        <pt x="589" y="693" on="0"/>
        <pt x="527" y="693" on="1"/>
        <pt x="436" y="693" on="0"/>
        <pt x="335" y="614" on="0"/>
        <pt x="335" y="540" on="1"/>
        <pt x="335" y="458" on="0"/>
        <pt x="455" y="367" on="0"/>
        <pt x="561" y="367" on="1"/>
        <pt x="662" y="367" on="0"/>
        <pt x="834" y="443" on="0"/>
        <pt x="913" y="522" on="1"/>
        <pt x="913" y="1234" on="1"/>
        <pt x="1077" y="1212" on="1"/>
        <pt x="1077" y="311" on="1"/>
        <pt x="1077" y="247" on="0"/>
        <pt x="1094" y="192" on="0"/>
        <pt x="1130" y="161" on="0"/>
        <pt x="1196" y="149" on="0"/>
        <pt x="1254" y="149" on="1"/>
        <pt x="1238" y="0" on="1"/>
        <pt x="1217" y="0" on="1"/>
        <pt x="1103" y="0" on="0"/>
        <pt x="965" y="69" on="0"/>
        <pt x="913" y="192" on="0"/>
        <pt x="913" y="304" on="1"/>
        <pt x="913" y="340" on="1"/>
        <pt x="317" y="-96" on="1"/>
        <pt x="215" y="47" on="1"/>
        <pt x="524" y="233" on="1"/>
        <pt x="355" y="238" on="0"/>
        <pt x="170" y="401" on="0"/>
        <pt x="170" y="535" on="1"/>
        <pt x="170" y="649" on="0"/>
        <pt x="232" y="726" on="1"/>
        <pt x="90" y="830" on="0"/>
        <pt x="90" y="978" on="1"/>
        <pt x="90" y="1090" on="0"/>
        <pt x="274" y="1234" on="0"/>
        <pt x="431" y="1234" on="1"/>
        <pt x="532" y="1234" on="0"/>
        <pt x="622" y="1212" on="1"/>
      </contour>
    </TTGlyph>
    <TTGlyph name="glyph00204" xMin="19" yMin="-473" xMax="946" yMax="1234">
      <component glyphName="uni0A99" x="0" y="0" flags="0x204"/>
      <component glyphName="glyph00129" x="1012" y="0" flags="0x4"/>
    </TTGlyph>
    <TTGlyph name="glyph00205" xMin="64" yMin="-44" xMax="1336" yMax="1234">
      <contour>
        <pt x="119" y="1041" on="1"/>
        <pt x="64" y="1180" on="1"/>
        <pt x="118" y="1204" on="0"/>
        <pt x="260" y="1234" on="0"/>
        <pt x="329" y="1234" on="1"/>
        <pt x="516" y="1234" on="0"/>
        <pt x="721" y="1046" on="0"/>
        <pt x="721" y="877" on="1"/>
        <pt x="721" y="757" on="0"/>
        <pt x="566" y="563" on="0"/>
        <pt x="434" y="517" on="1"/>
        <pt x="518" y="416" on="0"/>
        <pt x="661" y="416" on="1"/>
        <pt x="753" y="416" on="0"/>
        <pt x="906" y="479" on="0"/>
        <pt x="995" y="570" on="1"/>
        <pt x="995" y="1234" on="1"/>
        <pt x="1159" y="1212" on="1"/>
        <pt x="1159" y="311" on="1"/>
        <pt x="1159" y="247" on="0"/>
        <pt x="1176" y="192" on="0"/>
        <pt x="1212" y="161" on="0"/>
        <pt x="1278" y="149" on="0"/>
        <pt x="1336" y="149" on="1"/>
        <pt x="1320" y="0" on="1"/>
        <pt x="1299" y="0" on="1"/>
        <pt x="1185" y="0" on="0"/>
        <pt x="1047" y="69" on="0"/>
        <pt x="995" y="192" on="0"/>
        <pt x="995" y="304" on="1"/>
        <pt x="995" y="381" on="1"/>
        <pt x="363" y="-44" on="1"/>
        <pt x="257" y="99" on="1"/>
        <pt x="601" y="284" on="1"/>
        <pt x="491" y="291" on="0"/>
        <pt x="324" y="391" on="0"/>
        <pt x="268" y="485" on="1"/>
        <pt x="240" y="485" on="1"/>
        <pt x="156" y="485" on="0"/>
        <pt x="71" y="546" on="0"/>
        <pt x="71" y="601" on="1"/>
        <pt x="71" y="707" on="0"/>
        <pt x="184" y="707" on="1"/>
        <pt x="277" y="707" on="0"/>
        <pt x="348" y="636" on="1"/>
        <pt x="444" y="666" on="0"/>
        <pt x="557" y="798" on="0"/>
        <pt x="557" y="880" on="1"/>
        <pt x="557" y="979" on="0"/>
        <pt x="443" y="1086" on="0"/>
        <pt x="323" y="1086" on="1"/>
        <pt x="276" y="1086" on="0"/>
        <pt x="162" y="1060" on="0"/>
      </contour>
    </TTGlyph>
    <TTGlyph name="glyph00206" xMin="90" yMin="-473" xMax="1436" yMax="1234">
      <component glyphName="uni0A9B" x="0" y="0" flags="0x204"/>
      <component glyphName="glyph00129" x="1221" y="0" flags="0x4"/>
    </TTGlyph>
    <TTGlyph name="glyph00207" xMin="67" yMin="-473" xMax="1801" yMax="1236">
      <component glyphName="uni0A9C" x="0" y="0" flags="0x200"/>
      <component glyphName="glyph00129" x="1594" y="0" flags="0x0"/>
    </TTGlyph>
    <TTGlyph name="glyph00208" xMin="22" yMin="-20" xMax="1344" yMax="1234">
      <contour>
        <pt x="933" y="1234" on="1"/>
        <pt x="1097" y="1212" on="1"/>
        <pt x="1097" y="824" on="1"/>
        <pt x="1216" y="788" on="0"/>
        <pt x="1344" y="592" on="0"/>
        <pt x="1344" y="446" on="1"/>
        <pt x="1344" y="311" on="0"/>
        <pt x="1227" y="91" on="0"/>
        <pt x="1100" y="-13" on="1"/>
        <pt x="986" y="113" on="1"/>
        <pt x="1090" y="191" on="0"/>
        <pt x="1179" y="345" on="0"/>
        <pt x="1179" y="452" on="1"/>
        <pt x="1179" y="567" on="0"/>
        <pt x="1060" y="698" on="0"/>
        <pt x="956" y="698" on="1"/>
        <pt x="876" y="698" on="0"/>
        <pt x="798" y="654" on="1"/>
        <pt x="815" y="574" on="0"/>
        <pt x="815" y="476" on="1"/>
        <pt x="815" y="232" on="0"/>
        <pt x="619" y="-20" on="0"/>
        <pt x="440" y="-20" on="1"/>
        <pt x="303" y="-20" on="0"/>
        <pt x="101" y="111" on="0"/>
        <pt x="22" y="236" on="1"/>
        <pt x="151" y="324" on="1"/>
        <pt x="231" y="205" on="0"/>
        <pt x="353" y="130" on="0"/>
        <pt x="436" y="130" on="1"/>
        <pt x="539" y="130" on="0"/>
        <pt x="647" y="307" on="0"/>
        <pt x="647" y="481" on="1"/>
        <pt x="647" y="531" on="0"/>
        <pt x="642" y="573" on="1"/>
        <pt x="312" y="347" on="1"/>
        <pt x="210" y="489" on="1"/>
        <pt x="606" y="719" on="1"/>
        <pt x="575" y="788" on="0"/>
        <pt x="465" y="858" on="0"/>
        <pt x="386" y="858" on="1"/>
        <pt x="322" y="858" on="0"/>
        <pt x="222" y="834" on="0"/>
        <pt x="159" y="803" on="1"/>
        <pt x="107" y="942" on="1"/>
        <pt x="171" y="972" on="0"/>
        <pt x="329" y="1007" on="0"/>
        <pt x="400" y="1007" on="1"/>
        <pt x="521" y="1007" on="0"/>
        <pt x="696" y="902" on="0"/>
        <pt x="750" y="798" on="1"/>
        <pt x="834" y="838" on="0"/>
        <pt x="933" y="843" on="1"/>
      </contour>
      <contour>
        <pt x="1012" y="0" on="1"/>
      </contour>
    </TTGlyph>
    <TTGlyph name="glyph00209" xMin="22" yMin="-20" xMax="1400" yMax="1234">
      <contour>
        <pt x="1059" y="281" on="1"/>
        <pt x="606" y="-20" on="1"/>
        <pt x="504" y="122" on="1"/>
        <pt x="1059" y="451" on="1"/>
        <pt x="1059" y="725" on="1"/>
        <pt x="977" y="679" on="0"/>
        <pt x="855" y="679" on="1"/>
        <pt x="804" y="679" on="0"/>
        <pt x="768" y="686" on="1"/>
        <pt x="748" y="525" on="0"/>
        <pt x="578" y="364" on="0"/>
        <pt x="427" y="364" on="1"/>
        <pt x="191" y="364" on="0"/>
        <pt x="22" y="620" on="1"/>
        <pt x="152" y="709" on="1"/>
        <pt x="217" y="608" on="0"/>
        <pt x="341" y="514" on="0"/>
        <pt x="422" y="514" on="1"/>
        <pt x="514" y="514" on="0"/>
        <pt x="613" y="653" on="0"/>
        <pt x="613" y="787" on="1"/>
        <pt x="613" y="936" on="0"/>
        <pt x="498" y="1086" on="0"/>
        <pt x="385" y="1086" on="1"/>
        <pt x="271" y="1086" on="0"/>
        <pt x="162" y="1030" on="1"/>
        <pt x="110" y="1168" on="1"/>
        <pt x="169" y="1198" on="0"/>
        <pt x="322" y="1234" on="0"/>
        <pt x="394" y="1234" on="1"/>
        <pt x="562" y="1234" on="0"/>
        <pt x="760" y="1032" on="0"/>
        <pt x="772" y="838" on="1"/>
        <pt x="804" y="828" on="0"/>
        <pt x="852" y="828" on="1"/>
        <pt x="978" y="828" on="0"/>
        <pt x="1059" y="899" on="1"/>
        <pt x="1059" y="1234" on="1"/>
        <pt x="1223" y="1212" on="1"/>
        <pt x="1223" y="311" on="1"/>
        <pt x="1223" y="247" on="0"/>
        <pt x="1240" y="192" on="0"/>
        <pt x="1276" y="161" on="0"/>
        <pt x="1342" y="149" on="0"/>
        <pt x="1400" y="149" on="1"/>
        <pt x="1384" y="0" on="1"/>
        <pt x="1363" y="0" on="1"/>
        <pt x="1211" y="0" on="0"/>
        <pt x="1059" y="127" on="0"/>
      </contour>
    </TTGlyph>
    <TTGlyph name="glyph00210" xMin="17" yMin="-473" xMax="924" yMax="1234">
      <component glyphName="uni0A9F" x="0" y="0" flags="0x204"/>
      <component glyphName="glyph00129" x="971" y="0" flags="0x4"/>
    </TTGlyph>
    <TTGlyph name="glyph00211" xMin="85" yMin="-473" xMax="994" yMax="1234">
      <component glyphName="uni0AA0" x="0" y="0" flags="0x204"/>
      <component glyphName="glyph00129" x="1039" y="0" flags="0x4"/>
    </TTGlyph>
    <TTGlyph name="glyph00212" xMin="19" yMin="-473" xMax="937" yMax="1234">
      <component glyphName="uni0AA1" x="0" y="0" flags="0x204"/>
      <component glyphName="glyph00129" x="1003" y="0" flags="0x4"/>
    </TTGlyph>
    <TTGlyph name="glyph00213" xMin="84" yMin="-473" xMax="1016" yMax="1234">
      <component glyphName="uni0AA2" x="0" y="0" flags="0x204"/>
      <component glyphName="glyph00129" x="1038" y="0" flags="0x4"/>
    </TTGlyph>
    <TTGlyph name="glyph00214" xMin="153" yMin="-291" xMax="1666" yMax="1234">
      <contour>
        <pt x="153" y="1234" on="1"/>
        <pt x="317" y="1212" on="1"/>
        <pt x="317" y="637" on="1"/>
        <pt x="317" y="529" on="0"/>
        <pt x="327" y="455" on="0"/>
        <pt x="370" y="396" on="0"/>
        <pt x="492" y="325" on="0"/>
        <pt x="651" y="258" on="1"/>
        <pt x="790" y="199" on="0"/>
        <pt x="922" y="98" on="0"/>
        <pt x="967" y="2" on="0"/>
        <pt x="967" y="-62" on="1"/>
        <pt x="967" y="-174" on="0"/>
        <pt x="870" y="-291" on="1"/>
        <pt x="737" y="-198" on="1"/>
        <pt x="764" y="-167" on="0"/>
        <pt x="794" y="-106" on="0"/>
        <pt x="794" y="-72" on="1"/>
        <pt x="794" y="-30" on="0"/>
        <pt x="750" y="34" on="0"/>
        <pt x="633" y="102" on="0"/>
        <pt x="523" y="148" on="1"/>
        <pt x="371" y="210" on="0"/>
        <pt x="231" y="295" on="0"/>
        <pt x="171" y="380" on="0"/>
        <pt x="153" y="471" on="0"/>
        <pt x="153" y="566" on="1"/>
      </contour>
      <contour>
        <pt x="1325" y="351" on="1"/>
        <pt x="1012" y="139" on="1"/>
        <pt x="910" y="281" on="1"/>
        <pt x="1325" y="524" on="1"/>
        <pt x="1325" y="1234" on="1"/>
        <pt x="1489" y="1212" on="1"/>
        <pt x="1489" y="311" on="1"/>
        <pt x="1489" y="247" on="0"/>
        <pt x="1506" y="192" on="0"/>
        <pt x="1542" y="161" on="0"/>
        <pt x="1608" y="149" on="0"/>
        <pt x="1666" y="149" on="1"/>
        <pt x="1650" y="0" on="1"/>
        <pt x="1629" y="0" on="1"/>
        <pt x="1515" y="0" on="0"/>
        <pt x="1377" y="69" on="0"/>
        <pt x="1325" y="192" on="0"/>
        <pt x="1325" y="304" on="1"/>
      </contour>
      <contour>
        <pt x="568" y="727" on="1"/>
        <pt x="632" y="646" on="0"/>
        <pt x="748" y="577" on="0"/>
        <pt x="812" y="577" on="1"/>
        <pt x="894" y="577" on="0"/>
        <pt x="972" y="700" on="0"/>
        <pt x="972" y="828" on="1"/>
        <pt x="972" y="959" on="0"/>
        <pt x="873" y="1089" on="0"/>
        <pt x="778" y="1089" on="1"/>
        <pt x="667" y="1089" on="0"/>
        <pt x="582" y="1042" on="1"/>
        <pt x="531" y="1176" on="1"/>
        <pt x="648" y="1234" on="0"/>
        <pt x="789" y="1234" on="1"/>
        <pt x="950" y="1234" on="0"/>
        <pt x="1136" y="1019" on="0"/>
        <pt x="1136" y="828" on="1"/>
        <pt x="1136" y="631" on="0"/>
        <pt x="974" y="430" on="0"/>
        <pt x="816" y="430" on="1"/>
        <pt x="717" y="430" on="0"/>
        <pt x="522" y="537" on="0"/>
        <pt x="445" y="635" on="1"/>
      </contour>
    </TTGlyph>
    <TTGlyph name="glyph00215" xMin="23" yMin="0" xMax="1175" yMax="1234">
      <contour>
        <pt x="834" y="630" on="1"/>
        <pt x="298" y="276" on="1"/>
        <pt x="196" y="419" on="1"/>
        <pt x="692" y="713" on="1"/>
        <pt x="622" y="815" on="0"/>
        <pt x="461" y="938" on="0"/>
        <pt x="337" y="938" on="1"/>
        <pt x="269" y="938" on="0"/>
        <pt x="154" y="906" on="0"/>
        <pt x="81" y="866" on="1"/>
        <pt x="23" y="1009" on="1"/>
        <pt x="93" y="1046" on="0"/>
        <pt x="255" y="1092" on="0"/>
        <pt x="329" y="1092" on="1"/>
        <pt x="483" y="1092" on="0"/>
        <pt x="683" y="963" on="0"/>
        <pt x="818" y="788" on="1"/>
        <pt x="834" y="797" on="1"/>
        <pt x="834" y="1234" on="1"/>
        <pt x="998" y="1212" on="1"/>
        <pt x="998" y="311" on="1"/>
        <pt x="998" y="247" on="0"/>
        <pt x="1015" y="192" on="0"/>
        <pt x="1051" y="161" on="0"/>
        <pt x="1117" y="149" on="0"/>
        <pt x="1175" y="149" on="1"/>
        <pt x="1159" y="0" on="1"/>
        <pt x="1138" y="0" on="1"/>
        <pt x="1024" y="0" on="0"/>
        <pt x="886" y="69" on="0"/>
        <pt x="834" y="192" on="0"/>
        <pt x="834" y="304" on="1"/>
      </contour>
    </TTGlyph>
    <TTGlyph name="glyph00216" xMin="86" yMin="-20" xMax="1263" yMax="1234">
      <contour>
        <pt x="922" y="412" on="1"/>
        <pt x="280" y="-20" on="1"/>
        <pt x="174" y="123" on="1"/>
        <pt x="525" y="312" on="1"/>
        <pt x="364" y="317" on="0"/>
        <pt x="148" y="484" on="0"/>
        <pt x="86" y="653" on="1"/>
        <pt x="293" y="709" on="0"/>
        <pt x="500" y="869" on="0"/>
        <pt x="500" y="976" on="1"/>
        <pt x="500" y="1032" on="0"/>
        <pt x="431" y="1096" on="0"/>
        <pt x="374" y="1096" on="1"/>
        <pt x="316" y="1096" on="0"/>
        <pt x="248" y="1045" on="0"/>
        <pt x="248" y="1002" on="1"/>
        <pt x="248" y="960" on="0"/>
        <pt x="292" y="905" on="0"/>
        <pt x="340" y="881" on="1"/>
        <pt x="245" y="770" on="1"/>
        <pt x="90" y="856" on="0"/>
        <pt x="90" y="1006" on="1"/>
        <pt x="90" y="1105" on="0"/>
        <pt x="244" y="1234" on="0"/>
        <pt x="373" y="1234" on="1"/>
        <pt x="509" y="1234" on="0"/>
        <pt x="660" y="1085" on="0"/>
        <pt x="660" y="971" on="1"/>
        <pt x="660" y="842" on="0"/>
        <pt x="485" y="647" on="0"/>
        <pt x="303" y="572" on="1"/>
        <pt x="384" y="447" on="0"/>
        <pt x="555" y="447" on="1"/>
        <pt x="661" y="447" on="0"/>
        <pt x="837" y="516" on="0"/>
        <pt x="922" y="599" on="1"/>
        <pt x="922" y="1234" on="1"/>
        <pt x="1086" y="1212" on="1"/>
        <pt x="1086" y="311" on="1"/>
        <pt x="1086" y="247" on="0"/>
        <pt x="1103" y="192" on="0"/>
        <pt x="1139" y="161" on="0"/>
        <pt x="1205" y="149" on="0"/>
        <pt x="1263" y="149" on="1"/>
        <pt x="1247" y="0" on="1"/>
        <pt x="1226" y="0" on="1"/>
        <pt x="1112" y="0" on="0"/>
        <pt x="974" y="69" on="0"/>
        <pt x="922" y="192" on="0"/>
        <pt x="922" y="304" on="1"/>
      </contour>
    </TTGlyph>
    <TTGlyph name="glyph00217" xMin="90" yMin="-224" xMax="1078" yMax="1235">
      <contour>
        <pt x="682" y="264" on="1"/>
        <pt x="677" y="285" on="0"/>
        <pt x="677" y="313" on="1"/>
        <pt x="677" y="365" on="0"/>
        <pt x="748" y="428" on="0"/>
        <pt x="805" y="428" on="1"/>
        <pt x="865" y="428" on="0"/>
        <pt x="934" y="358" on="0"/>
        <pt x="934" y="302" on="1"/>
        <pt x="934" y="234" on="0"/>
        <pt x="879" y="188" on="1"/>
        <pt x="1078" y="-110" on="1"/>
        <pt x="952" y="-185" on="1"/>
        <pt x="756" y="124" on="1"/>
        <pt x="261" y="-224" on="1"/>
        <pt x="159" y="-81" on="1"/>
        <pt x="314" y="8" on="1"/>
        <pt x="408" y="62" on="0"/>
        <pt x="488" y="103" on="1"/>
        <pt x="301" y="104" on="0"/>
        <pt x="90" y="295" on="0"/>
        <pt x="90" y="441" on="1"/>
        <pt x="90" y="531" on="0"/>
        <pt x="159" y="663" on="0"/>
        <pt x="282" y="764" on="0"/>
        <pt x="400" y="827" on="1"/>
        <pt x="518" y="890" on="0"/>
        <pt x="624" y="957" on="0"/>
        <pt x="660" y="1012" on="0"/>
        <pt x="660" y="1050" on="1"/>
        <pt x="660" y="1101" on="0"/>
        <pt x="611" y="1156" on="1"/>
        <pt x="747" y="1235" on="1"/>
        <pt x="830" y="1140" on="0"/>
        <pt x="830" y="1033" on="1"/>
        <pt x="830" y="970" on="0"/>
        <pt x="783" y="877" on="0"/>
        <pt x="674" y="789" on="0"/>
        <pt x="527" y="712" on="1"/>
        <pt x="407" y="649" on="0"/>
        <pt x="308" y="579" on="0"/>
        <pt x="258" y="495" on="0"/>
        <pt x="258" y="439" on="1"/>
        <pt x="258" y="345" on="0"/>
        <pt x="396" y="240" on="0"/>
        <pt x="520" y="240" on="1"/>
        <pt x="607" y="240" on="0"/>
      </contour>
      <contour>
        <pt x="660" y="1234" on="1"/>
      </contour>
      <contour>
        <pt x="932" y="0" on="1"/>
      </contour>
      <contour>
        <pt x="475" y="1234" on="1"/>
      </contour>
    </TTGlyph>
    <TTGlyph name="glyph00218" xMin="90" yMin="-96" xMax="1224" yMax="1324">
      <contour>
        <pt x="883" y="326" on="1"/>
        <pt x="306" y="-96" on="1"/>
        <pt x="204" y="47" on="1"/>
        <pt x="513" y="233" on="1"/>
        <pt x="356" y="238" on="0"/>
        <pt x="170" y="405" on="0"/>
        <pt x="170" y="535" on="1"/>
        <pt x="170" y="651" on="0"/>
        <pt x="233" y="727" on="1"/>
        <pt x="90" y="835" on="0"/>
        <pt x="90" y="985" on="1"/>
        <pt x="90" y="1100" on="0"/>
        <pt x="256" y="1273" on="0"/>
        <pt x="421" y="1324" on="1"/>
        <pt x="481" y="1176" on="1"/>
        <pt x="372" y="1146" on="0"/>
        <pt x="255" y="1046" on="0"/>
        <pt x="255" y="970" on="1"/>
        <pt x="255" y="871" on="0"/>
        <pt x="352" y="811" on="1"/>
        <pt x="429" y="841" on="0"/>
        <pt x="531" y="841" on="1"/>
        <pt x="580" y="841" on="0"/>
        <pt x="655" y="829" on="1"/>
        <pt x="631" y="683" on="1"/>
        <pt x="589" y="693" on="0"/>
        <pt x="527" y="693" on="1"/>
        <pt x="436" y="693" on="0"/>
        <pt x="335" y="614" on="0"/>
        <pt x="335" y="540" on="1"/>
        <pt x="335" y="458" on="0"/>
        <pt x="454" y="367" on="0"/>
        <pt x="559" y="367" on="1"/>
        <pt x="652" y="367" on="0"/>
        <pt x="804" y="426" on="0"/>
        <pt x="883" y="500" on="1"/>
        <pt x="883" y="1234" on="1"/>
        <pt x="1047" y="1212" on="1"/>
        <pt x="1047" y="311" on="1"/>
        <pt x="1047" y="247" on="0"/>
        <pt x="1064" y="192" on="0"/>
        <pt x="1100" y="161" on="0"/>
        <pt x="1166" y="149" on="0"/>
        <pt x="1224" y="149" on="1"/>
        <pt x="1208" y="0" on="1"/>
        <pt x="1187" y="0" on="1"/>
        <pt x="1073" y="0" on="0"/>
        <pt x="935" y="69" on="0"/>
        <pt x="883" y="192" on="0"/>
        <pt x="883" y="304" on="1"/>
      </contour>
    </TTGlyph>
    <TTGlyph name="glyph00219" xMin="49" yMin="-20" xMax="1102" yMax="1234">
      <contour>
        <pt x="761" y="820" on="1"/>
        <pt x="761" y="1234" on="1"/>
        <pt x="925" y="1212" on="1"/>
        <pt x="925" y="311" on="1"/>
        <pt x="925" y="247" on="0"/>
        <pt x="942" y="192" on="0"/>
        <pt x="978" y="161" on="0"/>
        <pt x="1044" y="149" on="0"/>
        <pt x="1102" y="149" on="1"/>
        <pt x="1086" y="0" on="1"/>
        <pt x="1065" y="0" on="1"/>
        <pt x="913" y="0" on="0"/>
        <pt x="761" y="127" on="0"/>
        <pt x="761" y="281" on="1"/>
        <pt x="308" y="-20" on="1"/>
        <pt x="206" y="122" on="1"/>
        <pt x="761" y="451" on="1"/>
        <pt x="761" y="672" on="1"/>
        <pt x="392" y="672" on="1"/>
        <pt x="392" y="555" on="1"/>
        <pt x="392" y="498" on="0"/>
        <pt x="336" y="438" on="0"/>
        <pt x="287" y="438" on="1"/>
        <pt x="239" y="438" on="0"/>
        <pt x="125" y="526" on="0"/>
        <pt x="49" y="656" on="0"/>
        <pt x="49" y="712" on="1"/>
        <pt x="49" y="820" on="0"/>
        <pt x="173" y="820" on="1"/>
      </contour>
    </TTGlyph>
    <TTGlyph name="glyph00220" xMin="13" yMin="-20" xMax="1146" yMax="1234">
      <contour>
        <pt x="354" y="732" on="1"/>
        <pt x="354" y="587" on="0"/>
        <pt x="447" y="477" on="0"/>
        <pt x="558" y="477" on="1"/>
        <pt x="620" y="477" on="0"/>
        <pt x="749" y="533" on="0"/>
        <pt x="805" y="585" on="1"/>
        <pt x="805" y="1234" on="1"/>
        <pt x="969" y="1212" on="1"/>
        <pt x="969" y="311" on="1"/>
        <pt x="969" y="247" on="0"/>
        <pt x="986" y="192" on="0"/>
        <pt x="1022" y="161" on="0"/>
        <pt x="1088" y="149" on="0"/>
        <pt x="1146" y="149" on="1"/>
        <pt x="1130" y="0" on="1"/>
        <pt x="1109" y="0" on="1"/>
        <pt x="995" y="0" on="0"/>
        <pt x="857" y="69" on="0"/>
        <pt x="805" y="192" on="0"/>
        <pt x="805" y="304" on="1"/>
        <pt x="805" y="413" on="1"/>
        <pt x="206" y="-20" on="1"/>
        <pt x="104" y="123" on="1"/>
        <pt x="472" y="344" on="1"/>
        <pt x="365" y="352" on="0"/>
        <pt x="239" y="466" on="0"/>
        <pt x="190" y="608" on="0"/>
        <pt x="190" y="717" on="1"/>
        <pt x="190" y="901" on="1"/>
        <pt x="190" y="980" on="0"/>
        <pt x="158" y="1040" on="0"/>
        <pt x="91" y="1063" on="0"/>
        <pt x="13" y="1063" on="1"/>
        <pt x="29" y="1212" on="1"/>
        <pt x="50" y="1212" on="1"/>
        <pt x="139" y="1212" on="0"/>
        <pt x="253" y="1173" on="0"/>
        <pt x="321" y="1107" on="0"/>
        <pt x="354" y="1006" on="0"/>
        <pt x="354" y="908" on="1"/>
      </contour>
    </TTGlyph>
    <TTGlyph name="glyph00221" xMin="65" yMin="-323" xMax="1029" yMax="1234">
      <contour>
        <pt x="65" y="635" on="1"/>
        <pt x="352" y="714" on="1"/>
        <pt x="293" y="767" on="0"/>
        <pt x="235" y="884" on="0"/>
        <pt x="235" y="947" on="1"/>
        <pt x="235" y="1075" on="0"/>
        <pt x="431" y="1234" on="0"/>
        <pt x="593" y="1234" on="1"/>
        <pt x="721" y="1234" on="0"/>
        <pt x="831" y="1207" on="1"/>
        <pt x="801" y="1058" on="1"/>
        <pt x="733" y="1075" on="0"/>
        <pt x="656" y="1084" on="0"/>
        <pt x="610" y="1084" on="1"/>
        <pt x="511" y="1084" on="0"/>
        <pt x="403" y="1005" on="0"/>
        <pt x="403" y="932" on="1"/>
        <pt x="403" y="887" on="0"/>
        <pt x="461" y="802" on="0"/>
        <pt x="519" y="762" on="1"/>
        <pt x="975" y="900" on="1"/>
        <pt x="1029" y="755" on="1"/>
        <pt x="679" y="662" on="1"/>
        <pt x="825" y="571" on="0"/>
        <pt x="953" y="397" on="0"/>
        <pt x="953" y="291" on="1"/>
        <pt x="953" y="153" on="0"/>
        <pt x="747" y="-20" on="0"/>
        <pt x="556" y="-20" on="1"/>
        <pt x="522" y="-20" on="0"/>
        <pt x="481" y="-18" on="1"/>
        <pt x="532" y="-78" on="0"/>
        <pt x="618" y="-142" on="0"/>
        <pt x="709" y="-169" on="0"/>
        <pt x="783" y="-169" on="1"/>
        <pt x="831" y="-169" on="1"/>
        <pt x="813" y="-323" on="1"/>
        <pt x="781" y="-323" on="1"/>
        <pt x="639" y="-323" on="0"/>
        <pt x="411" y="-180" on="0"/>
        <pt x="293" y="-6" on="1"/>
        <pt x="189" y="7" on="0"/>
        <pt x="89" y="90" on="0"/>
        <pt x="89" y="149" on="1"/>
        <pt x="89" y="194" on="0"/>
        <pt x="150" y="249" on="0"/>
        <pt x="197" y="249" on="1"/>
        <pt x="252" y="249" on="0"/>
        <pt x="345" y="192" on="0"/>
        <pt x="390" y="139" on="1"/>
        <pt x="455" y="125" on="0"/>
        <pt x="551" y="125" on="1"/>
        <pt x="664" y="125" on="0"/>
        <pt x="785" y="212" on="0"/>
        <pt x="785" y="294" on="1"/>
        <pt x="785" y="359" on="0"/>
        <pt x="693" y="473" on="0"/>
        <pt x="608" y="533" on="1"/>
        <pt x="402" y="256" on="1"/>
        <pt x="269" y="343" on="1"/>
        <pt x="495" y="608" on="1"/>
        <pt x="495" y="609" on="1"/>
        <pt x="494" y="609" on="1"/>
        <pt x="111" y="486" on="1"/>
      </contour>
      <contour>
        <pt x="669" y="1234" on="1"/>
      </contour>
      <contour>
        <pt x="464" y="1234" on="1"/>
      </contour>
    </TTGlyph>
    <TTGlyph name="glyph00222" xMin="90" yMin="-20" xMax="1487" yMax="1234">
      <contour>
        <pt x="531" y="1234" on="1"/>
        <pt x="578" y="1085" on="1"/>
        <pt x="258" y="989" on="0"/>
        <pt x="258" y="722" on="1"/>
        <pt x="258" y="594" on="0"/>
        <pt x="379" y="457" on="0"/>
        <pt x="480" y="457" on="1"/>
        <pt x="557" y="457" on="0"/>
        <pt x="655" y="526" on="0"/>
        <pt x="691" y="645" on="0"/>
        <pt x="691" y="755" on="1"/>
        <pt x="691" y="916" on="1"/>
        <pt x="855" y="894" on="1"/>
        <pt x="855" y="677" on="1"/>
        <pt x="894" y="614" on="0"/>
        <pt x="972" y="614" on="1"/>
        <pt x="1070" y="614" on="0"/>
        <pt x="1146" y="696" on="1"/>
        <pt x="1146" y="1234" on="1"/>
        <pt x="1310" y="1212" on="1"/>
        <pt x="1310" y="311" on="1"/>
        <pt x="1310" y="247" on="0"/>
        <pt x="1327" y="192" on="0"/>
        <pt x="1363" y="161" on="0"/>
        <pt x="1429" y="149" on="0"/>
        <pt x="1487" y="149" on="1"/>
        <pt x="1471" y="0" on="1"/>
        <pt x="1450" y="0" on="1"/>
        <pt x="1298" y="0" on="0"/>
        <pt x="1146" y="127" on="0"/>
        <pt x="1146" y="281" on="1"/>
        <pt x="693" y="-20" on="1"/>
        <pt x="591" y="122" on="1"/>
        <pt x="1146" y="445" on="1"/>
        <pt x="1146" y="515" on="1"/>
        <pt x="1074" y="466" on="0"/>
        <pt x="972" y="466" on="1"/>
        <pt x="879" y="466" on="0"/>
        <pt x="822" y="513" on="1"/>
        <pt x="781" y="412" on="0"/>
        <pt x="603" y="309" on="0"/>
        <pt x="477" y="309" on="1"/>
        <pt x="303" y="309" on="0"/>
        <pt x="90" y="537" on="0"/>
        <pt x="90" y="725" on="1"/>
        <pt x="90" y="908" on="0"/>
        <pt x="311" y="1165" on="0"/>
      </contour>
    </TTGlyph>
    <TTGlyph name="glyph00223" xMin="93" yMin="-20" xMax="1639" yMax="1234">
      <contour>
        <pt x="593" y="211" on="1"/>
        <pt x="479" y="100" on="1"/>
        <pt x="271" y="283" on="0"/>
        <pt x="93" y="604" on="0"/>
        <pt x="93" y="786" on="1"/>
        <pt x="93" y="986" on="0"/>
        <pt x="330" y="1234" on="0"/>
        <pt x="522" y="1234" on="1"/>
        <pt x="653" y="1234" on="0"/>
        <pt x="833" y="1123" on="0"/>
        <pt x="920" y="929" on="0"/>
        <pt x="920" y="773" on="1"/>
        <pt x="920" y="748" on="1"/>
        <pt x="1298" y="748" on="1"/>
        <pt x="1298" y="1234" on="1"/>
        <pt x="1462" y="1212" on="1"/>
        <pt x="1462" y="311" on="1"/>
        <pt x="1462" y="247" on="0"/>
        <pt x="1479" y="192" on="0"/>
        <pt x="1515" y="161" on="0"/>
        <pt x="1581" y="149" on="0"/>
        <pt x="1639" y="149" on="1"/>
        <pt x="1623" y="0" on="1"/>
        <pt x="1602" y="0" on="1"/>
        <pt x="1450" y="0" on="0"/>
        <pt x="1298" y="127" on="0"/>
        <pt x="1298" y="281" on="1"/>
        <pt x="845" y="-20" on="1"/>
        <pt x="743" y="122" on="1"/>
        <pt x="1298" y="451" on="1"/>
        <pt x="1298" y="600" on="1"/>
        <pt x="920" y="600" on="1"/>
        <pt x="920" y="522" on="1"/>
        <pt x="920" y="462" on="0"/>
        <pt x="866" y="394" on="0"/>
        <pt x="821" y="394" on="1"/>
        <pt x="773" y="394" on="0"/>
        <pt x="655" y="481" on="0"/>
        <pt x="576" y="608" on="0"/>
        <pt x="576" y="658" on="1"/>
        <pt x="576" y="701" on="0"/>
        <pt x="640" y="748" on="0"/>
        <pt x="701" y="748" on="1"/>
        <pt x="756" y="748" on="1"/>
        <pt x="756" y="761" on="1"/>
        <pt x="756" y="879" on="0"/>
        <pt x="711" y="1012" on="0"/>
        <pt x="608" y="1086" on="0"/>
        <pt x="523" y="1086" on="1"/>
        <pt x="397" y="1086" on="0"/>
        <pt x="258" y="918" on="0"/>
        <pt x="258" y="783" on="1"/>
        <pt x="258" y="636" on="0"/>
        <pt x="407" y="372" on="0"/>
      </contour>
    </TTGlyph>
    <TTGlyph name="glyph00224" xMin="88" yMin="-20" xMax="1201" yMax="1234">
      <contour>
        <pt x="432" y="673" on="1"/>
        <pt x="860" y="673" on="1"/>
        <pt x="860" y="1234" on="1"/>
        <pt x="1024" y="1212" on="1"/>
        <pt x="1024" y="311" on="1"/>
        <pt x="1024" y="247" on="0"/>
        <pt x="1041" y="192" on="0"/>
        <pt x="1077" y="161" on="0"/>
        <pt x="1143" y="149" on="0"/>
        <pt x="1201" y="149" on="1"/>
        <pt x="1185" y="0" on="1"/>
        <pt x="1164" y="0" on="1"/>
        <pt x="1012" y="0" on="0"/>
        <pt x="860" y="127" on="0"/>
        <pt x="860" y="281" on="1"/>
        <pt x="407" y="-20" on="1"/>
        <pt x="305" y="122" on="1"/>
        <pt x="860" y="451" on="1"/>
        <pt x="860" y="525" on="1"/>
        <pt x="432" y="525" on="1"/>
        <pt x="432" y="447" on="1"/>
        <pt x="432" y="387" on="0"/>
        <pt x="378" y="319" on="0"/>
        <pt x="333" y="319" on="1"/>
        <pt x="285" y="319" on="0"/>
        <pt x="167" y="406" on="0"/>
        <pt x="88" y="533" on="0"/>
        <pt x="88" y="583" on="1"/>
        <pt x="88" y="626" on="0"/>
        <pt x="152" y="673" on="0"/>
        <pt x="213" y="673" on="1"/>
        <pt x="268" y="673" on="1"/>
        <pt x="268" y="902" on="1"/>
        <pt x="268" y="981" on="0"/>
        <pt x="236" y="1041" on="0"/>
        <pt x="169" y="1064" on="0"/>
        <pt x="91" y="1064" on="1"/>
        <pt x="107" y="1213" on="1"/>
        <pt x="128" y="1213" on="1"/>
        <pt x="217" y="1213" on="0"/>
        <pt x="331" y="1174" on="0"/>
        <pt x="399" y="1108" on="0"/>
        <pt x="432" y="1007" on="0"/>
        <pt x="432" y="909" on="1"/>
      </contour>
    </TTGlyph>
    <TTGlyph name="glyph00225" xMin="29" yMin="-20" xMax="1200" yMax="1234">
      <contour>
        <pt x="859" y="430" on="1"/>
        <pt x="234" y="-20" on="1"/>
        <pt x="132" y="123" on="1"/>
        <pt x="500" y="344" on="1"/>
        <pt x="353" y="351" on="0"/>
        <pt x="148" y="521" on="0"/>
        <pt x="89" y="683" on="1"/>
        <pt x="357" y="758" on="0"/>
        <pt x="357" y="924" on="1"/>
        <pt x="357" y="999" on="0"/>
        <pt x="256" y="1088" on="0"/>
        <pt x="170" y="1088" on="1"/>
        <pt x="115" y="1088" on="0"/>
        <pt x="66" y="1077" on="1"/>
        <pt x="29" y="1217" on="1"/>
        <pt x="107" y="1234" on="0"/>
        <pt x="181" y="1234" on="1"/>
        <pt x="341" y="1234" on="0"/>
        <pt x="522" y="1068" on="0"/>
        <pt x="522" y="926" on="1"/>
        <pt x="522" y="721" on="0"/>
        <pt x="299" y="613" on="1"/>
        <pt x="335" y="549" on="0"/>
        <pt x="469" y="477" on="0"/>
        <pt x="550" y="477" on="1"/>
        <pt x="728" y="477" on="0"/>
        <pt x="859" y="611" on="1"/>
        <pt x="859" y="1234" on="1"/>
        <pt x="1023" y="1212" on="1"/>
        <pt x="1023" y="311" on="1"/>
        <pt x="1023" y="247" on="0"/>
        <pt x="1040" y="192" on="0"/>
        <pt x="1076" y="161" on="0"/>
        <pt x="1142" y="149" on="0"/>
        <pt x="1200" y="149" on="1"/>
        <pt x="1184" y="0" on="1"/>
        <pt x="1163" y="0" on="1"/>
        <pt x="1049" y="0" on="0"/>
        <pt x="911" y="69" on="0"/>
        <pt x="859" y="192" on="0"/>
        <pt x="859" y="304" on="1"/>
      </contour>
    </TTGlyph>
    <TTGlyph name="glyph00226" xMin="12" yMin="-473" xMax="900" yMax="1234">
      <component glyphName="uni0AB0" x="0" y="0" flags="0x204"/>
      <component glyphName="glyph00129" x="966" y="0" flags="0x4"/>
    </TTGlyph>
    <TTGlyph name="glyph00227" xMin="90" yMin="-20" xMax="1317" yMax="1234">
      <contour>
        <pt x="653" y="1082" on="1"/>
        <pt x="450" y="1042" on="0"/>
        <pt x="258" y="857" on="0"/>
        <pt x="258" y="703" on="1"/>
        <pt x="258" y="562" on="0"/>
        <pt x="425" y="406" on="0"/>
        <pt x="565" y="406" on="1"/>
        <pt x="638" y="406" on="0"/>
        <pt x="704" y="422" on="1"/>
        <pt x="742" y="312" on="1"/>
        <pt x="976" y="451" on="1"/>
        <pt x="976" y="720" on="1"/>
        <pt x="500" y="622" on="1"/>
        <pt x="462" y="773" on="1"/>
        <pt x="976" y="876" on="1"/>
        <pt x="976" y="1234" on="1"/>
        <pt x="1140" y="1212" on="1"/>
        <pt x="1140" y="311" on="1"/>
        <pt x="1140" y="247" on="0"/>
        <pt x="1157" y="192" on="0"/>
        <pt x="1193" y="161" on="0"/>
        <pt x="1259" y="149" on="0"/>
        <pt x="1317" y="149" on="1"/>
        <pt x="1301" y="0" on="1"/>
        <pt x="1280" y="0" on="1"/>
        <pt x="1128" y="0" on="0"/>
        <pt x="976" y="127" on="0"/>
        <pt x="976" y="281" on="1"/>
        <pt x="523" y="-20" on="1"/>
        <pt x="421" y="122" on="1"/>
        <pt x="663" y="265" on="1"/>
        <pt x="626" y="258" on="0"/>
        <pt x="572" y="258" on="1"/>
        <pt x="348" y="258" on="0"/>
        <pt x="90" y="507" on="0"/>
        <pt x="90" y="720" on="1"/>
        <pt x="90" y="911" on="0"/>
        <pt x="360" y="1182" on="0"/>
        <pt x="612" y="1234" on="1"/>
      </contour>
    </TTGlyph>
    <TTGlyph name="glyph00228" xMin="90" yMin="-20" xMax="1519" yMax="1234">
      <contour>
        <pt x="718" y="837" on="1"/>
        <pt x="718" y="983" on="0"/>
        <pt x="785" y="1125" on="0"/>
        <pt x="927" y="1212" on="0"/>
        <pt x="1031" y="1212" on="1"/>
        <pt x="1131" y="1212" on="0"/>
        <pt x="1269" y="1130" on="0"/>
        <pt x="1342" y="991" on="0"/>
        <pt x="1342" y="865" on="1"/>
        <pt x="1342" y="311" on="1"/>
        <pt x="1342" y="247" on="0"/>
        <pt x="1359" y="192" on="0"/>
        <pt x="1395" y="161" on="0"/>
        <pt x="1461" y="149" on="0"/>
        <pt x="1519" y="149" on="1"/>
        <pt x="1503" y="0" on="1"/>
        <pt x="1482" y="0" on="1"/>
        <pt x="1330" y="0" on="0"/>
        <pt x="1178" y="127" on="0"/>
        <pt x="1178" y="281" on="1"/>
        <pt x="725" y="-20" on="1"/>
        <pt x="623" y="122" on="1"/>
        <pt x="1178" y="451" on="1"/>
        <pt x="1178" y="813" on="1"/>
        <pt x="1178" y="901" on="0"/>
        <pt x="1158" y="1005" on="0"/>
        <pt x="1085" y="1067" on="0"/>
        <pt x="1031" y="1067" on="1"/>
        <pt x="975" y="1067" on="0"/>
        <pt x="903" y="1005" on="0"/>
        <pt x="882" y="907" on="0"/>
        <pt x="882" y="814" on="1"/>
        <pt x="882" y="767" on="1"/>
        <pt x="882" y="647" on="0"/>
        <pt x="851" y="484" on="0"/>
        <pt x="762" y="360" on="0"/>
        <pt x="609" y="289" on="0"/>
        <pt x="496" y="289" on="1"/>
        <pt x="314" y="289" on="0"/>
        <pt x="90" y="524" on="0"/>
        <pt x="90" y="724" on="1"/>
        <pt x="90" y="903" on="0"/>
        <pt x="312" y="1164" on="0"/>
        <pt x="531" y="1234" on="1"/>
        <pt x="578" y="1085" on="1"/>
        <pt x="422" y="1034" on="0"/>
        <pt x="258" y="853" on="0"/>
        <pt x="258" y="717" on="1"/>
        <pt x="258" y="581" on="0"/>
        <pt x="383" y="436" on="0"/>
        <pt x="494" y="436" on="1"/>
        <pt x="556" y="436" on="0"/>
        <pt x="639" y="471" on="0"/>
        <pt x="693" y="535" on="0"/>
        <pt x="718" y="632" on="0"/>
        <pt x="718" y="730" on="1"/>
      </contour>
      <contour>
        <pt x="1043" y="1234" on="1"/>
      </contour>
    </TTGlyph>
    <TTGlyph name="glyph00229" xMin="90" yMin="-20" xMax="1166" yMax="1234">
      <contour>
        <pt x="825" y="436" on="1"/>
        <pt x="240" y="-20" on="1"/>
        <pt x="130" y="114" on="1"/>
        <pt x="464" y="339" on="1"/>
        <pt x="292" y="347" on="0"/>
        <pt x="90" y="547" on="0"/>
        <pt x="90" y="706" on="1"/>
        <pt x="90" y="889" on="0"/>
        <pt x="336" y="1105" on="0"/>
        <pt x="539" y="1105" on="1"/>
        <pt x="582" y="1105" on="0"/>
        <pt x="697" y="1092" on="0"/>
        <pt x="736" y="1082" on="1"/>
        <pt x="709" y="937" on="1"/>
        <pt x="620" y="955" on="0"/>
        <pt x="545" y="955" on="1"/>
        <pt x="407" y="955" on="0"/>
        <pt x="255" y="826" on="0"/>
        <pt x="255" y="709" on="1"/>
        <pt x="255" y="600" on="0"/>
        <pt x="385" y="477" on="0"/>
        <pt x="497" y="477" on="1"/>
        <pt x="588" y="477" on="0"/>
        <pt x="740" y="539" on="0"/>
        <pt x="825" y="625" on="1"/>
        <pt x="825" y="1234" on="1"/>
        <pt x="989" y="1212" on="1"/>
        <pt x="989" y="311" on="1"/>
        <pt x="989" y="247" on="0"/>
        <pt x="1006" y="192" on="0"/>
        <pt x="1042" y="161" on="0"/>
        <pt x="1108" y="149" on="0"/>
        <pt x="1166" y="149" on="1"/>
        <pt x="1150" y="0" on="1"/>
        <pt x="1129" y="0" on="1"/>
        <pt x="1015" y="0" on="0"/>
        <pt x="877" y="69" on="0"/>
        <pt x="825" y="192" on="0"/>
        <pt x="825" y="304" on="1"/>
      </contour>
    </TTGlyph>
    <TTGlyph name="glyph00230" xMin="26" yMin="0" xMax="1446" yMax="1234">
      <contour>
        <pt x="1105" y="429" on="1"/>
        <pt x="578" y="78" on="1"/>
        <pt x="476" y="220" on="1"/>
        <pt x="829" y="428" on="1"/>
        <pt x="872" y="453" on="0"/>
        <pt x="933" y="482" on="1"/>
        <pt x="819" y="506" on="0"/>
        <pt x="617" y="563" on="0"/>
        <pt x="530" y="597" on="1"/>
        <pt x="397" y="504" on="0"/>
        <pt x="123" y="334" on="1"/>
        <pt x="26" y="479" on="1"/>
        <pt x="196" y="571" on="0"/>
        <pt x="363" y="670" on="1"/>
        <pt x="263" y="723" on="0"/>
        <pt x="158" y="877" on="0"/>
        <pt x="158" y="970" on="1"/>
        <pt x="158" y="1079" on="0"/>
        <pt x="331" y="1234" on="0"/>
        <pt x="470" y="1234" on="1"/>
        <pt x="624" y="1234" on="0"/>
        <pt x="796" y="1086" on="0"/>
        <pt x="796" y="962" on="1"/>
        <pt x="796" y="887" on="0"/>
        <pt x="725" y="763" on="0"/>
        <pt x="652" y="704" on="1"/>
        <pt x="739" y="677" on="0"/>
        <pt x="966" y="620" on="0"/>
        <pt x="1105" y="590" on="1"/>
        <pt x="1105" y="1234" on="1"/>
        <pt x="1269" y="1212" on="1"/>
        <pt x="1269" y="311" on="1"/>
        <pt x="1269" y="247" on="0"/>
        <pt x="1286" y="192" on="0"/>
        <pt x="1322" y="161" on="0"/>
        <pt x="1388" y="149" on="0"/>
        <pt x="1446" y="149" on="1"/>
        <pt x="1430" y="0" on="1"/>
        <pt x="1409" y="0" on="1"/>
        <pt x="1295" y="0" on="0"/>
        <pt x="1157" y="69" on="0"/>
        <pt x="1105" y="192" on="0"/>
        <pt x="1105" y="304" on="1"/>
      </contour>
      <contour>
        <pt x="496" y="761" on="1"/>
        <pt x="567" y="812" on="0"/>
        <pt x="634" y="904" on="0"/>
        <pt x="634" y="959" on="1"/>
        <pt x="634" y="1019" on="0"/>
        <pt x="553" y="1091" on="0"/>
        <pt x="478" y="1091" on="1"/>
        <pt x="409" y="1091" on="0"/>
        <pt x="322" y="1018" on="0"/>
        <pt x="322" y="957" on="1"/>
        <pt x="322" y="895" on="0"/>
        <pt x="407" y="801" on="0"/>
      </contour>
    </TTGlyph>
    <TTGlyph name="glyph00231" xMin="13" yMin="-20" xMax="1166" yMax="1234">
      <contour>
        <pt x="825" y="430" on="1"/>
        <pt x="204" y="-20" on="1"/>
        <pt x="102" y="123" on="1"/>
        <pt x="470" y="344" on="1"/>
        <pt x="388" y="354" on="0"/>
        <pt x="260" y="440" on="0"/>
        <pt x="190" y="584" on="0"/>
        <pt x="190" y="717" on="1"/>
        <pt x="190" y="929" on="1"/>
        <pt x="190" y="991" on="0"/>
        <pt x="158" y="1043" on="0"/>
        <pt x="92" y="1063" on="0"/>
        <pt x="13" y="1063" on="1"/>
        <pt x="29" y="1212" on="1"/>
        <pt x="50" y="1212" on="1"/>
        <pt x="202" y="1212" on="0"/>
        <pt x="276" y="1150" on="1"/>
        <pt x="697" y="839" on="1"/>
        <pt x="751" y="799" on="0"/>
        <pt x="825" y="737" on="1"/>
        <pt x="825" y="1234" on="1"/>
        <pt x="989" y="1212" on="1"/>
        <pt x="989" y="311" on="1"/>
        <pt x="989" y="247" on="0"/>
        <pt x="1006" y="192" on="0"/>
        <pt x="1042" y="161" on="0"/>
        <pt x="1108" y="149" on="0"/>
        <pt x="1166" y="149" on="1"/>
        <pt x="1150" y="0" on="1"/>
        <pt x="1129" y="0" on="1"/>
        <pt x="1015" y="0" on="0"/>
        <pt x="877" y="69" on="0"/>
        <pt x="825" y="192" on="0"/>
        <pt x="825" y="304" on="1"/>
      </contour>
      <contour>
        <pt x="354" y="732" on="1"/>
        <pt x="354" y="587" on="0"/>
        <pt x="447" y="477" on="0"/>
        <pt x="558" y="477" on="1"/>
        <pt x="692" y="477" on="0"/>
        <pt x="818" y="586" on="1"/>
        <pt x="558" y="779" on="1"/>
        <pt x="428" y="876" on="0"/>
        <pt x="345" y="948" on="1"/>
        <pt x="354" y="897" on="0"/>
        <pt x="354" y="804" on="1"/>
      </contour>
    </TTGlyph>
    <TTGlyph name="glyph00232" xMin="63" yMin="0" xMax="1480" yMax="1234">
      <contour>
        <pt x="1139" y="481" on="1"/>
        <pt x="806" y="260" on="1"/>
        <pt x="708" y="398" on="1"/>
        <pt x="1139" y="647" on="1"/>
        <pt x="1139" y="701" on="1"/>
        <pt x="1045" y="645" on="0"/>
        <pt x="909" y="645" on="1"/>
        <pt x="820" y="645" on="0"/>
        <pt x="743" y="668" on="1"/>
        <pt x="702" y="585" on="0"/>
        <pt x="560" y="465" on="0"/>
        <pt x="460" y="429" on="1"/>
        <pt x="541" y="315" on="0"/>
        <pt x="661" y="200" on="0"/>
        <pt x="778" y="154" on="0"/>
        <pt x="855" y="154" on="1"/>
        <pt x="896" y="154" on="1"/>
        <pt x="878" y="0" on="1"/>
        <pt x="846" y="0" on="1"/>
        <pt x="692" y="0" on="0"/>
        <pt x="438" y="177" on="0"/>
        <pt x="306" y="396" on="1"/>
        <pt x="275" y="393" on="0"/>
        <pt x="244" y="393" on="1"/>
        <pt x="155" y="393" on="0"/>
        <pt x="63" y="451" on="0"/>
        <pt x="63" y="517" on="1"/>
        <pt x="63" y="564" on="0"/>
        <pt x="132" y="621" on="0"/>
        <pt x="187" y="621" on="1"/>
        <pt x="277" y="621" on="0"/>
        <pt x="350" y="565" on="1"/>
        <pt x="481" y="600" on="0"/>
        <pt x="614" y="745" on="0"/>
        <pt x="614" y="848" on="1"/>
        <pt x="614" y="961" on="0"/>
        <pt x="488" y="1084" on="0"/>
        <pt x="374" y="1084" on="1"/>
        <pt x="302" y="1084" on="0"/>
        <pt x="181" y="1054" on="0"/>
        <pt x="115" y="1021" on="1"/>
        <pt x="63" y="1162" on="1"/>
        <pt x="224" y="1234" on="0"/>
        <pt x="381" y="1234" on="1"/>
        <pt x="569" y="1234" on="0"/>
        <pt x="783" y="1031" on="0"/>
        <pt x="783" y="846" on="1"/>
        <pt x="783" y="831" on="0"/>
        <pt x="781" y="814" on="1"/>
        <pt x="834" y="794" on="0"/>
        <pt x="903" y="794" on="1"/>
        <pt x="1047" y="794" on="0"/>
        <pt x="1139" y="883" on="1"/>
        <pt x="1139" y="1234" on="1"/>
        <pt x="1303" y="1212" on="1"/>
        <pt x="1303" y="311" on="1"/>
        <pt x="1303" y="247" on="0"/>
        <pt x="1320" y="192" on="0"/>
        <pt x="1356" y="161" on="0"/>
        <pt x="1422" y="149" on="0"/>
        <pt x="1480" y="149" on="1"/>
        <pt x="1464" y="0" on="1"/>
        <pt x="1443" y="0" on="1"/>
        <pt x="1329" y="0" on="0"/>
        <pt x="1191" y="69" on="0"/>
        <pt x="1139" y="192" on="0"/>
        <pt x="1139" y="304" on="1"/>
      </contour>
    </TTGlyph>
    <TTGlyph name="glyph00233" xMin="105" yMin="-273" xMax="1191" yMax="1234">
      <contour>
        <pt x="763" y="1062" on="1"/>
        <pt x="680" y="1084" on="0"/>
        <pt x="594" y="1084" on="1"/>
        <pt x="488" y="1084" on="0"/>
        <pt x="375" y="1000" on="0"/>
        <pt x="375" y="923" on="1"/>
        <pt x="375" y="825" on="0"/>
        <pt x="463" y="757" on="1"/>
        <pt x="564" y="789" on="0"/>
        <pt x="681" y="789" on="1"/>
        <pt x="918" y="789" on="0"/>
        <pt x="1191" y="533" on="0"/>
        <pt x="1191" y="311" on="1"/>
        <pt x="1191" y="226" on="0"/>
        <pt x="1159" y="46" on="0"/>
        <pt x="1131" y="-20" on="1"/>
        <pt x="970" y="25" on="1"/>
        <pt x="1026" y="174" on="0"/>
        <pt x="1026" y="303" on="1"/>
        <pt x="1026" y="374" on="0"/>
        <pt x="1008" y="431" on="1"/>
        <pt x="555" y="127" on="1"/>
        <pt x="453" y="269" on="1"/>
        <pt x="933" y="553" on="1"/>
        <pt x="842" y="641" on="0"/>
        <pt x="671" y="641" on="1"/>
        <pt x="487" y="641" on="0"/>
        <pt x="273" y="445" on="0"/>
        <pt x="273" y="284" on="1"/>
        <pt x="273" y="144" on="0"/>
        <pt x="432" y="-65" on="0"/>
        <pt x="599" y="-139" on="1"/>
        <pt x="514" y="-273" on="1"/>
        <pt x="316" y="-182" on="0"/>
        <pt x="105" y="113" on="0"/>
        <pt x="105" y="291" on="1"/>
        <pt x="105" y="416" on="0"/>
        <pt x="214" y="622" on="0"/>
        <pt x="317" y="689" on="1"/>
        <pt x="210" y="792" on="0"/>
        <pt x="210" y="935" on="1"/>
        <pt x="210" y="1067" on="0"/>
        <pt x="409" y="1234" on="0"/>
        <pt x="586" y="1234" on="1"/>
        <pt x="701" y="1234" on="0"/>
        <pt x="793" y="1209" on="1"/>
      </contour>
      <contour>
        <pt x="696" y="1234" on="1"/>
      </contour>
      <contour>
        <pt x="491" y="1234" on="1"/>
      </contour>
    </TTGlyph>
    <TTGlyph name="glyph00234" xMin="95" yMin="-89" xMax="1532" yMax="1234">
      <contour>
        <pt x="1191" y="345" on="1"/>
        <pt x="932" y="163" on="1"/>
        <pt x="830" y="305" on="1"/>
        <pt x="1191" y="515" on="1"/>
        <pt x="1191" y="630" on="1"/>
        <pt x="1040" y="560" on="0"/>
        <pt x="800" y="560" on="1"/>
        <pt x="602" y="560" on="0"/>
        <pt x="459" y="623" on="1"/>
        <pt x="345" y="559" on="0"/>
        <pt x="263" y="460" on="0"/>
        <pt x="263" y="395" on="1"/>
        <pt x="263" y="318" on="0"/>
        <pt x="375" y="227" on="0"/>
        <pt x="477" y="227" on="1"/>
        <pt x="533" y="227" on="0"/>
        <pt x="554" y="235" on="1"/>
        <pt x="544" y="262" on="0"/>
        <pt x="544" y="288" on="1"/>
        <pt x="544" y="339" on="0"/>
        <pt x="607" y="399" on="0"/>
        <pt x="661" y="399" on="1"/>
        <pt x="716" y="399" on="0"/>
        <pt x="781" y="330" on="0"/>
        <pt x="781" y="280" on="1"/>
        <pt x="781" y="217" on="0"/>
        <pt x="743" y="170" on="1"/>
        <pt x="770" y="113" on="0"/>
        <pt x="855" y="58" on="0"/>
        <pt x="929" y="58" on="1"/>
        <pt x="946" y="58" on="1"/>
        <pt x="929" y="-89" on="1"/>
        <pt x="901" y="-89" on="1"/>
        <pt x="710" y="-89" on="0"/>
        <pt x="609" y="93" on="1"/>
        <pt x="552" y="79" on="0"/>
        <pt x="477" y="79" on="1"/>
        <pt x="306" y="79" on="0"/>
        <pt x="95" y="252" on="0"/>
        <pt x="95" y="388" on="1"/>
        <pt x="95" y="483" on="0"/>
        <pt x="203" y="630" on="0"/>
        <pt x="327" y="699" on="1"/>
        <pt x="243" y="747" on="0"/>
        <pt x="150" y="889" on="0"/>
        <pt x="150" y="970" on="1"/>
        <pt x="150" y="1088" on="0"/>
        <pt x="323" y="1234" on="0"/>
        <pt x="470" y="1234" on="1"/>
        <pt x="610" y="1234" on="0"/>
        <pt x="785" y="1103" on="0"/>
        <pt x="785" y="992" on="1"/>
        <pt x="785" y="917" on="0"/>
        <pt x="703" y="787" on="0"/>
        <pt x="610" y="722" on="1"/>
        <pt x="643" y="715" on="0"/>
        <pt x="750" y="708" on="0"/>
        <pt x="778" y="708" on="1"/>
        <pt x="1024" y="708" on="0"/>
        <pt x="1191" y="798" on="1"/>
        <pt x="1191" y="1234" on="1"/>
        <pt x="1355" y="1212" on="1"/>
        <pt x="1355" y="311" on="1"/>
        <pt x="1355" y="247" on="0"/>
        <pt x="1372" y="192" on="0"/>
        <pt x="1408" y="161" on="0"/>
        <pt x="1474" y="149" on="0"/>
        <pt x="1532" y="149" on="1"/>
        <pt x="1516" y="0" on="1"/>
        <pt x="1495" y="0" on="1"/>
        <pt x="1381" y="0" on="0"/>
        <pt x="1243" y="69" on="0"/>
        <pt x="1191" y="192" on="0"/>
        <pt x="1191" y="304" on="1"/>
      </contour>
      <contour>
        <pt x="464" y="778" on="1"/>
        <pt x="621" y="865" on="0"/>
        <pt x="621" y="970" on="1"/>
        <pt x="621" y="1026" on="0"/>
        <pt x="542" y="1092" on="0"/>
        <pt x="470" y="1092" on="1"/>
        <pt x="394" y="1092" on="0"/>
        <pt x="313" y="1025" on="0"/>
        <pt x="313" y="964" on="1"/>
        <pt x="313" y="910" on="0"/>
        <pt x="393" y="812" on="0"/>
      </contour>
    </TTGlyph>
    <TTGlyph name="glyph00235" xMin="73" yMin="-89" xMax="1426" yMax="1234">
      <contour>
        <pt x="1097" y="170" on="1"/>
        <pt x="827" y="-20" on="1"/>
        <pt x="725" y="122" on="1"/>
        <pt x="1085" y="331" on="1"/>
        <pt x="1085" y="845" on="1"/>
        <pt x="1036" y="832" on="0"/>
        <pt x="957" y="832" on="1"/>
        <pt x="797" y="832" on="0"/>
        <pt x="648" y="928" on="1"/>
        <pt x="567" y="979" on="0"/>
        <pt x="467" y="1024" on="0"/>
        <pt x="414" y="1024" on="1"/>
        <pt x="348" y="1024" on="0"/>
        <pt x="276" y="959" on="0"/>
        <pt x="276" y="903" on="1"/>
        <pt x="276" y="839" on="0"/>
        <pt x="385" y="767" on="0"/>
        <pt x="515" y="743" on="1"/>
        <pt x="682" y="712" on="0"/>
        <pt x="838" y="568" on="0"/>
        <pt x="838" y="447" on="1"/>
        <pt x="838" y="305" on="0"/>
        <pt x="638" y="149" on="0"/>
        <pt x="450" y="141" on="1"/>
        <pt x="480" y="113" on="0"/>
        <pt x="541" y="79" on="0"/>
        <pt x="612" y="65" on="0"/>
        <pt x="678" y="65" on="1"/>
        <pt x="691" y="65" on="1"/>
        <pt x="673" y="-89" on="1"/>
        <pt x="660" y="-89" on="1"/>
        <pt x="539" y="-89" on="0"/>
        <pt x="344" y="28" on="0"/>
        <pt x="259" y="151" on="1"/>
        <pt x="73" y="178" on="0"/>
        <pt x="73" y="294" on="1"/>
        <pt x="73" y="336" on="0"/>
        <pt x="132" y="394" on="0"/>
        <pt x="181" y="394" on="1"/>
        <pt x="235" y="394" on="0"/>
        <pt x="326" y="341" on="0"/>
        <pt x="370" y="289" on="1"/>
        <pt x="397" y="285" on="0"/>
        <pt x="431" y="285" on="1"/>
        <pt x="548" y="285" on="0"/>
        <pt x="672" y="361" on="0"/>
        <pt x="672" y="430" on="1"/>
        <pt x="672" y="480" on="0"/>
        <pt x="626" y="542" on="0"/>
        <pt x="542" y="578" on="0"/>
        <pt x="452" y="596" on="1"/>
        <pt x="275" y="629" on="0"/>
        <pt x="108" y="783" on="0"/>
        <pt x="108" y="908" on="1"/>
        <pt x="108" y="1025" on="0"/>
        <pt x="274" y="1172" on="0"/>
        <pt x="416" y="1172" on="1"/>
        <pt x="466" y="1172" on="0"/>
        <pt x="554" y="1154" on="0"/>
        <pt x="636" y="1118" on="0"/>
        <pt x="702" y="1076" on="1"/>
        <pt x="767" y="1034" on="0"/>
        <pt x="832" y="1001" on="0"/>
        <pt x="914" y="980" on="0"/>
        <pt x="960" y="980" on="1"/>
        <pt x="1032" y="980" on="0"/>
        <pt x="1085" y="1002" on="1"/>
        <pt x="1085" y="1234" on="1"/>
        <pt x="1249" y="1212" on="1"/>
        <pt x="1249" y="311" on="1"/>
        <pt x="1249" y="247" on="0"/>
        <pt x="1266" y="192" on="0"/>
        <pt x="1302" y="161" on="0"/>
        <pt x="1368" y="149" on="0"/>
        <pt x="1426" y="149" on="1"/>
        <pt x="1410" y="0" on="1"/>
        <pt x="1389" y="0" on="1"/>
        <pt x="1138" y="0" on="0"/>
      </contour>
    </TTGlyph>
    <TTGlyph name="glyph00236" xMin="37" yMin="-394" xMax="1029" yMax="1234">
      <component glyphName="glyph00200" x="0" y="0" flags="0x204"/>
      <component glyphName="uni0ABC" x="1056" y="0" flags="0x4"/>
    </TTGlyph>
    <TTGlyph name="glyph00237" xMin="13" yMin="-394" xMax="1511" yMax="1234">
      <component glyphName="glyph00201" x="0" y="0" flags="0x204"/>
      <component glyphName="uni0ABC" x="1205" y="0" flags="0x4"/>
    </TTGlyph>
    <TTGlyph name="glyph00238" xMin="22" yMin="-394" xMax="1322" yMax="1234">
      <component glyphName="glyph00202" x="0" y="0" flags="0x204"/>
      <component glyphName="uni0ABC" x="1082" y="0" flags="0x4"/>
    </TTGlyph>
    <TTGlyph name="glyph00239" xMin="90" yMin="-394" xMax="1254" yMax="1234">
      <component glyphName="glyph00203" x="0" y="0" flags="0x204"/>
      <component glyphName="uni0ABC" x="1057" y="0" flags="0x4"/>
    </TTGlyph>
    <TTGlyph name="glyph00240" xMin="19" yMin="-542" xMax="966" yMax="1234">
      <component glyphName="uni0A99" x="0" y="0" flags="0x204"/>
      <component glyphName="glyph00129" x="1032" y="-69" flags="0x4"/>
      <component glyphName="uni0ABC" x="713" y="141" flags="0x4"/>
    </TTGlyph>
    <TTGlyph name="glyph00241" xMin="64" yMin="-394" xMax="1336" yMax="1234">
      <component glyphName="glyph00205" x="0" y="0" flags="0x204"/>
      <component glyphName="uni0ABC" x="1082" y="0" flags="0x4"/>
    </TTGlyph>
    <TTGlyph name="glyph00242" xMin="90" yMin="-542" xMax="1436" yMax="1234">
      <component glyphName="uni0A9B" x="0" y="0" flags="0x204"/>
      <component glyphName="glyph00129" x="1251" y="-69" flags="0x4"/>
      <component glyphName="uni0ABC" x="796" y="125" flags="0x4"/>
    </TTGlyph>
    <TTGlyph name="glyph00243" xMin="67" yMin="-473" xMax="1801" yMax="1236">
      <component glyphName="uni0A9C" x="0" y="0" flags="0x204"/>
      <component glyphName="glyph00129" x="1594" y="0" flags="0x4"/>
      <component glyphName="uni0ABC" x="1116" y="240" flags="0x4"/>
    </TTGlyph>
    <TTGlyph name="glyph00244" xMin="22" yMin="-394" xMax="1344" yMax="1234">
      <component glyphName="glyph00208" x="0" y="0" flags="0x204"/>
      <component glyphName="uni0ABC" x="1228" y="0" flags="0x4"/>
    </TTGlyph>
    <TTGlyph name="glyph00245" xMin="22" yMin="-394" xMax="1400" yMax="1234">
      <component glyphName="glyph00209" x="0" y="0" flags="0x204"/>
      <component glyphName="uni0ABC" x="1092" y="0" flags="0x4"/>
    </TTGlyph>
    <TTGlyph name="glyph00246" xMin="37" yMin="-542" xMax="925" yMax="1234">
      <component glyphName="uni0A9F" x="0" y="0" flags="0x204"/>
      <component glyphName="glyph00129" x="991" y="-69" flags="0x4"/>
      <component glyphName="uni0ABC" x="693" y="148" flags="0x4"/>
    </TTGlyph>
    <TTGlyph name="glyph00247" xMin="90" yMin="-542" xMax="994" yMax="1234">
      <component glyphName="uni0AA0" x="0" y="0" flags="0x204"/>
      <component glyphName="glyph00129" x="1060" y="-69" flags="0x4"/>
      <component glyphName="uni0ABC" x="741" y="141" flags="0x4"/>
    </TTGlyph>
    <TTGlyph name="glyph00248" xMin="19" yMin="-542" xMax="966" yMax="1234">
      <component glyphName="uni0AA1" x="0" y="0" flags="0x204"/>
      <component glyphName="glyph00129" x="1032" y="-69" flags="0x4"/>
      <component glyphName="uni0ABC" x="713" y="141" flags="0x4"/>
    </TTGlyph>
    <TTGlyph name="glyph00249" xMin="90" yMin="-542" xMax="1016" yMax="1234">
      <component glyphName="uni0AA2" x="0" y="0" flags="0x204"/>
      <component glyphName="glyph00129" x="1054" y="-69" flags="0x4"/>
      <component glyphName="uni0ABC" x="735" y="141" flags="0x4"/>
    </TTGlyph>
    <TTGlyph name="glyph00250" xMin="153" yMin="-394" xMax="1666" yMax="1234">
      <component glyphName="glyph00214" x="0" y="0" flags="0x204"/>
      <component glyphName="uni0ABC" x="987" y="0" flags="0x4"/>
    </TTGlyph>
    <TTGlyph name="glyph00251" xMin="23" yMin="-113" xMax="1175" yMax="1234">
      <component glyphName="glyph00215" x="0" y="0" flags="0x204"/>
      <component glyphName="uni0ABC" x="1000" y="281" flags="0x4"/>
    </TTGlyph>
    <TTGlyph name="glyph00252" xMin="86" yMin="-394" xMax="1263" yMax="1234">
      <component glyphName="glyph00216" x="0" y="0" flags="0x204"/>
      <component glyphName="uni0ABC" x="1042" y="0" flags="0x4"/>
    </TTGlyph>
    <TTGlyph name="glyph00253" xMin="90" yMin="-477" xMax="1078" yMax="1235">
      <component glyphName="glyph00217" x="0" y="0" flags="0x204"/>
      <component glyphName="uni0ABC" x="1088" y="-83" flags="0x4"/>
    </TTGlyph>
    <TTGlyph name="glyph00254" xMin="90" yMin="-394" xMax="1224" yMax="1324">
      <component glyphName="glyph00218" x="0" y="0" flags="0x204"/>
      <component glyphName="uni0ABC" x="1040" y="0" flags="0x4"/>
    </TTGlyph>
    <TTGlyph name="glyph00255" xMin="49" yMin="-394" xMax="1102" yMax="1234">
      <component glyphName="glyph00219" x="0" y="0" flags="0x204"/>
      <component glyphName="uni0ABC" x="981" y="0" flags="0x4"/>
    </TTGlyph>
    <TTGlyph name="glyph00256" xMin="13" yMin="-394" xMax="1146" yMax="1234">
      <component glyphName="glyph00220" x="0" y="0" flags="0x204"/>
      <component glyphName="uni0ABC" x="1011" y="0" flags="0x4"/>
    </TTGlyph>
    <TTGlyph name="glyph00257" xMin="65" yMin="-513" xMax="1029" yMax="1234">
      <component glyphName="glyph00221" x="0" y="0" flags="0x204"/>
      <component glyphName="uni0ABC" x="830" y="-119" flags="0x4"/>
    </TTGlyph>
    <TTGlyph name="glyph00258" xMin="90" yMin="-394" xMax="1487" yMax="1234">
      <component glyphName="glyph00222" x="0" y="0" flags="0x204"/>
      <component glyphName="uni0ABC" x="1152" y="0" flags="0x4"/>
    </TTGlyph>
    <TTGlyph name="glyph00259" xMin="93" yMin="-394" xMax="1639" yMax="1234">
      <component glyphName="glyph00223" x="0" y="0" flags="0x204"/>
      <component glyphName="uni0ABC" x="1252" y="0" flags="0x4"/>
    </TTGlyph>
    <TTGlyph name="glyph00260" xMin="88" yMin="-394" xMax="1201" yMax="1234">
      <component glyphName="glyph00224" x="0" y="0" flags="0x204"/>
      <component glyphName="uni0ABC" x="1040" y="0" flags="0x4"/>
    </TTGlyph>
    <TTGlyph name="glyph00261" xMin="29" yMin="-394" xMax="1200" yMax="1234">
      <component glyphName="glyph00225" x="0" y="0" flags="0x204"/>
      <component glyphName="uni0ABC" x="1022" y="0" flags="0x4"/>
    </TTGlyph>
    <TTGlyph name="glyph00262" xMin="12" yMin="-542" xMax="900" yMax="1234">
      <component glyphName="uni0AB0" x="0" y="0" flags="0x204"/>
      <component glyphName="uni0ABC" x="751" y="271" flags="0x4"/>
      <component glyphName="glyph00129" x="966" y="-69" flags="0x4"/>
    </TTGlyph>
    <TTGlyph name="glyph00263" xMin="90" yMin="-394" xMax="1317" yMax="1234">
      <component glyphName="glyph00227" x="0" y="0" flags="0x204"/>
      <component glyphName="uni0ABC" x="1056" y="0" flags="0x4"/>
    </TTGlyph>
    <TTGlyph name="glyph00264" xMin="90" yMin="-394" xMax="1519" yMax="1234">
      <component glyphName="glyph00228" x="0" y="0" flags="0x204"/>
      <component glyphName="uni0ABC" x="1182" y="0" flags="0x4"/>
    </TTGlyph>
    <TTGlyph name="glyph00265" xMin="90" yMin="-394" xMax="1166" yMax="1234">
      <component glyphName="glyph00229" x="0" y="0" flags="0x204"/>
      <component glyphName="uni0ABC" x="972" y="0" flags="0x4"/>
    </TTGlyph>
    <TTGlyph name="glyph00266" xMin="26" yMin="-394" xMax="1446" yMax="1234">
      <component glyphName="glyph00230" x="0" y="0" flags="0x204"/>
      <component glyphName="uni0ABC" x="1063" y="0" flags="0x4"/>
    </TTGlyph>
    <TTGlyph name="glyph00267" xMin="13" yMin="-394" xMax="1166" yMax="1234">
      <component glyphName="glyph00231" x="0" y="0" flags="0x204"/>
      <component glyphName="uni0ABC" x="1022" y="0" flags="0x4"/>
    </TTGlyph>
    <TTGlyph name="glyph00268" xMin="63" yMin="-394" xMax="1480" yMax="1234">
      <component glyphName="glyph00232" x="0" y="0" flags="0x204"/>
      <component glyphName="uni0ABC" x="1185" y="0" flags="0x4"/>
    </TTGlyph>
    <TTGlyph name="glyph00269" xMin="105" yMin="-503" xMax="1191" yMax="1234">
      <component glyphName="glyph00233" x="0" y="0" flags="0x204"/>
      <component glyphName="uni0ABC" x="780" y="-109" flags="0x4"/>
    </TTGlyph>
    <TTGlyph name="glyph00270" xMin="37" yMin="-20" xMax="1129" yMax="1234">
      <contour>
        <pt x="65" y="635" on="1"/>
        <pt x="351" y="714" on="1"/>
        <pt x="293" y="766" on="0"/>
        <pt x="235" y="883" on="0"/>
        <pt x="235" y="947" on="1"/>
        <pt x="235" y="1075" on="0"/>
        <pt x="431" y="1234" on="0"/>
        <pt x="593" y="1234" on="1"/>
        <pt x="721" y="1234" on="0"/>
        <pt x="831" y="1207" on="1"/>
        <pt x="801" y="1058" on="1"/>
        <pt x="733" y="1075" on="0"/>
        <pt x="656" y="1084" on="0"/>
        <pt x="610" y="1084" on="1"/>
        <pt x="511" y="1084" on="0"/>
        <pt x="403" y="1005" on="0"/>
        <pt x="403" y="932" on="1"/>
        <pt x="403" y="887" on="0"/>
        <pt x="461" y="802" on="0"/>
        <pt x="519" y="762" on="1"/>
        <pt x="1129" y="762" on="1"/>
        <pt x="1129" y="617" on="1"/>
        <pt x="888" y="617" on="1"/>
        <pt x="790" y="617" on="0"/>
        <pt x="728" y="627" on="1"/>
        <pt x="843" y="551" on="0"/>
        <pt x="953" y="389" on="0"/>
        <pt x="953" y="291" on="1"/>
        <pt x="953" y="151" on="0"/>
        <pt x="742" y="-20" on="0"/>
        <pt x="545" y="-20" on="1"/>
        <pt x="260" y="-20" on="0"/>
        <pt x="37" y="149" on="1"/>
        <pt x="129" y="277" on="1"/>
        <pt x="322" y="130" on="0"/>
        <pt x="537" y="130" on="1"/>
        <pt x="785" y="130" on="0"/>
        <pt x="785" y="294" on="1"/>
        <pt x="785" y="359" on="0"/>
        <pt x="693" y="473" on="0"/>
        <pt x="608" y="533" on="1"/>
        <pt x="383" y="230" on="1"/>
        <pt x="250" y="317" on="1"/>
        <pt x="496" y="608" on="1"/>
        <pt x="495" y="608" on="0"/>
        <pt x="495" y="609" on="1"/>
        <pt x="494" y="609" on="1"/>
        <pt x="111" y="486" on="1"/>
      </contour>
    </TTGlyph>
    <TTGlyph name="glyph00271" xMin="13" yMin="-20" xMax="1199" yMax="1212">
      <contour>
        <pt x="13" y="1063" on="1"/>
        <pt x="29" y="1212" on="1"/>
        <pt x="50" y="1212" on="1"/>
        <pt x="139" y="1212" on="0"/>
        <pt x="253" y="1173" on="0"/>
        <pt x="321" y="1107" on="0"/>
        <pt x="354" y="1006" on="0"/>
        <pt x="354" y="908" on="1"/>
        <pt x="354" y="719" on="1"/>
        <pt x="354" y="612" on="0"/>
        <pt x="397" y="519" on="0"/>
        <pt x="477" y="477" on="0"/>
        <pt x="537" y="477" on="1"/>
        <pt x="601" y="477" on="0"/>
        <pt x="680" y="530" on="0"/>
        <pt x="715" y="622" on="0"/>
        <pt x="715" y="719" on="1"/>
        <pt x="715" y="986" on="1"/>
        <pt x="879" y="964" on="1"/>
        <pt x="879" y="747" on="1"/>
        <pt x="918" y="684" on="0"/>
        <pt x="996" y="684" on="1"/>
        <pt x="1078" y="684" on="0"/>
        <pt x="1141" y="738" on="1"/>
        <pt x="1199" y="600" on="1"/>
        <pt x="1145" y="563" on="0"/>
        <pt x="1058" y="536" on="0"/>
        <pt x="996" y="536" on="1"/>
        <pt x="916" y="536" on="0"/>
        <pt x="863" y="571" on="1"/>
        <pt x="831" y="455" on="0"/>
        <pt x="660" y="329" on="0"/>
        <pt x="535" y="329" on="1"/>
        <pt x="411" y="329" on="0"/>
        <pt x="262" y="424" on="0"/>
        <pt x="190" y="579" on="0"/>
        <pt x="190" y="719" on="1"/>
        <pt x="190" y="901" on="1"/>
        <pt x="190" y="980" on="0"/>
        <pt x="158" y="1040" on="0"/>
        <pt x="91" y="1063" on="0"/>
      </contour>
      <contour>
        <pt x="1170" y="282" on="1"/>
        <pt x="717" y="-20" on="1"/>
        <pt x="615" y="122" on="1"/>
        <pt x="1170" y="451" on="1"/>
      </contour>
    </TTGlyph>
    <TTGlyph name="glyph00272" xMin="22" yMin="-20" xMax="981" yMax="1234">
      <contour>
        <pt x="22" y="620" on="1"/>
        <pt x="152" y="709" on="1"/>
        <pt x="217" y="608" on="0"/>
        <pt x="341" y="514" on="0"/>
        <pt x="422" y="514" on="1"/>
        <pt x="514" y="514" on="0"/>
        <pt x="613" y="653" on="0"/>
        <pt x="613" y="787" on="1"/>
        <pt x="613" y="936" on="0"/>
        <pt x="498" y="1086" on="0"/>
        <pt x="384" y="1086" on="1"/>
        <pt x="270" y="1086" on="0"/>
        <pt x="162" y="1030" on="1"/>
        <pt x="110" y="1168" on="1"/>
        <pt x="169" y="1198" on="0"/>
        <pt x="322" y="1234" on="0"/>
        <pt x="394" y="1234" on="1"/>
        <pt x="577" y="1234" on="0"/>
        <pt x="778" y="1003" on="0"/>
        <pt x="778" y="784" on="1"/>
        <pt x="778" y="576" on="0"/>
        <pt x="600" y="364" on="0"/>
        <pt x="430" y="364" on="1"/>
        <pt x="307" y="364" on="0"/>
        <pt x="106" y="492" on="0"/>
      </contour>
      <contour>
        <pt x="981" y="282" on="1"/>
        <pt x="528" y="-20" on="1"/>
        <pt x="426" y="122" on="1"/>
        <pt x="981" y="451" on="1"/>
      </contour>
    </TTGlyph>
    <TTGlyph name="glyph00273" xMin="90" yMin="-96" xMax="976" yMax="1234">
      <contour>
        <pt x="594" y="1067" on="1"/>
        <pt x="510" y="1086" on="0"/>
        <pt x="449" y="1086" on="1"/>
        <pt x="354" y="1086" on="0"/>
        <pt x="255" y="1022" on="0"/>
        <pt x="255" y="962" on="1"/>
        <pt x="255" y="869" on="0"/>
        <pt x="353" y="811" on="1"/>
        <pt x="430" y="841" on="0"/>
        <pt x="531" y="841" on="1"/>
        <pt x="580" y="841" on="0"/>
        <pt x="655" y="829" on="1"/>
        <pt x="631" y="683" on="1"/>
        <pt x="589" y="693" on="0"/>
        <pt x="527" y="693" on="1"/>
        <pt x="436" y="693" on="0"/>
        <pt x="335" y="614" on="0"/>
        <pt x="335" y="540" on="1"/>
        <pt x="335" y="458" on="0"/>
        <pt x="455" y="367" on="0"/>
        <pt x="561" y="367" on="1"/>
        <pt x="657" y="367" on="0"/>
        <pt x="813" y="431" on="0"/>
        <pt x="897" y="506" on="1"/>
        <pt x="976" y="373" on="1"/>
        <pt x="317" y="-96" on="1"/>
        <pt x="215" y="47" on="1"/>
        <pt x="524" y="233" on="1"/>
        <pt x="355" y="238" on="0"/>
        <pt x="170" y="401" on="0"/>
        <pt x="170" y="535" on="1"/>
        <pt x="170" y="649" on="0"/>
        <pt x="232" y="726" on="1"/>
        <pt x="90" y="830" on="0"/>
        <pt x="90" y="978" on="1"/>
        <pt x="90" y="1090" on="0"/>
        <pt x="274" y="1234" on="0"/>
        <pt x="431" y="1234" on="1"/>
        <pt x="532" y="1234" on="0"/>
        <pt x="622" y="1212" on="1"/>
      </contour>
    </TTGlyph>
    <TTGlyph name="glyph00274" xMin="19" yMin="-806" xMax="1076" yMax="1234">
      <component glyphName="uni0A99" x="0" y="0" flags="0x204"/>
      <component glyphName="glyph00632" x="1012" y="0" flags="0x4"/>
    </TTGlyph>
    <TTGlyph name="glyph00275" xMin="19" yMin="-532" xMax="1066" yMax="1234">
      <component glyphName="glyph00588" x="0" y="0" flags="0x204"/>
      <component glyphName="glyph00631" x="1002" y="0" flags="0x4"/>
    </TTGlyph>
    <TTGlyph name="glyph00276" xMin="64" yMin="-44" xMax="1044" yMax="1234">
      <contour>
        <pt x="119" y="1041" on="1"/>
        <pt x="64" y="1180" on="1"/>
        <pt x="118" y="1204" on="0"/>
        <pt x="260" y="1234" on="0"/>
        <pt x="329" y="1234" on="1"/>
        <pt x="516" y="1234" on="0"/>
        <pt x="721" y="1046" on="0"/>
        <pt x="721" y="877" on="1"/>
        <pt x="721" y="757" on="0"/>
        <pt x="566" y="563" on="0"/>
        <pt x="434" y="517" on="1"/>
        <pt x="518" y="416" on="0"/>
        <pt x="661" y="416" on="1"/>
        <pt x="749" y="416" on="0"/>
        <pt x="890" y="471" on="0"/>
        <pt x="963" y="538" on="1"/>
        <pt x="1044" y="408" on="1"/>
        <pt x="363" y="-44" on="1"/>
        <pt x="257" y="99" on="1"/>
        <pt x="601" y="284" on="1"/>
        <pt x="491" y="291" on="0"/>
        <pt x="324" y="391" on="0"/>
        <pt x="268" y="485" on="1"/>
        <pt x="240" y="485" on="1"/>
        <pt x="156" y="485" on="0"/>
        <pt x="71" y="546" on="0"/>
        <pt x="71" y="601" on="1"/>
        <pt x="71" y="707" on="0"/>
        <pt x="184" y="707" on="1"/>
        <pt x="277" y="707" on="0"/>
        <pt x="348" y="636" on="1"/>
        <pt x="444" y="666" on="0"/>
        <pt x="557" y="798" on="0"/>
        <pt x="557" y="880" on="1"/>
        <pt x="557" y="979" on="0"/>
        <pt x="443" y="1086" on="0"/>
        <pt x="323" y="1086" on="1"/>
        <pt x="276" y="1086" on="0"/>
        <pt x="162" y="1060" on="0"/>
      </contour>
    </TTGlyph>
    <TTGlyph name="glyph00277" xMin="90" yMin="-806" xMax="1436" yMax="1234">
      <component glyphName="uni0A9B" x="0" y="0" flags="0x204"/>
      <component glyphName="glyph00632" x="1221" y="0" flags="0x4"/>
    </TTGlyph>
    <TTGlyph name="glyph00278" xMin="90" yMin="-532" xMax="1413" yMax="1234">
      <component glyphName="glyph00589" x="0" y="0" flags="0x204"/>
      <component glyphName="glyph00631" x="1158" y="0" flags="0x4"/>
    </TTGlyph>
    <TTGlyph name="glyph00279" xMin="67" yMin="-473" xMax="1745" yMax="1234">
      <component glyphName="glyph00137" x="0" y="0" flags="0x204"/>
      <component glyphName="glyph00129" x="1594" y="0" flags="0x4"/>
    </TTGlyph>
    <TTGlyph name="glyph00280" xMin="22" yMin="-20" xMax="1313" yMax="1234">
      <contour>
        <pt x="22" y="236" on="1"/>
        <pt x="151" y="324" on="1"/>
        <pt x="231" y="205" on="0"/>
        <pt x="353" y="130" on="0"/>
        <pt x="436" y="130" on="1"/>
        <pt x="539" y="130" on="0"/>
        <pt x="647" y="307" on="0"/>
        <pt x="647" y="481" on="1"/>
        <pt x="647" y="531" on="0"/>
        <pt x="642" y="573" on="1"/>
        <pt x="312" y="347" on="1"/>
        <pt x="210" y="489" on="1"/>
        <pt x="606" y="719" on="1"/>
        <pt x="575" y="788" on="0"/>
        <pt x="465" y="858" on="0"/>
        <pt x="386" y="858" on="1"/>
        <pt x="322" y="858" on="0"/>
        <pt x="222" y="834" on="0"/>
        <pt x="159" y="803" on="1"/>
        <pt x="107" y="942" on="1"/>
        <pt x="171" y="972" on="0"/>
        <pt x="329" y="1007" on="0"/>
        <pt x="400" y="1007" on="1"/>
        <pt x="521" y="1007" on="0"/>
        <pt x="696" y="902" on="0"/>
        <pt x="750" y="798" on="1"/>
        <pt x="836" y="838" on="0"/>
        <pt x="933" y="844" on="1"/>
        <pt x="933" y="1234" on="1"/>
        <pt x="1097" y="1212" on="1"/>
        <pt x="1097" y="832" on="1"/>
        <pt x="1161" y="817" on="0"/>
        <pt x="1269" y="735" on="0"/>
        <pt x="1313" y="668" on="1"/>
        <pt x="1174" y="585" on="1"/>
        <pt x="1128" y="642" on="0"/>
        <pt x="1038" y="698" on="0"/>
        <pt x="969" y="698" on="1"/>
        <pt x="872" y="698" on="0"/>
        <pt x="799" y="652" on="1"/>
        <pt x="815" y="567" on="0"/>
        <pt x="815" y="476" on="1"/>
        <pt x="815" y="232" on="0"/>
        <pt x="619" y="-20" on="0"/>
        <pt x="440" y="-20" on="1"/>
        <pt x="303" y="-20" on="0"/>
        <pt x="101" y="111" on="0"/>
      </contour>
    </TTGlyph>
    <TTGlyph name="glyph00281" xMin="22" yMin="-20" xMax="1083" yMax="1234">
      <contour>
        <pt x="1083" y="732" on="1"/>
        <pt x="1033" y="705" on="0"/>
        <pt x="938" y="679" on="0"/>
        <pt x="855" y="679" on="1"/>
        <pt x="804" y="679" on="0"/>
        <pt x="768" y="686" on="1"/>
        <pt x="748" y="525" on="0"/>
        <pt x="578" y="364" on="0"/>
        <pt x="427" y="364" on="1"/>
        <pt x="191" y="364" on="0"/>
        <pt x="22" y="620" on="1"/>
        <pt x="152" y="709" on="1"/>
        <pt x="217" y="608" on="0"/>
        <pt x="341" y="514" on="0"/>
        <pt x="422" y="514" on="1"/>
        <pt x="514" y="514" on="0"/>
        <pt x="613" y="653" on="0"/>
        <pt x="613" y="787" on="1"/>
        <pt x="613" y="936" on="0"/>
        <pt x="498" y="1086" on="0"/>
        <pt x="385" y="1086" on="1"/>
        <pt x="271" y="1086" on="0"/>
        <pt x="162" y="1030" on="1"/>
        <pt x="110" y="1168" on="1"/>
        <pt x="169" y="1198" on="0"/>
        <pt x="322" y="1234" on="0"/>
        <pt x="394" y="1234" on="1"/>
        <pt x="562" y="1234" on="0"/>
        <pt x="760" y="1032" on="0"/>
        <pt x="772" y="838" on="1"/>
        <pt x="804" y="828" on="0"/>
        <pt x="852" y="828" on="1"/>
        <pt x="952" y="828" on="0"/>
        <pt x="1029" y="876" on="1"/>
      </contour>
      <contour>
        <pt x="1059" y="282" on="1"/>
        <pt x="606" y="-20" on="1"/>
        <pt x="504" y="122" on="1"/>
        <pt x="1059" y="451" on="1"/>
      </contour>
    </TTGlyph>
    <TTGlyph name="glyph00282" xMin="17" yMin="-806" xMax="1035" yMax="1234">
      <component glyphName="uni0A9F" x="0" y="0" flags="0x204"/>
      <component glyphName="glyph00632" x="971" y="0" flags="0x4"/>
    </TTGlyph>
    <TTGlyph name="glyph00283" xMin="12" yMin="-532" xMax="1038" yMax="1234">
      <component glyphName="glyph00591" x="0" y="0" flags="0x204"/>
      <component glyphName="glyph00631" x="974" y="0" flags="0x4"/>
    </TTGlyph>
    <TTGlyph name="glyph00284" xMin="85" yMin="-806" xMax="1103" yMax="1234">
      <component glyphName="uni0AA0" x="0" y="0" flags="0x204"/>
      <component glyphName="glyph00632" x="1039" y="0" flags="0x4"/>
    </TTGlyph>
    <TTGlyph name="glyph00285" xMin="75" yMin="-532" xMax="1101" yMax="1234">
      <component glyphName="glyph00592" x="0" y="0" flags="0x204"/>
      <component glyphName="glyph00631" x="1037" y="0" flags="0x4"/>
    </TTGlyph>
    <TTGlyph name="glyph00286" xMin="19" yMin="-806" xMax="1067" yMax="1234">
      <component glyphName="uni0AA1" x="0" y="0" flags="0x204"/>
      <component glyphName="glyph00632" x="1003" y="0" flags="0x4"/>
    </TTGlyph>
    <TTGlyph name="glyph00287" xMin="19" yMin="-532" xMax="1066" yMax="1234">
      <component glyphName="glyph00593" x="0" y="0" flags="0x204"/>
      <component glyphName="glyph00631" x="1002" y="0" flags="0x4"/>
    </TTGlyph>
    <TTGlyph name="glyph00288" xMin="84" yMin="-806" xMax="1102" yMax="1234">
      <component glyphName="uni0AA2" x="0" y="0" flags="0x204"/>
      <component glyphName="glyph00632" x="1038" y="0" flags="0x4"/>
    </TTGlyph>
    <TTGlyph name="glyph00289" xMin="72" yMin="-532" xMax="1098" yMax="1234">
      <component glyphName="glyph00594" x="0" y="0" flags="0x204"/>
      <component glyphName="glyph00631" x="1034" y="0" flags="0x4"/>
    </TTGlyph>
    <TTGlyph name="glyph00290" xMin="153" yMin="-291" xMax="1325" yMax="1234">
      <contour>
        <pt x="153" y="1234" on="1"/>
        <pt x="317" y="1212" on="1"/>
        <pt x="317" y="637" on="1"/>
        <pt x="317" y="529" on="0"/>
        <pt x="327" y="455" on="0"/>
        <pt x="370" y="396" on="0"/>
        <pt x="492" y="325" on="0"/>
        <pt x="651" y="258" on="1"/>
        <pt x="790" y="199" on="0"/>
        <pt x="922" y="98" on="0"/>
        <pt x="967" y="2" on="0"/>
        <pt x="967" y="-62" on="1"/>
        <pt x="967" y="-174" on="0"/>
        <pt x="870" y="-291" on="1"/>
        <pt x="737" y="-198" on="1"/>
        <pt x="764" y="-167" on="0"/>
        <pt x="794" y="-106" on="0"/>
        <pt x="794" y="-72" on="1"/>
        <pt x="794" y="-30" on="0"/>
        <pt x="750" y="34" on="0"/>
        <pt x="633" y="102" on="0"/>
        <pt x="523" y="148" on="1"/>
        <pt x="371" y="210" on="0"/>
        <pt x="231" y="295" on="0"/>
        <pt x="171" y="380" on="0"/>
        <pt x="153" y="471" on="0"/>
        <pt x="153" y="566" on="1"/>
      </contour>
      <contour>
        <pt x="568" y="727" on="1"/>
        <pt x="632" y="646" on="0"/>
        <pt x="748" y="577" on="0"/>
        <pt x="812" y="577" on="1"/>
        <pt x="894" y="577" on="0"/>
        <pt x="972" y="700" on="0"/>
        <pt x="972" y="828" on="1"/>
        <pt x="972" y="959" on="0"/>
        <pt x="873" y="1089" on="0"/>
        <pt x="778" y="1089" on="1"/>
        <pt x="667" y="1089" on="0"/>
        <pt x="582" y="1042" on="1"/>
        <pt x="531" y="1176" on="1"/>
        <pt x="648" y="1234" on="0"/>
        <pt x="789" y="1234" on="1"/>
        <pt x="950" y="1234" on="0"/>
        <pt x="1136" y="1019" on="0"/>
        <pt x="1136" y="828" on="1"/>
        <pt x="1136" y="631" on="0"/>
        <pt x="974" y="430" on="0"/>
        <pt x="816" y="430" on="1"/>
        <pt x="717" y="430" on="0"/>
        <pt x="522" y="537" on="0"/>
        <pt x="445" y="635" on="1"/>
      </contour>
      <contour>
        <pt x="1325" y="346" on="1"/>
        <pt x="1012" y="139" on="1"/>
        <pt x="910" y="281" on="1"/>
        <pt x="1325" y="524" on="1"/>
      </contour>
    </TTGlyph>
    <TTGlyph name="glyph00291" xMin="23" yMin="276" xMax="818" yMax="1092">
      <contour>
        <pt x="23" y="1009" on="1"/>
        <pt x="93" y="1046" on="0"/>
        <pt x="255" y="1092" on="0"/>
        <pt x="329" y="1092" on="1"/>
        <pt x="483" y="1092" on="0"/>
        <pt x="683" y="963" on="0"/>
        <pt x="818" y="788" on="1"/>
        <pt x="818" y="614" on="1"/>
        <pt x="298" y="276" on="1"/>
        <pt x="196" y="419" on="1"/>
        <pt x="692" y="713" on="1"/>
        <pt x="622" y="815" on="0"/>
        <pt x="461" y="938" on="0"/>
        <pt x="337" y="938" on="1"/>
        <pt x="269" y="938" on="0"/>
        <pt x="154" y="906" on="0"/>
        <pt x="81" y="866" on="1"/>
      </contour>
    </TTGlyph>
    <TTGlyph name="glyph00292" xMin="86" yMin="-20" xMax="953" yMax="1234">
      <contour>
        <pt x="953" y="434" on="1"/>
        <pt x="280" y="-20" on="1"/>
        <pt x="174" y="123" on="1"/>
        <pt x="525" y="312" on="1"/>
        <pt x="364" y="317" on="0"/>
        <pt x="148" y="484" on="0"/>
        <pt x="86" y="653" on="1"/>
        <pt x="293" y="709" on="0"/>
        <pt x="500" y="869" on="0"/>
        <pt x="500" y="976" on="1"/>
        <pt x="500" y="1032" on="0"/>
        <pt x="431" y="1096" on="0"/>
        <pt x="374" y="1096" on="1"/>
        <pt x="316" y="1096" on="0"/>
        <pt x="248" y="1045" on="0"/>
        <pt x="248" y="1002" on="1"/>
        <pt x="248" y="960" on="0"/>
        <pt x="292" y="905" on="0"/>
        <pt x="340" y="881" on="1"/>
        <pt x="245" y="770" on="1"/>
        <pt x="90" y="856" on="0"/>
        <pt x="90" y="1006" on="1"/>
        <pt x="90" y="1105" on="0"/>
        <pt x="244" y="1234" on="0"/>
        <pt x="373" y="1234" on="1"/>
        <pt x="509" y="1234" on="0"/>
        <pt x="660" y="1085" on="0"/>
        <pt x="660" y="971" on="1"/>
        <pt x="660" y="842" on="0"/>
        <pt x="485" y="647" on="0"/>
        <pt x="303" y="572" on="1"/>
        <pt x="384" y="447" on="0"/>
        <pt x="555" y="447" on="1"/>
        <pt x="651" y="447" on="0"/>
        <pt x="812" y="503" on="0"/>
        <pt x="889" y="569" on="1"/>
      </contour>
    </TTGlyph>
    <TTGlyph name="glyph00293" xMin="90" yMin="-727" xMax="1344" yMax="1235">
      <component glyphName="glyph00217" x="0" y="0" flags="0x204"/>
      <component glyphName="glyph00640" x="1003" y="0" flags="0x4"/>
    </TTGlyph>
    <TTGlyph name="glyph00294" xMin="90" yMin="-547" xMax="1344" yMax="1235">
      <component glyphName="glyph00600" x="0" y="0" flags="0x204"/>
      <component glyphName="uni0ACD" x="1003" y="0" flags="0x4"/>
    </TTGlyph>
    <TTGlyph name="glyph00295" xMin="90" yMin="-96" xMax="943" yMax="1324">
      <contour>
        <pt x="943" y="361" on="1"/>
        <pt x="306" y="-96" on="1"/>
        <pt x="204" y="47" on="1"/>
        <pt x="513" y="233" on="1"/>
        <pt x="356" y="238" on="0"/>
        <pt x="170" y="405" on="0"/>
        <pt x="170" y="535" on="1"/>
        <pt x="170" y="651" on="0"/>
        <pt x="233" y="727" on="1"/>
        <pt x="90" y="835" on="0"/>
        <pt x="90" y="985" on="1"/>
        <pt x="90" y="1100" on="0"/>
        <pt x="256" y="1273" on="0"/>
        <pt x="421" y="1324" on="1"/>
        <pt x="481" y="1176" on="1"/>
        <pt x="372" y="1146" on="0"/>
        <pt x="255" y="1046" on="0"/>
        <pt x="255" y="970" on="1"/>
        <pt x="255" y="871" on="0"/>
        <pt x="352" y="811" on="1"/>
        <pt x="429" y="841" on="0"/>
        <pt x="531" y="841" on="1"/>
        <pt x="580" y="841" on="0"/>
        <pt x="655" y="829" on="1"/>
        <pt x="631" y="683" on="1"/>
        <pt x="589" y="693" on="0"/>
        <pt x="527" y="693" on="1"/>
        <pt x="436" y="693" on="0"/>
        <pt x="335" y="614" on="0"/>
        <pt x="335" y="540" on="1"/>
        <pt x="335" y="458" on="0"/>
        <pt x="454" y="367" on="0"/>
        <pt x="559" y="367" on="1"/>
        <pt x="646" y="367" on="0"/>
        <pt x="790" y="423" on="0"/>
        <pt x="867" y="494" on="1"/>
      </contour>
    </TTGlyph>
    <TTGlyph name="glyph00296" xMin="49" yMin="-20" xMax="761" yMax="820">
      <contour>
        <pt x="392" y="672" on="1"/>
        <pt x="392" y="555" on="1"/>
        <pt x="392" y="498" on="0"/>
        <pt x="336" y="438" on="0"/>
        <pt x="287" y="438" on="1"/>
        <pt x="239" y="438" on="0"/>
        <pt x="125" y="526" on="0"/>
        <pt x="49" y="656" on="0"/>
        <pt x="49" y="712" on="1"/>
        <pt x="49" y="820" on="0"/>
        <pt x="173" y="820" on="1"/>
        <pt x="761" y="820" on="1"/>
        <pt x="761" y="672" on="1"/>
      </contour>
      <contour>
        <pt x="761" y="276" on="1"/>
        <pt x="308" y="-20" on="1"/>
        <pt x="206" y="122" on="1"/>
        <pt x="761" y="451" on="1"/>
      </contour>
    </TTGlyph>
    <TTGlyph name="glyph00297" xMin="13" yMin="-20" xMax="832" yMax="1212">
      <contour>
        <pt x="354" y="732" on="1"/>
        <pt x="354" y="587" on="0"/>
        <pt x="447" y="477" on="0"/>
        <pt x="558" y="477" on="1"/>
        <pt x="669" y="477" on="0"/>
        <pt x="775" y="559" on="1"/>
        <pt x="832" y="423" on="1"/>
        <pt x="206" y="-20" on="1"/>
        <pt x="104" y="123" on="1"/>
        <pt x="472" y="344" on="1"/>
        <pt x="365" y="352" on="0"/>
        <pt x="239" y="466" on="0"/>
        <pt x="190" y="608" on="0"/>
        <pt x="190" y="717" on="1"/>
        <pt x="190" y="901" on="1"/>
        <pt x="190" y="980" on="0"/>
        <pt x="158" y="1040" on="0"/>
        <pt x="91" y="1063" on="0"/>
        <pt x="13" y="1063" on="1"/>
        <pt x="29" y="1212" on="1"/>
        <pt x="50" y="1212" on="1"/>
        <pt x="139" y="1212" on="0"/>
        <pt x="253" y="1173" on="0"/>
        <pt x="321" y="1107" on="0"/>
        <pt x="354" y="1006" on="0"/>
        <pt x="354" y="908" on="1"/>
      </contour>
    </TTGlyph>
    <TTGlyph name="glyph00298" xMin="65" yMin="-323" xMax="1129" yMax="1234">
      <contour>
        <pt x="65" y="635" on="1"/>
        <pt x="352" y="714" on="1"/>
        <pt x="293" y="767" on="0"/>
        <pt x="235" y="884" on="0"/>
        <pt x="235" y="947" on="1"/>
        <pt x="235" y="1075" on="0"/>
        <pt x="431" y="1234" on="0"/>
        <pt x="593" y="1234" on="1"/>
        <pt x="721" y="1234" on="0"/>
        <pt x="831" y="1207" on="1"/>
        <pt x="801" y="1058" on="1"/>
        <pt x="733" y="1075" on="0"/>
        <pt x="656" y="1084" on="0"/>
        <pt x="610" y="1084" on="1"/>
        <pt x="511" y="1084" on="0"/>
        <pt x="403" y="1005" on="0"/>
        <pt x="403" y="932" on="1"/>
        <pt x="403" y="887" on="0"/>
        <pt x="461" y="802" on="0"/>
        <pt x="519" y="762" on="1"/>
        <pt x="1129" y="762" on="1"/>
        <pt x="1129" y="617" on="1"/>
        <pt x="888" y="617" on="1"/>
        <pt x="790" y="617" on="0"/>
        <pt x="728" y="627" on="1"/>
        <pt x="843" y="551" on="0"/>
        <pt x="953" y="389" on="0"/>
        <pt x="953" y="291" on="1"/>
        <pt x="953" y="153" on="0"/>
        <pt x="747" y="-20" on="0"/>
        <pt x="556" y="-20" on="1"/>
        <pt x="522" y="-20" on="0"/>
        <pt x="481" y="-18" on="1"/>
        <pt x="532" y="-78" on="0"/>
        <pt x="618" y="-142" on="0"/>
        <pt x="709" y="-169" on="0"/>
        <pt x="783" y="-169" on="1"/>
        <pt x="831" y="-169" on="1"/>
        <pt x="813" y="-323" on="1"/>
        <pt x="781" y="-323" on="1"/>
        <pt x="639" y="-323" on="0"/>
        <pt x="411" y="-180" on="0"/>
        <pt x="293" y="-6" on="1"/>
        <pt x="189" y="7" on="0"/>
        <pt x="89" y="90" on="0"/>
        <pt x="89" y="149" on="1"/>
        <pt x="89" y="194" on="0"/>
        <pt x="150" y="249" on="0"/>
        <pt x="197" y="249" on="1"/>
        <pt x="252" y="249" on="0"/>
        <pt x="345" y="192" on="0"/>
        <pt x="390" y="139" on="1"/>
        <pt x="455" y="125" on="0"/>
        <pt x="551" y="125" on="1"/>
        <pt x="664" y="125" on="0"/>
        <pt x="785" y="212" on="0"/>
        <pt x="785" y="294" on="1"/>
        <pt x="785" y="359" on="0"/>
        <pt x="693" y="473" on="0"/>
        <pt x="608" y="533" on="1"/>
        <pt x="402" y="256" on="1"/>
        <pt x="269" y="343" on="1"/>
        <pt x="495" y="608" on="1"/>
        <pt x="495" y="609" on="1"/>
        <pt x="494" y="609" on="1"/>
        <pt x="111" y="486" on="1"/>
      </contour>
    </TTGlyph>
    <TTGlyph name="glyph00299" xMin="90" yMin="-20" xMax="1175" yMax="1234">
      <contour>
        <pt x="531" y="1234" on="1"/>
        <pt x="578" y="1085" on="1"/>
        <pt x="258" y="989" on="0"/>
        <pt x="258" y="722" on="1"/>
        <pt x="258" y="593" on="0"/>
        <pt x="379" y="457" on="0"/>
        <pt x="480" y="457" on="1"/>
        <pt x="557" y="457" on="0"/>
        <pt x="655" y="526" on="0"/>
        <pt x="691" y="645" on="0"/>
        <pt x="691" y="755" on="1"/>
        <pt x="691" y="916" on="1"/>
        <pt x="855" y="894" on="1"/>
        <pt x="855" y="677" on="1"/>
        <pt x="894" y="614" on="0"/>
        <pt x="972" y="614" on="1"/>
        <pt x="1054" y="614" on="0"/>
        <pt x="1117" y="668" on="1"/>
        <pt x="1175" y="530" on="1"/>
        <pt x="1121" y="493" on="0"/>
        <pt x="1034" y="466" on="0"/>
        <pt x="972" y="466" on="1"/>
        <pt x="879" y="466" on="0"/>
        <pt x="822" y="513" on="1"/>
        <pt x="781" y="412" on="0"/>
        <pt x="603" y="309" on="0"/>
        <pt x="477" y="309" on="1"/>
        <pt x="303" y="309" on="0"/>
        <pt x="90" y="537" on="0"/>
        <pt x="90" y="725" on="1"/>
        <pt x="90" y="908" on="0"/>
        <pt x="311" y="1165" on="0"/>
      </contour>
      <contour>
        <pt x="1146" y="276" on="1"/>
        <pt x="693" y="-20" on="1"/>
        <pt x="591" y="122" on="1"/>
        <pt x="1146" y="451" on="1"/>
      </contour>
    </TTGlyph>
    <TTGlyph name="glyph00300" xMin="93" yMin="-20" xMax="1298" yMax="1234">
      <contour>
        <pt x="593" y="211" on="1"/>
        <pt x="479" y="100" on="1"/>
        <pt x="271" y="283" on="0"/>
        <pt x="93" y="604" on="0"/>
        <pt x="93" y="786" on="1"/>
        <pt x="93" y="986" on="0"/>
        <pt x="330" y="1234" on="0"/>
        <pt x="522" y="1234" on="1"/>
        <pt x="653" y="1234" on="0"/>
        <pt x="833" y="1123" on="0"/>
        <pt x="920" y="929" on="0"/>
        <pt x="920" y="773" on="1"/>
        <pt x="920" y="748" on="1"/>
        <pt x="1298" y="748" on="1"/>
        <pt x="1298" y="600" on="1"/>
        <pt x="920" y="600" on="1"/>
        <pt x="920" y="522" on="1"/>
        <pt x="920" y="462" on="0"/>
        <pt x="866" y="394" on="0"/>
        <pt x="821" y="394" on="1"/>
        <pt x="773" y="394" on="0"/>
        <pt x="655" y="481" on="0"/>
        <pt x="576" y="608" on="0"/>
        <pt x="576" y="658" on="1"/>
        <pt x="576" y="701" on="0"/>
        <pt x="640" y="748" on="0"/>
        <pt x="701" y="748" on="1"/>
        <pt x="756" y="748" on="1"/>
        <pt x="756" y="761" on="1"/>
        <pt x="756" y="879" on="0"/>
        <pt x="711" y="1012" on="0"/>
        <pt x="608" y="1086" on="0"/>
        <pt x="523" y="1086" on="1"/>
        <pt x="397" y="1086" on="0"/>
        <pt x="258" y="918" on="0"/>
        <pt x="258" y="783" on="1"/>
        <pt x="258" y="636" on="0"/>
        <pt x="407" y="372" on="0"/>
      </contour>
      <contour>
        <pt x="1298" y="276" on="1"/>
        <pt x="845" y="-20" on="1"/>
        <pt x="743" y="122" on="1"/>
        <pt x="1298" y="451" on="1"/>
      </contour>
    </TTGlyph>
    <TTGlyph name="glyph00301" xMin="88" yMin="-20" xMax="861" yMax="1213">
      <contour>
        <pt x="432" y="673" on="1"/>
        <pt x="861" y="673" on="1"/>
        <pt x="861" y="525" on="1"/>
        <pt x="432" y="525" on="1"/>
        <pt x="432" y="447" on="1"/>
        <pt x="432" y="387" on="0"/>
        <pt x="378" y="319" on="0"/>
        <pt x="333" y="319" on="1"/>
        <pt x="285" y="319" on="0"/>
        <pt x="167" y="406" on="0"/>
        <pt x="88" y="533" on="0"/>
        <pt x="88" y="583" on="1"/>
        <pt x="88" y="626" on="0"/>
        <pt x="152" y="673" on="0"/>
        <pt x="213" y="673" on="1"/>
        <pt x="268" y="673" on="1"/>
        <pt x="268" y="902" on="1"/>
        <pt x="268" y="981" on="0"/>
        <pt x="236" y="1041" on="0"/>
        <pt x="169" y="1064" on="0"/>
        <pt x="91" y="1064" on="1"/>
        <pt x="107" y="1213" on="1"/>
        <pt x="128" y="1213" on="1"/>
        <pt x="217" y="1213" on="0"/>
        <pt x="331" y="1174" on="0"/>
        <pt x="399" y="1108" on="0"/>
        <pt x="432" y="1007" on="0"/>
        <pt x="432" y="909" on="1"/>
      </contour>
      <contour>
        <pt x="860" y="275" on="1"/>
        <pt x="407" y="-20" on="1"/>
        <pt x="305" y="122" on="1"/>
        <pt x="860" y="451" on="1"/>
      </contour>
    </TTGlyph>
    <TTGlyph name="glyph00302" xMin="29" yMin="-20" xMax="902" yMax="1234">
      <contour>
        <pt x="902" y="453" on="1"/>
        <pt x="234" y="-20" on="1"/>
        <pt x="132" y="123" on="1"/>
        <pt x="500" y="344" on="1"/>
        <pt x="353" y="351" on="0"/>
        <pt x="148" y="521" on="0"/>
        <pt x="89" y="683" on="1"/>
        <pt x="357" y="758" on="0"/>
        <pt x="357" y="924" on="1"/>
        <pt x="357" y="999" on="0"/>
        <pt x="256" y="1088" on="0"/>
        <pt x="170" y="1088" on="1"/>
        <pt x="115" y="1088" on="0"/>
        <pt x="66" y="1077" on="1"/>
        <pt x="29" y="1217" on="1"/>
        <pt x="107" y="1234" on="0"/>
        <pt x="181" y="1234" on="1"/>
        <pt x="341" y="1234" on="0"/>
        <pt x="522" y="1068" on="0"/>
        <pt x="522" y="926" on="1"/>
        <pt x="522" y="721" on="0"/>
        <pt x="299" y="613" on="1"/>
        <pt x="335" y="549" on="0"/>
        <pt x="469" y="477" on="0"/>
        <pt x="550" y="477" on="1"/>
        <pt x="626" y="477" on="0"/>
        <pt x="759" y="525" on="0"/>
        <pt x="829" y="582" on="1"/>
      </contour>
    </TTGlyph>
    <TTGlyph name="glyph00303" xMin="12" yMin="-806" xMax="1030" yMax="1234">
      <component glyphName="uni0AB0" x="0" y="0" flags="0x204"/>
      <component glyphName="glyph00632" x="966" y="0" flags="0x4"/>
    </TTGlyph>
    <TTGlyph name="glyph00304" xMin="7" yMin="-532" xMax="1033" yMax="1234">
      <component glyphName="glyph00605" x="0" y="0" flags="0x204"/>
      <component glyphName="glyph00631" x="969" y="0" flags="0x4"/>
    </TTGlyph>
    <TTGlyph name="glyph00305" xMin="90" yMin="-20" xMax="993" yMax="1234">
      <contour>
        <pt x="523" y="-20" on="1"/>
        <pt x="421" y="122" on="1"/>
        <pt x="663" y="265" on="1"/>
        <pt x="626" y="258" on="0"/>
        <pt x="572" y="258" on="1"/>
        <pt x="348" y="258" on="0"/>
        <pt x="90" y="507" on="0"/>
        <pt x="90" y="720" on="1"/>
        <pt x="90" y="911" on="0"/>
        <pt x="360" y="1182" on="0"/>
        <pt x="612" y="1234" on="1"/>
        <pt x="653" y="1082" on="1"/>
        <pt x="450" y="1042" on="0"/>
        <pt x="258" y="857" on="0"/>
        <pt x="258" y="703" on="1"/>
        <pt x="258" y="562" on="0"/>
        <pt x="425" y="406" on="0"/>
        <pt x="565" y="406" on="1"/>
        <pt x="638" y="406" on="0"/>
        <pt x="704" y="422" on="1"/>
        <pt x="742" y="312" on="1"/>
        <pt x="976" y="451" on="1"/>
        <pt x="976" y="281" on="1"/>
      </contour>
      <contour>
        <pt x="500" y="622" on="1"/>
        <pt x="462" y="773" on="1"/>
        <pt x="963" y="873" on="1"/>
        <pt x="993" y="722" on="1"/>
      </contour>
    </TTGlyph>
    <TTGlyph name="glyph00306" xMin="90" yMin="-20" xMax="1178" yMax="1234">
      <contour>
        <pt x="1110" y="943" on="1"/>
        <pt x="1068" y="960" on="0"/>
        <pt x="1024" y="960" on="1"/>
        <pt x="949" y="960" on="0"/>
        <pt x="882" y="859" on="0"/>
        <pt x="882" y="754" on="1"/>
        <pt x="882" y="743" on="1"/>
        <pt x="882" y="632" on="0"/>
        <pt x="847" y="475" on="0"/>
        <pt x="756" y="356" on="0"/>
        <pt x="606" y="289" on="0"/>
        <pt x="496" y="289" on="1"/>
        <pt x="314" y="289" on="0"/>
        <pt x="90" y="524" on="0"/>
        <pt x="90" y="724" on="1"/>
        <pt x="90" y="903" on="0"/>
        <pt x="312" y="1164" on="0"/>
        <pt x="531" y="1234" on="1"/>
        <pt x="578" y="1085" on="1"/>
        <pt x="422" y="1034" on="0"/>
        <pt x="258" y="853" on="0"/>
        <pt x="258" y="717" on="1"/>
        <pt x="258" y="581" on="0"/>
        <pt x="383" y="436" on="0"/>
        <pt x="494" y="436" on="1"/>
        <pt x="556" y="436" on="0"/>
        <pt x="639" y="471" on="0"/>
        <pt x="693" y="535" on="0"/>
        <pt x="718" y="632" on="0"/>
        <pt x="718" y="730" on="1"/>
        <pt x="718" y="762" on="1"/>
        <pt x="718" y="885" on="0"/>
        <pt x="782" y="1019" on="0"/>
        <pt x="917" y="1105" on="0"/>
        <pt x="1020" y="1105" on="1"/>
        <pt x="1085" y="1105" on="0"/>
        <pt x="1151" y="1083" on="1"/>
      </contour>
      <contour>
        <pt x="1178" y="282" on="1"/>
        <pt x="725" y="-20" on="1"/>
        <pt x="623" y="122" on="1"/>
        <pt x="1178" y="451" on="1"/>
      </contour>
    </TTGlyph>
    <TTGlyph name="glyph00307" xMin="90" yMin="-20" xMax="892" yMax="1105">
      <contour>
        <pt x="892" y="479" on="1"/>
        <pt x="240" y="-20" on="1"/>
        <pt x="130" y="114" on="1"/>
        <pt x="464" y="339" on="1"/>
        <pt x="292" y="347" on="0"/>
        <pt x="90" y="547" on="0"/>
        <pt x="90" y="706" on="1"/>
        <pt x="90" y="889" on="0"/>
        <pt x="336" y="1105" on="0"/>
        <pt x="539" y="1105" on="1"/>
        <pt x="582" y="1105" on="0"/>
        <pt x="697" y="1092" on="0"/>
        <pt x="736" y="1082" on="1"/>
        <pt x="709" y="937" on="1"/>
        <pt x="620" y="955" on="0"/>
        <pt x="545" y="955" on="1"/>
        <pt x="407" y="955" on="0"/>
        <pt x="255" y="826" on="0"/>
        <pt x="255" y="709" on="1"/>
        <pt x="255" y="600" on="0"/>
        <pt x="385" y="477" on="0"/>
        <pt x="497" y="477" on="1"/>
        <pt x="578" y="477" on="0"/>
        <pt x="715" y="524" on="0"/>
        <pt x="810" y="605" on="1"/>
      </contour>
    </TTGlyph>
    <TTGlyph name="glyph00308" xMin="26" yMin="78" xMax="1105" yMax="1234">
      <contour>
        <pt x="1105" y="424" on="1"/>
        <pt x="578" y="78" on="1"/>
        <pt x="476" y="220" on="1"/>
        <pt x="829" y="428" on="1"/>
        <pt x="872" y="453" on="0"/>
        <pt x="933" y="482" on="1"/>
        <pt x="819" y="506" on="0"/>
        <pt x="617" y="563" on="0"/>
        <pt x="530" y="597" on="1"/>
        <pt x="397" y="504" on="0"/>
        <pt x="123" y="334" on="1"/>
        <pt x="26" y="479" on="1"/>
        <pt x="196" y="571" on="0"/>
        <pt x="363" y="670" on="1"/>
        <pt x="263" y="723" on="0"/>
        <pt x="158" y="877" on="0"/>
        <pt x="158" y="970" on="1"/>
        <pt x="158" y="1079" on="0"/>
        <pt x="331" y="1234" on="0"/>
        <pt x="470" y="1234" on="1"/>
        <pt x="624" y="1234" on="0"/>
        <pt x="796" y="1086" on="0"/>
        <pt x="796" y="962" on="1"/>
        <pt x="796" y="887" on="0"/>
        <pt x="725" y="763" on="0"/>
        <pt x="652" y="704" on="1"/>
        <pt x="739" y="677" on="0"/>
        <pt x="966" y="620" on="0"/>
        <pt x="1105" y="590" on="1"/>
      </contour>
      <contour>
        <pt x="496" y="761" on="1"/>
        <pt x="567" y="812" on="0"/>
        <pt x="634" y="904" on="0"/>
        <pt x="634" y="959" on="1"/>
        <pt x="634" y="1019" on="0"/>
        <pt x="553" y="1091" on="0"/>
        <pt x="478" y="1091" on="1"/>
        <pt x="409" y="1091" on="0"/>
        <pt x="322" y="1018" on="0"/>
        <pt x="322" y="957" on="1"/>
        <pt x="322" y="895" on="0"/>
        <pt x="407" y="801" on="0"/>
      </contour>
    </TTGlyph>
    <TTGlyph name="glyph00309" xMin="13" yMin="-20" xMax="919" yMax="1212">
      <contour>
        <pt x="919" y="481" on="1"/>
        <pt x="204" y="-20" on="1"/>
        <pt x="102" y="123" on="1"/>
        <pt x="470" y="344" on="1"/>
        <pt x="388" y="354" on="0"/>
        <pt x="260" y="440" on="0"/>
        <pt x="190" y="584" on="0"/>
        <pt x="190" y="717" on="1"/>
        <pt x="190" y="929" on="1"/>
        <pt x="190" y="991" on="0"/>
        <pt x="158" y="1043" on="0"/>
        <pt x="92" y="1063" on="0"/>
        <pt x="13" y="1063" on="1"/>
        <pt x="29" y="1212" on="1"/>
        <pt x="50" y="1212" on="1"/>
        <pt x="202" y="1212" on="0"/>
        <pt x="276" y="1150" on="1"/>
        <pt x="697" y="839" on="1"/>
        <pt x="809" y="756" on="0"/>
        <pt x="919" y="652" on="1"/>
      </contour>
      <contour>
        <pt x="354" y="732" on="1"/>
        <pt x="354" y="587" on="0"/>
        <pt x="447" y="477" on="0"/>
        <pt x="558" y="477" on="1"/>
        <pt x="692" y="477" on="0"/>
        <pt x="818" y="586" on="1"/>
        <pt x="558" y="779" on="1"/>
        <pt x="428" y="876" on="0"/>
        <pt x="345" y="948" on="1"/>
        <pt x="354" y="897" on="0"/>
        <pt x="354" y="804" on="1"/>
      </contour>
    </TTGlyph>
</ttFont>
